NotoSerifTamilSlanted-SemiCondensedBlack.ufo
<glyph name="exclam" format="2">
  <advance width="414.23333333333335"/>
  <unicode hex="0021"/>
  <outline>
    <contour>
      <point x="161.23333333333335" y="238.0" type="line"/>
      <point x="238.9" y="238.0" type="line"/>
      <point x="418.59999999999997" y="714.0" type="line"/>
      <point x="212.96666666666667" y="714.0" type="line"/>
    </contour>
    <contour>
      <point x="174.36666666666667" y="-8.0" type="curve" smooth="yes"/>
      <point x="221.16666666666666" y="-8.0"/>
      <point x="271.96666666666664" y="17.0"/>
      <point x="271.96666666666664" y="91.26666666666667" type="curve" smooth="yes"/>
      <point x="271.96666666666664" y="143.43333333333334"/>
      <point x="234.9" y="168.70000000000002"/>
      <point x="183.56666666666666" y="168.70000000000002" type="curve" smooth="yes"/>
      <point x="124.13333333333333" y="168.70000000000002"/>
      <point x="85.96666666666667" y="128.7"/>
      <point x="85.96666666666667" y="69.06666666666666" type="curve" smooth="yes"/>
      <point x="85.96666666666667" y="16.266666666666666"/>
      <point x="122.03333333333333" y="-8.0"/>
    </contour>
  </outline>
</glyph>
<glyph name="quotedbl" format="2">
  <advance width="515.3666666666667"/>
  <unicode hex="0022"/>
  <outline>
    <contour>
      <point x="129.06666666666666" y="415.5" type="line"/>
      <point x="205.66666666666666" y="415.5" type="line"/>
      <point x="341.3666666666667" y="714.0" type="line"/>
      <point x="158.63333333333333" y="714.0" type="line"/>
    </contour>
    <contour>
      <point x="355.40000000000003" y="415.5" type="line"/>
      <point x="432.0" y="415.5" type="line"/>
      <point x="566.7" y="714.0" type="line"/>
      <point x="384.9666666666667" y="714.0" type="line"/>
    </contour>
  </outline>
</glyph>
<glyph name="numbersign" format="2">
  <advance width="521.2333333333333"/>
  <unicode hex="0023"/>
  <outline>
    <contour>
      <point x="54.96666666666667" y="0.0" type="line"/>
      <point x="129.2" y="0.0" type="line"/>
      <point x="187.1" y="198.36666666666667" type="line"/>
      <point x="287.0333333333333" y="198.36666666666667" type="line"/>
      <point x="230.76666666666665" y="0.0" type="line"/>
      <point x="305.3666666666667" y="0.0" type="line"/>
      <point x="361.2666666666667" y="198.36666666666667" type="line"/>
      <point x="471.2" y="198.36666666666667" type="line"/>
      <point x="478.56666666666666" y="272.9" type="line"/>
      <point x="383.90000000000003" y="272.9" type="line"/>
      <point x="432.8" y="445.1" type="line"/>
      <point x="528.8333333333334" y="445.1" type="line"/>
      <point x="539.2" y="521.6333333333333" type="line"/>
      <point x="456.43333333333334" y="521.6333333333333" type="line"/>
      <point x="511.33333333333337" y="714.0" type="line"/>
      <point x="437.09999999999997" y="714.0" type="line"/>
      <point x="382.2" y="521.6333333333333" type="line"/>
      <point x="281.26666666666665" y="521.6333333333333" type="line"/>
      <point x="335.1666666666667" y="714.0" type="line"/>
      <point x="260.29999999999995" y="714.0" type="line"/>
      <point x="207.4" y="521.6333333333333" type="line"/>
      <point x="100.1" y="521.6333333333333" type="line"/>
      <point x="89.73333333333333" y="445.1" type="line"/>
      <point x="183.76666666666668" y="445.1" type="line"/>
      <point x="133.5" y="272.9" type="line"/>
      <point x="40.46666666666667" y="272.9" type="line"/>
      <point x="33.1" y="198.36666666666667" type="line"/>
      <point x="112.86666666666667" y="198.36666666666667" type="line"/>
    </contour>
    <contour>
      <point x="206.73333333333335" y="272.9" type="line"/>
      <point x="257.6333333333333" y="445.1" type="line"/>
      <point x="359.56666666666666" y="445.1" type="line"/>
      <point x="308.66666666666663" y="272.9" type="line"/>
    </contour>
  </outline>
</glyph>
<glyph name="percent" format="2">
  <advance width="873.0333333333333"/>
  <unicode hex="0025"/>
  <outline>
    <contour>
      <point x="195.16666666666666" y="0.0" type="line"/>
      <point x="271.0333333333333" y="0.0" type="line"/>
      <point x="736.9333333333333" y="714.0" type="line"/>
      <point x="664.0666666666667" y="714.0" type="line"/>
    </contour>
    <contour>
      <point x="215.73333333333332" y="279.0" type="curve" smooth="yes"/>
      <point x="379.56666666666666" y="279.0"/>
      <point x="453.3666666666667" y="463.6666666666667"/>
      <point x="453.3666666666667" y="584.4666666666667" type="curve" smooth="yes"/>
      <point x="453.3666666666667" y="662.4666666666667"/>
      <point x="410.0333333333333" y="725.0"/>
      <point x="311.1" y="725.0" type="curve" smooth="yes"/>
      <point x="148.89999999999998" y="725.0"/>
      <point x="77.10000000000001" y="546.6"/>
      <point x="77.10000000000001" y="414.90000000000003" type="curve"/>
      <point x="77.10000000000001" y="328.90000000000003"/>
      <point x="131.33333333333334" y="279.0"/>
    </contour>
    <contour>
      <point x="233.10000000000002" y="336.5333333333333" type="curve" smooth="yes"/>
      <point x="209.66666666666666" y="336.5333333333333"/>
      <point x="199.76666666666665" y="366.06666666666666"/>
      <point x="199.76666666666665" y="409.3333333333333" type="curve" smooth="yes"/>
      <point x="199.76666666666665" y="483.1666666666667"/>
      <point x="240.13333333333333" y="665.1"/>
      <point x="308.3666666666667" y="665.1" type="curve" smooth="yes"/>
      <point x="333.43333333333334" y="665.1"/>
      <point x="341.7" y="637.9333333333333"/>
      <point x="341.7" y="594.7666666666667" type="curve" smooth="yes"/>
      <point x="341.7" y="518.5666666666666"/>
      <point x="301.33333333333337" y="336.5333333333333"/>
    </contour>
    <contour>
      <point x="618.0" y="-10.633333333333333" type="curve" smooth="yes"/>
      <point x="781.8333333333334" y="-10.633333333333333"/>
      <point x="855.6333333333333" y="173.03333333333333"/>
      <point x="855.6333333333333" y="293.8333333333333" type="curve" smooth="yes"/>
      <point x="855.6333333333333" y="371.46666666666664"/>
      <point x="812.3" y="434.0"/>
      <point x="713.3666666666667" y="434.0" type="curve" smooth="yes"/>
      <point x="551.1666666666666" y="434.0"/>
      <point x="479.3666666666667" y="255.96666666666667"/>
      <point x="479.3666666666667" y="124.26666666666667" type="curve"/>
      <point x="479.3666666666667" y="39.266666666666666"/>
      <point x="533.6" y="-10.633333333333333"/>
    </contour>
    <contour>
      <point x="634.0" y="45.9" type="curve" smooth="yes"/>
      <point x="610.9333333333333" y="45.9"/>
      <point x="601.0333333333334" y="75.43333333333334"/>
      <point x="601.0333333333334" y="118.7" type="curve" smooth="yes"/>
      <point x="601.0333333333334" y="192.16666666666666"/>
      <point x="641.4" y="374.4666666666667"/>
      <point x="709.6333333333333" y="374.4666666666667" type="curve" smooth="yes"/>
      <point x="734.7" y="374.4666666666667"/>
      <point x="742.9666666666667" y="346.93333333333334"/>
      <point x="742.9666666666667" y="304.40000000000003" type="curve" smooth="yes"/>
      <point x="742.9666666666667" y="228.56666666666666"/>
      <point x="702.6" y="45.9"/>
    </contour>
  </outline>
</glyph>
<glyph name="quotesingle" format="2">
  <advance width="303.3"/>
  <unicode hex="0027"/>
  <outline>
    <contour>
      <point x="146.7" y="415.5" type="line"/>
      <point x="223.3" y="415.5" type="line"/>
      <point x="341.3666666666666" y="714.0" type="line"/>
      <point x="160.0" y="714.0" type="line"/>
    </contour>
  </outline>
</glyph>
<glyph name="parenleft" format="2">
  <advance width="413.23333333333335"/>
  <unicode hex="0028"/>
  <outline>
    <contour>
      <point x="287.8333333333333" y="-145.53333333333333" type="curve"/>
      <point x="303.2" y="-71.1" type="line"/>
      <point x="247.79999999999998" y="-26.2"/>
      <point x="228.63333333333333" y="54.233333333333334"/>
      <point x="228.63333333333333" y="132.03333333333333" type="curve" smooth="yes"/>
      <point x="228.63333333333333" y="263.6333333333333"/>
      <point x="276.6333333333333" y="590.1666666666666"/>
      <point x="469.8333333333333" y="705.7333333333333" type="curve"/>
      <point x="480.2" y="779.1666666666666" type="line"/>
      <point x="185.5" y="711.4333333333334"/>
      <point x="41.63333333333333" y="430.6666666666667"/>
      <point x="41.63333333333333" y="180.13333333333333" type="curve" smooth="yes"/>
      <point x="41.63333333333333" y="35.43333333333334"/>
      <point x="114.13333333333333" y="-89.63333333333333"/>
    </contour>
  </outline>
</glyph>
<glyph name="parenright" format="2">
  <advance width="413.23333333333335"/>
  <unicode hex="0029"/>
  <outline>
    <contour>
      <point x="-39.9" y="-138.63333333333333" type="line"/>
      <point x="255.79999999999998" y="-71.89999999999999"/>
      <point x="398.66666666666663" y="209.86666666666665"/>
      <point x="398.66666666666663" y="459.4" type="curve" smooth="yes"/>
      <point x="398.66666666666663" y="604.1"/>
      <point x="326.53333333333336" y="729.1666666666666"/>
      <point x="153.46666666666667" y="785.0666666666666" type="curve"/>
      <point x="138.10000000000002" y="710.6333333333333" type="line"/>
      <point x="192.5" y="666.7333333333333"/>
      <point x="211.3" y="585.6666666666666"/>
      <point x="211.3" y="507.8666666666667" type="curve" smooth="yes"/>
      <point x="211.3" y="376.26666666666665"/>
      <point x="164.66666666666666" y="49.36666666666667"/>
      <point x="-29.533333333333335" y="-65.2" type="curve"/>
    </contour>
  </outline>
</glyph>
<glyph name="asterisk" format="2">
  <advance width="589.5"/>
  <unicode hex="002A"/>
  <outline>
    <contour>
      <point x="378.2" y="349.2" type="line"/>
      <point x="374.76666666666665" y="518.4666666666667" type="line"/>
      <point x="484.1333333333333" y="379.56666666666666" type="line"/>
      <point x="557.2" y="478.0" type="line"/>
      <point x="431.8333333333333" y="543.4666666666667" type="line"/>
      <point x="569.2" y="545.5666666666667" type="line"/>
      <point x="545.5" y="666.2666666666667" type="line"/>
      <point x="390.40000000000003" y="588.7333333333333" type="line"/>
      <point x="463.2" y="738.7333333333333" type="line"/>
      <point x="342.90000000000003" y="765.0" type="line"/>
      <point x="342.7" y="595.7333333333333" type="line"/>
      <point x="234.96666666666667" y="739.2666666666667" type="line"/>
      <point x="162.9" y="637.2" type="line"/>
      <point x="289.26666666666665" y="574.3666666666667" type="line"/>
      <point x="148.9" y="569.2666666666667" type="line"/>
      <point x="173.96666666666667" y="450.56666666666666" type="line"/>
      <point x="328.7" y="530.7333333333333" type="line"/>
      <point x="258.90000000000003" y="375.4666666666667" type="line"/>
    </contour>
  </outline>
</glyph>
<glyph name="plus" format="2">
  <advance width="516.2"/>
  <unicode hex="002B"/>
  <outline>
    <contour>
      <point x="231.53333333333333" y="137.93333333333334" type="line"/>
      <point x="310.43333333333334" y="137.93333333333334" type="line"/>
      <point x="310.43333333333334" y="319.1" type="line"/>
      <point x="478.93333333333334" y="319.1" type="line"/>
      <point x="478.93333333333334" y="395.9" type="line"/>
      <point x="310.43333333333334" y="395.9" type="line"/>
      <point x="310.43333333333334" y="577.0666666666667" type="line"/>
      <point x="231.53333333333333" y="577.0666666666667" type="line"/>
      <point x="231.53333333333333" y="395.9" type="line"/>
      <point x="63.66666666666667" y="395.9" type="line"/>
      <point x="63.66666666666667" y="319.1" type="line"/>
      <point x="231.53333333333333" y="319.1" type="line"/>
    </contour>
  </outline>
</glyph>
<glyph name="comma" format="2">
  <advance width="323.46666666666664"/>
  <unicode hex="002C"/>
  <outline>
    <contour>
      <point x="-8.1" y="-154.26666666666668" type="line"/>
      <point x="145.83333333333331" y="-123.63333333333334"/>
      <point x="228.53333333333333" y="-35.266666666666666"/>
      <point x="228.53333333333333" y="73.63333333333333" type="curve" smooth="yes"/>
      <point x="228.53333333333333" y="133.8"/>
      <point x="190.83333333333334" y="167.70000000000002"/>
      <point x="142.5" y="167.70000000000002" type="curve" smooth="yes"/>
      <point x="100.06666666666666" y="167.70000000000002"/>
      <point x="61.53333333333333" y="137.7"/>
      <point x="61.53333333333333" y="91.33333333333333" type="curve" smooth="yes"/>
      <point x="61.53333333333333" y="32.266666666666666"/>
      <point x="106.4" y="33.166666666666664"/>
      <point x="106.4" y="-10.633333333333333" type="curve" smooth="yes"/>
      <point x="106.4" y="-50.36666666666667"/>
      <point x="73.23333333333333" y="-77.73333333333333"/>
      <point x="7.9" y="-94.73333333333332" type="curve"/>
    </contour>
  </outline>
</glyph>
<glyph name="hyphen" format="2">
  <advance width="289.09999999999997"/>
  <unicode hex="002D"/>
  <outline>
    <contour>
      <point x="9.566666666666666" y="211.2" type="line"/>
      <point x="251.96666666666667" y="211.2" type="line"/>
      <point x="279.9666666666667" y="333.8" type="line"/>
      <point x="37.56666666666666" y="333.8" type="line"/>
    </contour>
  </outline>
</glyph>
<glyph name="period" format="2">
  <advance width="323.46666666666664"/>
  <unicode hex="002E"/>
  <outline>
    <contour>
      <point x="127.30000000000001" y="-8.0" type="curve" smooth="yes"/>
      <point x="173.73333333333335" y="-8.0"/>
      <point x="224.9" y="17.0"/>
      <point x="224.9" y="91.26666666666667" type="curve" smooth="yes"/>
      <point x="224.9" y="143.43333333333334"/>
      <point x="187.83333333333331" y="168.70000000000002"/>
      <point x="136.13333333333333" y="168.70000000000002" type="curve" smooth="yes"/>
      <point x="77.06666666666668" y="168.70000000000002"/>
      <point x="38.53333333333333" y="128.7"/>
      <point x="38.53333333333333" y="69.06666666666666" type="curve" smooth="yes"/>
      <point x="38.53333333333333" y="16.266666666666666"/>
      <point x="74.96666666666667" y="-8.0"/>
    </contour>
  </outline>
</glyph>
<glyph name="zero" format="2">
  <advance width="545.5333333333334"/>
  <unicode hex="0030"/>
  <outline>
    <contour>
      <point x="245.73333333333335" y="-11.0" type="curve" smooth="yes"/>
      <point x="467.0" y="-11.0"/>
      <point x="566.8000000000001" y="302.43333333333334"/>
      <point x="566.8000000000001" y="501.8666666666666" type="curve" smooth="yes"/>
      <point x="566.8000000000001" y="656.4666666666667"/>
      <point x="480.8666666666667" y="725.0"/>
      <point x="369.6666666666667" y="725.0" type="curve" smooth="yes"/>
      <point x="147.76666666666668" y="725.0"/>
      <point x="44.333333333333336" y="430.3"/>
      <point x="44.333333333333336" y="224.76666666666668" type="curve" smooth="yes"/>
      <point x="44.333333333333336" y="71.16666666666666"/>
      <point x="125.0" y="-11.0"/>
    </contour>
    <contour>
      <point x="250.46666666666667" y="65.16666666666667" type="curve" smooth="yes"/>
      <point x="220.5" y="65.16666666666667"/>
      <point x="200.43333333333334" y="101.7"/>
      <point x="200.43333333333334" y="172.5" type="curve" smooth="yes"/>
      <point x="200.43333333333334" y="338.5"/>
      <point x="279.9" y="649.8333333333334"/>
      <point x="366.9333333333333" y="649.8333333333334" type="curve" smooth="yes"/>
      <point x="399.9" y="649.8333333333334"/>
      <point x="418.3333333333333" y="613.3"/>
      <point x="418.3333333333333" y="544.5" type="curve" smooth="yes"/>
      <point x="418.3333333333333" y="382.5"/>
      <point x="343.8666666666667" y="65.16666666666667"/>
    </contour>
  </outline>
</glyph>
<glyph name="one" format="2">
  <advance width="545.5333333333334"/>
  <unicode hex="0031"/>
  <outline>
    <contour>
      <point x="47.1" y="0.0" type="line"/>
      <point x="462.2333333333333" y="0.0" type="line"/>
      <point x="475.2333333333333" y="59.53333333333333" type="line"/>
      <point x="432.53333333333336" y="59.53333333333333" type="line" smooth="yes"/>
      <point x="392.8333333333333" y="59.53333333333333"/>
      <point x="361.03333333333336" y="62.53333333333333"/>
      <point x="361.03333333333336" y="87.9" type="curve" smooth="yes"/>
      <point x="361.03333333333336" y="96.9"/>
      <point x="366.3" y="118.80000000000001"/>
      <point x="369.0333333333333" y="130.46666666666667" type="curve" smooth="yes"/>
      <point x="494.03333333333336" y="718.0" type="line"/>
      <point x="354.3666666666667" y="718.0" type="line"/>
      <point x="278.1333333333333" y="666.0" type="line" smooth="yes"/>
      <point x="206.53333333333333" y="617.0"/>
      <point x="156.83333333333334" y="601.0"/>
      <point x="113.76666666666667" y="589.0" type="curve"/>
      <point x="113.03333333333333" y="532.2"/>
      <point x="137.2" y="502.93333333333334"/>
      <point x="163.36666666666667" y="502.93333333333334" type="curve" smooth="yes"/>
      <point x="203.43333333333334" y="502.93333333333334"/>
      <point x="240.70000000000002" y="540.8333333333334"/>
      <point x="297.7666666666667" y="606.9333333333334" type="curve"/>
      <point x="301.4" y="606.9333333333334" type="line"/>
      <point x="287.93333333333334" y="564.8333333333333"/>
      <point x="278.93333333333334" y="523.7333333333333"/>
      <point x="269.93333333333334" y="481.26666666666665" type="curve" smooth="yes"/>
      <point x="194.3" y="120.26666666666668" type="line" smooth="yes"/>
      <point x="185.93333333333334" y="81.43333333333334"/>
      <point x="164.76666666666665" y="59.53333333333333"/>
      <point x="120.06666666666666" y="59.53333333333333" type="curve" smooth="yes"/>
      <point x="60.1" y="59.53333333333333" type="line"/>
    </contour>
  </outline>
</glyph>
<glyph name="two" format="2">
  <advance width="545.5333333333334"/>
  <unicode hex="0032"/>
  <outline>
    <contour>
      <point x="-11.9" y="0.0" type="line"/>
      <point x="459.2" y="0.0" type="line"/>
      <point x="515.1999999999999" y="233.5" type="line"/>
      <point x="447.2333333333333" y="233.5" type="line"/>
      <point x="440.8666666666667" y="213.86666666666667" type="line" smooth="yes"/>
      <point x="426.5" y="169.6"/>
      <point x="401.06666666666666" y="127.96666666666667"/>
      <point x="338.1" y="127.96666666666667" type="curve" smooth="yes"/>
      <point x="120.86666666666667" y="127.96666666666667" type="line"/>
      <point x="275.9666666666667" y="249.26666666666665" type="line" smooth="yes"/>
      <point x="506.2666666666667" y="419.26666666666665"/>
      <point x="570.0333333333333" y="485.4666666666667"/>
      <point x="570.0333333333333" y="590.7333333333333" type="curve" smooth="yes"/>
      <point x="570.0333333333333" y="673.3666666666667"/>
      <point x="491.9" y="724.0"/>
      <point x="357.1666666666667" y="724.0" type="curve" smooth="yes"/>
      <point x="205.96666666666664" y="724.0"/>
      <point x="124.73333333333332" y="657.9"/>
      <point x="124.73333333333332" y="573.0" type="curve" smooth="yes"/>
      <point x="124.73333333333332" y="506.93333333333334"/>
      <point x="183.70000000000002" y="475.0333333333333"/>
      <point x="262.93333333333334" y="475.0333333333333" type="curve"/>
      <point x="264.6666666666667" y="579.2"/>
      <point x="296.2" y="654.8333333333334"/>
      <point x="342.8" y="654.8333333333334" type="curve" smooth="yes"/>
      <point x="374.1333333333333" y="654.8333333333334"/>
      <point x="390.93333333333334" y="618.9333333333334"/>
      <point x="390.93333333333334" y="569.1333333333333" type="curve" smooth="yes"/>
      <point x="390.93333333333334" y="485.3"/>
      <point x="361.5" y="418.3"/>
      <point x="228.26666666666665" y="303.90000000000003" type="curve" smooth="yes"/>
      <point x="9.466666666666667" y="116.06666666666668" type="line"/>
    </contour>
  </outline>
</glyph>
<glyph name="three" format="2">
  <advance width="545.5333333333334"/>
  <unicode hex="0033"/>
  <outline>
    <contour>
      <point x="214.63333333333335" y="-10.0" type="curve" smooth="yes"/>
      <point x="349.56666666666666" y="-10.0"/>
      <point x="513.7666666666667" y="48.733333333333334"/>
      <point x="513.7666666666667" y="227.93333333333334" type="curve" smooth="yes"/>
      <point x="513.7666666666667" y="312.1"/>
      <point x="460.53333333333336" y="359.73333333333335"/>
      <point x="375.8666666666667" y="369.7333333333333" type="curve"/>
      <point x="502.53333333333336" y="393.73333333333335"/>
      <point x="566.5999999999999" y="489.8333333333333"/>
      <point x="566.5999999999999" y="582.8333333333334" type="curve" smooth="yes"/>
      <point x="566.5999999999999" y="672.7333333333333"/>
      <point x="484.8333333333333" y="724.0"/>
      <point x="362.0" y="724.0" type="curve" smooth="yes"/>
      <point x="223.43333333333334" y="724.0"/>
      <point x="112.66666666666666" y="652.7333333333333"/>
      <point x="112.66666666666666" y="570.7333333333333" type="curve" smooth="yes"/>
      <point x="112.66666666666666" y="522.4666666666667"/>
      <point x="170.63333333333335" y="507.4666666666667"/>
      <point x="245.86666666666667" y="507.4666666666667" type="curve"/>
      <point x="258.23333333333335" y="586.4666666666667"/>
      <point x="283.5" y="656.4666666666667"/>
      <point x="337.3666666666667" y="656.4666666666667" type="curve" smooth="yes"/>
      <point x="378.6" y="656.4666666666667"/>
      <point x="391.5" y="623.3000000000001"/>
      <point x="391.5" y="578.1333333333333" type="curve" smooth="yes"/>
      <point x="391.5" y="473.1"/>
      <point x="312.53333333333336" y="403.26666666666665"/>
      <point x="201.13333333333333" y="403.26666666666665" type="curve" smooth="yes"/>
      <point x="171.33333333333331" y="403.26666666666665" type="line"/>
      <point x="160.96666666666667" y="334.73333333333335" type="line"/>
      <point x="201.76666666666668" y="334.73333333333335" type="line" smooth="yes"/>
      <point x="289.06666666666666" y="334.73333333333335"/>
      <point x="336.6666666666667" y="295.2"/>
      <point x="336.6666666666667" y="223.20000000000002" type="curve" smooth="yes"/>
      <point x="336.6666666666667" y="122.63333333333333"/>
      <point x="278.6" y="70.8"/>
      <point x="231.63333333333333" y="70.8" type="curve" smooth="yes"/>
      <point x="167.76666666666668" y="70.8"/>
      <point x="134.06666666666666" y="123.53333333333335"/>
      <point x="135.53333333333333" y="212.33333333333334" type="curve"/>
      <point x="50.56666666666667" y="212.33333333333334"/>
      <point x="6.4" y="175.43333333333334"/>
      <point x="6.4" y="119.33333333333333" type="curve" smooth="yes"/>
      <point x="6.4" y="62.7"/>
      <point x="60.0" y="-10.0"/>
    </contour>
  </outline>
</glyph>
<glyph name="four" format="2">
  <advance width="545.5333333333334"/>
  <unicode hex="0034"/>
  <outline>
    <contour>
      <point x="126.16666666666667" y="0.0" type="line"/>
      <point x="471.33333333333337" y="0.0" type="line"/>
      <point x="484.33333333333337" y="59.53333333333333" type="line"/>
      <point x="470.8" y="59.53333333333333" type="line" smooth="yes"/>
      <point x="435.73333333333335" y="59.53333333333333"/>
      <point x="414.93333333333334" y="65.16666666666667"/>
      <point x="414.93333333333334" y="98.06666666666666" type="curve" smooth="yes"/>
      <point x="414.93333333333334" y="104.80000000000001"/>
      <point x="416.93333333333334" y="123.8"/>
      <point x="418.93333333333334" y="132.16666666666669" type="curve" smooth="yes"/>
      <point x="542.9333333333334" y="714.0" type="line"/>
      <point x="373.1" y="714.0" type="line"/>
      <point x="36.53333333333334" y="254.53333333333333" type="line"/>
      <point x="18.533333333333335" y="180.46666666666667" type="line"/>
      <point x="510.6" y="180.46666666666667" type="line"/>
      <point x="525.6" y="252.0" type="line"/>
      <point x="73.6" y="252.0" type="line"/>
      <point x="89.5" y="229.9" type="line"/>
      <point x="236.7" y="431.9" type="line" smooth="yes"/>
      <point x="269.6" y="477.0"/>
      <point x="321.3" y="554.5333333333333"/>
      <point x="353.1" y="610.8333333333334" type="curve"/>
      <point x="334.4666666666667" y="548.8333333333334"/>
      <point x="317.46666666666664" y="469.56666666666666"/>
      <point x="306.46666666666664" y="419.83333333333337" type="curve" smooth="yes"/>
      <point x="244.46666666666667" y="131.53333333333333" type="line" smooth="yes"/>
      <point x="228.83333333333334" y="60.266666666666666"/>
      <point x="185.4" y="59.53333333333333"/>
      <point x="153.96666666666667" y="59.53333333333333" type="curve" smooth="yes"/>
      <point x="138.16666666666666" y="59.53333333333333" type="line"/>
    </contour>
  </outline>
</glyph>
<glyph name="five" format="2">
  <advance width="545.5333333333334"/>
  <unicode hex="0035"/>
  <outline>
    <contour>
      <point x="209.9333333333333" y="-10.0" type="curve" smooth="yes"/>
      <point x="400.93333333333334" y="-10.0"/>
      <point x="510.06666666666666" y="103.83333333333333"/>
      <point x="510.06666666666666" y="252.93333333333334" type="curve" smooth="yes"/>
      <point x="510.06666666666666" y="372.3666666666667"/>
      <point x="422.76666666666665" y="437.9"/>
      <point x="288.0333333333333" y="437.9" type="curve" smooth="yes"/>
      <point x="239.7" y="437.9"/>
      <point x="209.53333333333333" y="429.9"/>
      <point x="185.0" y="421.9" type="curve"/>
      <point x="231.53333333333333" y="588.0333333333333" type="line"/>
      <point x="429.9666666666667" y="588.0333333333333" type="line" smooth="yes"/>
      <point x="466.6666666666667" y="588.0333333333333"/>
      <point x="477.3" y="578.4"/>
      <point x="477.3" y="562.7666666666667" type="curve" smooth="yes"/>
      <point x="477.3" y="555.1333333333334"/>
      <point x="475.56666666666666" y="530.7666666666668"/>
      <point x="473.56666666666666" y="513.4" type="curve"/>
      <point x="544.5333333333333" y="513.4" type="line"/>
      <point x="576.6333333333333" y="714.0" type="line"/>
      <point x="190.93333333333334" y="714.0" type="line"/>
      <point x="94.76666666666667" y="372.5333333333333" type="line"/>
      <point x="139.83333333333334" y="343.73333333333335" type="line"/>
      <point x="162.0" y="354.73333333333335"/>
      <point x="189.53333333333333" y="365.73333333333335"/>
      <point x="231.86666666666667" y="365.73333333333335" type="curve" smooth="yes"/>
      <point x="292.73333333333335" y="365.73333333333335"/>
      <point x="336.9666666666667" y="326.1"/>
      <point x="336.9666666666667" y="245.5666666666667" type="curve" smooth="yes"/>
      <point x="336.9666666666667" y="129.1"/>
      <point x="291.9" y="68.8"/>
      <point x="220.29999999999998" y="68.8" type="curve" smooth="yes"/>
      <point x="137.16666666666669" y="68.8"/>
      <point x="120.73333333333333" y="146.96666666666667"/>
      <point x="120.46666666666667" y="208.23333333333332" type="curve"/>
      <point x="51.13333333333333" y="208.23333333333332"/>
      <point x="19.6" y="165.33333333333334"/>
      <point x="19.6" y="115.96666666666667" type="curve" smooth="yes"/>
      <point x="19.6" y="47.166666666666664"/>
      <point x="74.56666666666666" y="-10.0"/>
    </contour>
  </outline>
</glyph>
<glyph name="six" format="2">
  <advance width="545.5333333333334"/>
  <unicode hex="0036"/>
  <outline>
    <contour>
      <point x="258.73333333333335" y="-10.0" type="curve" smooth="yes"/>
      <point x="442.4666666666667" y="-10.0"/>
      <point x="531.4333333333334" y="124.56666666666668"/>
      <point x="531.4333333333334" y="265.6666666666667" type="curve" smooth="yes"/>
      <point x="531.4333333333334" y="360.46666666666664"/>
      <point x="482.8333333333333" y="440.26666666666665"/>
      <point x="376.3666666666667" y="440.26666666666665" type="curve" smooth="yes"/>
      <point x="309.76666666666665" y="440.26666666666665"/>
      <point x="268.7" y="415.9"/>
      <point x="240.53333333333333" y="391.26666666666665" type="curve"/>
      <point x="276.1666666666667" y="573.0"/>
      <point x="330.23333333333335" y="658.4666666666667"/>
      <point x="399.3666666666667" y="658.4666666666667" type="curve" smooth="yes"/>
      <point x="442.7" y="658.4666666666667"/>
      <point x="447.23333333333335" y="590.5666666666667"/>
      <point x="446.1333333333334" y="522.3000000000001" type="curve"/>
      <point x="537.7333333333333" y="522.3000000000001"/>
      <point x="592.5333333333334" y="557.3000000000001"/>
      <point x="592.5333333333334" y="614.3" type="curve" smooth="yes"/>
      <point x="592.5333333333334" y="673.4666666666667"/>
      <point x="535.9333333333334" y="724.0"/>
      <point x="429.0" y="724.0" type="curve" smooth="yes"/>
      <point x="196.46666666666667" y="724.0"/>
      <point x="52.6" y="475.1333333333333"/>
      <point x="52.6" y="226.5" type="curve" smooth="yes"/>
      <point x="52.6" y="68.16666666666666"/>
      <point x="144.53333333333333" y="-10.0"/>
    </contour>
    <contour>
      <point x="278.73333333333335" y="60.53333333333333" type="curve" smooth="yes"/>
      <point x="239.13333333333333" y="60.53333333333333"/>
      <point x="214.0666666666667" y="101.69999999999999"/>
      <point x="214.0666666666667" y="195.20000000000002" type="curve" smooth="yes"/>
      <point x="214.0666666666667" y="236.53333333333333"/>
      <point x="218.16666666666666" y="275.90000000000003"/>
      <point x="226.53333333333333" y="325.0" type="curve"/>
      <point x="246.7" y="348.3666666666667"/>
      <point x="280.1333333333333" y="373.73333333333335"/>
      <point x="313.2" y="373.73333333333335" type="curve" smooth="yes"/>
      <point x="350.8" y="373.73333333333335"/>
      <point x="368.96666666666664" y="332.93333333333334"/>
      <point x="368.96666666666664" y="259.9666666666667" type="curve" smooth="yes"/>
      <point x="368.96666666666664" y="148.66666666666666"/>
      <point x="332.06666666666666" y="60.53333333333333"/>
    </contour>
  </outline>
</glyph>
<glyph name="seven" format="2">
  <advance width="545.5333333333334"/>
  <unicode hex="0037"/>
  <outline>
    <contour>
      <point x="106.36666666666667" y="0.0" type="line"/>
      <point x="196.5" y="0.0" type="line"/>
      <point x="599.1666666666666" y="637.0333333333334" type="line"/>
      <point x="613.5333333333333" y="714.0" type="line"/>
      <point x="153.43333333333334" y="714.0" type="line"/>
      <point x="104.06666666666668" y="487.03333333333336" type="line"/>
      <point x="175.03333333333333" y="487.03333333333336" type="line"/>
      <point x="189.03333333333333" y="537.0333333333333" type="line" smooth="yes"/>
      <point x="198.03333333333333" y="570.0333333333333"/>
      <point x="220.56666666666666" y="588.0333333333334"/>
      <point x="254.0" y="588.0333333333334" type="curve" smooth="yes"/>
      <point x="491.40000000000003" y="588.0333333333334" type="line"/>
    </contour>
  </outline>
</glyph>
<glyph name="eight" format="2">
  <advance width="545.5333333333334"/>
  <unicode hex="0038"/>
  <outline>
    <contour>
      <point x="262.1666666666667" y="-10.0" type="curve" smooth="yes"/>
      <point x="417.83333333333337" y="-10.0"/>
      <point x="523.6" y="57.46666666666667"/>
      <point x="523.6" y="204.93333333333334" type="curve" smooth="yes"/>
      <point x="523.6" y="284.4666666666667"/>
      <point x="476.3666666666667" y="340.3666666666667"/>
      <point x="413.6" y="380.0" type="curve"/>
      <point x="506.4666666666667" y="428.3666666666667"/>
      <point x="572.8000000000001" y="478.1"/>
      <point x="572.8000000000001" y="579.8333333333334" type="curve" smooth="yes"/>
      <point x="572.8000000000001" y="662.7333333333333"/>
      <point x="498.6666666666667" y="724.0"/>
      <point x="376.2" y="724.0" type="curve" smooth="yes"/>
      <point x="195.83333333333334" y="724.0"/>
      <point x="127.5" y="633.5333333333333"/>
      <point x="127.5" y="536.9666666666667" type="curve" smooth="yes"/>
      <point x="127.5" y="462.90000000000003"/>
      <point x="163.83333333333334" y="402.6333333333333"/>
      <point x="212.7" y="360.3666666666667" type="curve"/>
      <point x="109.56666666666668" y="317.0"/>
      <point x="26.966666666666665" y="273.26666666666665"/>
      <point x="26.966666666666665" y="159.8" type="curve" smooth="yes"/>
      <point x="26.966666666666665" y="61.266666666666666"/>
      <point x="123.26666666666667" y="-10.0"/>
    </contour>
    <contour>
      <point x="264.0" y="53.53333333333333" type="curve" smooth="yes"/>
      <point x="212.5" y="53.53333333333333"/>
      <point x="181.79999999999998" y="91.53333333333333"/>
      <point x="181.79999999999998" y="154.06666666666666" type="curve" smooth="yes"/>
      <point x="181.79999999999998" y="231.63333333333333"/>
      <point x="217.6" y="285.1"/>
      <point x="278.93333333333334" y="315.2" type="curve"/>
      <point x="335.3333333333333" y="276.2"/>
      <point x="366.03333333333336" y="233.93333333333334"/>
      <point x="366.03333333333336" y="174.3" type="curve" smooth="yes"/>
      <point x="366.03333333333336" y="94.36666666666666"/>
      <point x="318.96666666666664" y="53.53333333333333"/>
    </contour>
    <contour>
      <point x="350.0" y="419.5333333333333" type="curve"/>
      <point x="309.7666666666667" y="450.5333333333333"/>
      <point x="287.7" y="494.43333333333334"/>
      <point x="287.7" y="542.0666666666666" type="curve" smooth="yes"/>
      <point x="287.7" y="614.9"/>
      <point x="324.5" y="661.1"/>
      <point x="368.8333333333333" y="661.1" type="curve" smooth="yes"/>
      <point x="406.8" y="661.1"/>
      <point x="427.8666666666667" y="623.2"/>
      <point x="427.8666666666667" y="573.9333333333334" type="curve" smooth="yes"/>
      <point x="427.8666666666667" y="512.8333333333334"/>
      <point x="406.3333333333333" y="458.3666666666667"/>
    </contour>
  </outline>
</glyph>
<glyph name="nine" format="2">
  <advance width="545.5333333333334"/>
  <unicode hex="0039"/>
  <outline>
    <contour>
      <point x="178.3" y="-10.0" type="curve" smooth="yes"/>
      <point x="450.26666666666665" y="-10.0"/>
      <point x="559.7" y="335.16666666666663"/>
      <point x="559.7" y="531.4000000000001" type="curve" smooth="yes"/>
      <point x="559.7" y="654.4666666666666"/>
      <point x="486.3" y="724.0"/>
      <point x="369.4666666666667" y="724.0" type="curve" smooth="yes"/>
      <point x="216.73333333333335" y="724.0"/>
      <point x="85.06666666666668" y="606.1666666666666"/>
      <point x="85.06666666666668" y="437.3333333333333" type="curve" smooth="yes"/>
      <point x="85.06666666666668" y="342.53333333333336"/>
      <point x="140.83333333333331" y="275.0"/>
      <point x="240.93333333333334" y="275.0" type="curve" smooth="yes"/>
      <point x="303.9" y="275.0"/>
      <point x="347.06666666666666" y="308.0"/>
      <point x="378.6" y="343.0" type="curve"/>
      <point x="329.9666666666667" y="160.9"/>
      <point x="279.43333333333334" y="61.166666666666664"/>
      <point x="191.3" y="61.166666666666664" type="curve" smooth="yes"/>
      <point x="137.33333333333334" y="61.166666666666664"/>
      <point x="116.9" y="122.43333333333334"/>
      <point x="116.63333333333334" y="176.70000000000002" type="curve"/>
      <point x="61.56666666666667" y="176.70000000000002"/>
      <point x="29.03333333333333" y="148.33333333333331"/>
      <point x="29.03333333333333" y="99.7" type="curve" smooth="yes"/>
      <point x="29.03333333333333" y="37.266666666666666"/>
      <point x="80.0" y="-10.0"/>
    </contour>
    <contour>
      <point x="301.1333333333333" y="357.43333333333334" type="curve" smooth="yes"/>
      <point x="267.8" y="357.43333333333334"/>
      <point x="248.36666666666665" y="387.70000000000005"/>
      <point x="248.36666666666665" y="446.5" type="curve" smooth="yes"/>
      <point x="248.36666666666665" y="544.3333333333334"/>
      <point x="290.9" y="649.8333333333334"/>
      <point x="347.5" y="649.8333333333334" type="curve" smooth="yes"/>
      <point x="378.8333333333333" y="649.8333333333334"/>
      <point x="400.90000000000003" y="616.9333333333334"/>
      <point x="400.90000000000003" y="539.6" type="curve" smooth="yes"/>
      <point x="400.90000000000003" y="509.2"/>
      <point x="394.53333333333336" y="462.0"/>
      <point x="386.1666666666667" y="430.5333333333333" type="curve"/>
      <point x="368.26666666666665" y="395.16666666666663"/>
      <point x="340.4666666666667" y="357.43333333333334"/>
    </contour>
  </outline>
</glyph>
<glyph name="colon" format="2">
  <advance width="387.53333333333336"/>
  <unicode hex="003A"/>
  <outline>
    <contour>
      <point x="225.20000000000002" y="364.3" type="curve" smooth="yes"/>
      <point x="272.0" y="364.3"/>
      <point x="322.8" y="390.3"/>
      <point x="322.8" y="463.93333333333334" type="curve" smooth="yes"/>
      <point x="322.8" y="516.7333333333333"/>
      <point x="285.7333333333333" y="541.0"/>
      <point x="234.4" y="541.0" type="curve" smooth="yes"/>
      <point x="174.96666666666667" y="541.0"/>
      <point x="136.8" y="501.0"/>
      <point x="136.8" y="441.3666666666667" type="curve" smooth="yes"/>
      <point x="136.8" y="389.56666666666666"/>
      <point x="172.86666666666665" y="364.3"/>
    </contour>
    <contour>
      <point x="139.56666666666666" y="-8.0" type="curve" smooth="yes"/>
      <point x="186.36666666666667" y="-8.0"/>
      <point x="237.16666666666669" y="17.0"/>
      <point x="237.16666666666669" y="91.26666666666667" type="curve" smooth="yes"/>
      <point x="237.16666666666669" y="143.43333333333334"/>
      <point x="200.10000000000002" y="168.70000000000002"/>
      <point x="148.76666666666665" y="168.70000000000002" type="curve" smooth="yes"/>
      <point x="89.33333333333333" y="168.70000000000002"/>
      <point x="51.166666666666664" y="128.7"/>
      <point x="51.166666666666664" y="69.06666666666666" type="curve" smooth="yes"/>
      <point x="51.166666666666664" y="16.266666666666666"/>
      <point x="87.6" y="-8.0"/>
    </contour>
  </outline>
</glyph>
<glyph name="semicolon" format="2">
  <advance width="387.1666666666667"/>
  <unicode hex="003B"/>
  <outline>
    <contour>
      <point x="-14.466666666666667" y="-154.26666666666668" type="line"/>
      <point x="139.46666666666667" y="-123.63333333333334"/>
      <point x="221.8" y="-35.266666666666666"/>
      <point x="221.8" y="73.63333333333333" type="curve" smooth="yes"/>
      <point x="221.8" y="133.8"/>
      <point x="184.46666666666667" y="167.70000000000002"/>
      <point x="136.13333333333333" y="167.70000000000002" type="curve" smooth="yes"/>
      <point x="93.33333333333334" y="167.70000000000002"/>
      <point x="55.166666666666664" y="138.06666666666666"/>
      <point x="55.166666666666664" y="91.33333333333333" type="curve" smooth="yes"/>
      <point x="55.166666666666664" y="32.266666666666666"/>
      <point x="99.03333333333333" y="33.166666666666664"/>
      <point x="99.03333333333333" y="-10.633333333333333" type="curve" smooth="yes"/>
      <point x="99.03333333333333" y="-50.36666666666667"/>
      <point x="65.86666666666667" y="-77.73333333333333"/>
      <point x="1.5333333333333334" y="-94.73333333333332" type="curve"/>
    </contour>
    <contour>
      <point x="225.20000000000002" y="364.3" type="curve" smooth="yes"/>
      <point x="271.6333333333333" y="364.3"/>
      <point x="322.8" y="390.3"/>
      <point x="322.8" y="463.93333333333334" type="curve" smooth="yes"/>
      <point x="322.8" y="516.7333333333333"/>
      <point x="285.3666666666666" y="541.0"/>
      <point x="234.03333333333333" y="541.0" type="curve" smooth="yes"/>
      <point x="174.96666666666667" y="541.0"/>
      <point x="136.43333333333334" y="501.0"/>
      <point x="136.43333333333334" y="441.3666666666667" type="curve" smooth="yes"/>
      <point x="136.43333333333334" y="389.56666666666666"/>
      <point x="172.86666666666665" y="364.3"/>
    </contour>
  </outline>
</glyph>
<glyph name="less" format="2">
  <advance width="516.2"/>
  <unicode hex="003C"/>
  <outline>
    <contour>
      <point x="478.93333333333334" y="94.76666666666667" type="line"/>
      <point x="478.93333333333334" y="180.3" type="line"/>
      <point x="173.33333333333331" y="357.0" type="line"/>
      <point x="478.93333333333334" y="535.7" type="line"/>
      <point x="478.93333333333334" y="621.2333333333333" type="line"/>
      <point x="63.66666666666667" y="379.6333333333333" type="line"/>
      <point x="63.66666666666667" y="335.3666666666667" type="line"/>
    </contour>
  </outline>
</glyph>
<glyph name="equal" format="2">
  <advance width="516.2"/>
  <unicode hex="003D"/>
  <outline>
    <contour>
      <point x="60.66666666666667" y="418.1333333333333" type="line"/>
      <point x="482.56666666666666" y="418.1333333333333" type="line"/>
      <point x="482.56666666666666" y="494.3" type="line"/>
      <point x="60.66666666666667" y="494.3" type="line"/>
    </contour>
    <contour>
      <point x="60.66666666666667" y="219.7" type="line"/>
      <point x="482.56666666666666" y="219.7" type="line"/>
      <point x="482.56666666666666" y="295.8666666666667" type="line"/>
      <point x="60.66666666666667" y="295.8666666666667" type="line"/>
    </contour>
  </outline>
</glyph>
<glyph name="greater" format="2">
  <advance width="516.2"/>
  <unicode hex="003E"/>
  <outline>
    <contour>
      <point x="63.66666666666667" y="94.76666666666667" type="line"/>
      <point x="478.93333333333334" y="335.3666666666667" type="line"/>
      <point x="478.93333333333334" y="379.6333333333333" type="line"/>
      <point x="63.66666666666667" y="621.2333333333333" type="line"/>
      <point x="63.66666666666667" y="535.7" type="line"/>
      <point x="368.90000000000003" y="357.0" type="line"/>
      <point x="63.66666666666667" y="180.3" type="line"/>
    </contour>
  </outline>
</glyph>
<glyph name="question" format="2">
  <advance width="525.0666666666666"/>
  <unicode hex="003F"/>
  <outline>
    <contour>
      <point x="187.29999999999998" y="238.0" type="line"/>
      <point x="265.2333333333333" y="238.0" type="line"/>
      <point x="300.59999999999997" y="317.0" type="line"/>
      <point x="436.5333333333333" y="368.3666666666667"/>
      <point x="538.0333333333333" y="443.1"/>
      <point x="538.0333333333333" y="561.3000000000001" type="curve" smooth="yes"/>
      <point x="538.0333333333333" y="673.7333333333333"/>
      <point x="455.0" y="724.0"/>
      <point x="318.9" y="724.0" type="curve" smooth="yes"/>
      <point x="175.06666666666666" y="724.0"/>
      <point x="80.46666666666665" y="667.9"/>
      <point x="80.46666666666665" y="593.9" type="curve" smooth="yes"/>
      <point x="80.46666666666665" y="536.1"/>
      <point x="130.53333333333333" y="508.2"/>
      <point x="232.3" y="508.2" type="curve"/>
      <point x="239.03333333333333" y="584.2"/>
      <point x="259.3" y="656.4666666666667"/>
      <point x="302.90000000000003" y="656.4666666666667" type="curve" smooth="yes"/>
      <point x="329.6" y="656.4666666666667"/>
      <point x="350.6666666666667" y="621.9333333333334"/>
      <point x="350.6666666666667" y="561.5" type="curve" smooth="yes"/>
      <point x="350.6666666666667" y="446.56666666666666"/>
      <point x="279.7" y="396.3666666666667"/>
      <point x="170.56666666666666" y="353.6333333333333" type="curve"/>
    </contour>
    <contour>
      <point x="200.0666666666667" y="-8.0" type="curve" smooth="yes"/>
      <point x="246.86666666666667" y="-8.0"/>
      <point x="297.66666666666663" y="17.0"/>
      <point x="297.66666666666663" y="91.26666666666667" type="curve" smooth="yes"/>
      <point x="297.66666666666663" y="143.43333333333334"/>
      <point x="260.6" y="168.70000000000002"/>
      <point x="209.26666666666665" y="168.70000000000002" type="curve" smooth="yes"/>
      <point x="149.83333333333334" y="168.70000000000002"/>
      <point x="111.66666666666667" y="128.7"/>
      <point x="111.66666666666667" y="69.06666666666666" type="curve" smooth="yes"/>
      <point x="111.66666666666667" y="16.266666666666666"/>
      <point x="147.73333333333335" y="-8.0"/>
    </contour>
  </outline>
</glyph>
<glyph name="bracketleft" format="2">
  <advance width="426.1333333333333"/>
  <unicode hex="005B"/>
  <outline>
    <contour>
      <point x="29.7" y="-128.0" type="line"/>
      <point x="328.3666666666667" y="-128.0" type="line"/>
      <point x="340.3666666666667" y="-68.46666666666665" type="line"/>
      <point x="300.3" y="-68.46666666666665" type="line" smooth="yes"/>
      <point x="268.2333333333333" y="-68.46666666666665"/>
      <point x="238.8" y="-62.46666666666667"/>
      <point x="238.8" y="-18.666666666666664" type="curve" smooth="yes"/>
      <point x="238.8" y="-9.933333333333334"/>
      <point x="239.16666666666666" y="-4.833333333333333"/>
      <point x="241.16666666666666" y="5.8" type="curve"/>
      <point x="371.8" y="628.4666666666667" type="line"/>
      <point x="384.8" y="691.4666666666667"/>
      <point x="424.23333333333335" y="700.4666666666667"/>
      <point x="463.93333333333334" y="700.4666666666667" type="curve" smooth="yes"/>
      <point x="504.3666666666666" y="700.4666666666667" type="line"/>
      <point x="517.3666666666667" y="760.0" type="line"/>
      <point x="218.70000000000002" y="760.0" type="line"/>
    </contour>
  </outline>
</glyph>
<glyph name="backslash" format="2">
  <advance width="268.56666666666666"/>
  <unicode hex="005C"/>
  <outline>
    <contour>
      <point x="154.53333333333333" y="-121.0" type="line"/>
      <point x="227.76666666666665" y="-121.0" type="line"/>
      <point x="181.9" y="760.0" type="line"/>
      <point x="107.66666666666666" y="760.0" type="line"/>
    </contour>
  </outline>
</glyph>
<glyph name="bracketright" format="2">
  <advance width="426.1333333333333"/>
  <unicode hex="005D"/>
  <outline>
    <contour>
      <point x="-56.53333333333333" y="-128.0" type="line"/>
      <point x="241.13333333333333" y="-128.0" type="line"/>
      <point x="430.1333333333333" y="760.0" type="line"/>
      <point x="131.46666666666667" y="760.0" type="line"/>
      <point x="119.46666666666667" y="700.4666666666667" type="line"/>
      <point x="159.53333333333333" y="700.4666666666667" type="line" smooth="yes"/>
      <point x="191.60000000000002" y="700.4666666666667"/>
      <point x="220.4" y="694.4666666666667"/>
      <point x="220.4" y="650.6666666666667" type="curve" smooth="yes"/>
      <point x="220.4" y="641.9333333333334"/>
      <point x="220.03333333333333" y="636.8333333333334"/>
      <point x="218.03333333333333" y="626.2" type="curve" smooth="yes"/>
      <point x="88.4" y="3.533333333333334" type="line"/>
      <point x="75.4" y="-59.46666666666667"/>
      <point x="37.96666666666667" y="-68.46666666666665"/>
      <point x="-3.0999999999999996" y="-68.46666666666665" type="curve" smooth="yes"/>
      <point x="-43.166666666666664" y="-68.46666666666665" type="line"/>
    </contour>
  </outline>
</glyph>
<glyph name="asciicircum" format="2">
  <advance width="516.2"/>
  <unicode hex="005E"/>
  <outline>
    <contour>
      <point x="42.13333333333333" y="247.06666666666666" type="line"/>
      <point x="122.63333333333333" y="247.06666666666666" type="line"/>
      <point x="269.8" y="594.9333333333334" type="line"/>
      <point x="417.9666666666667" y="247.06666666666666" type="line"/>
      <point x="498.8333333333333" y="247.06666666666666" type="line"/>
      <point x="293.3333333333333" y="714.0" type="line"/>
      <point x="247.26666666666665" y="714.0" type="line"/>
    </contour>
  </outline>
</glyph>
<glyph name="underscore" format="2">
  <advance width="427.8333333333333"/>
  <unicode hex="005F"/>
  <outline>
    <contour>
      <point x="-86.96666666666665" y="-142.0" type="line"/>
      <point x="349.5" y="-142.0" type="line"/>
      <point x="362.5" y="-83.0" type="line"/>
      <point x="-73.96666666666665" y="-83.0" type="line"/>
    </contour>
  </outline>
</glyph>
<glyph name="braceleft" format="2">
  <advance width="422.3"/>
  <unicode hex="007B"/>
  <outline>
    <contour>
      <point x="225.03333333333333" y="-123.36666666666666" type="curve" smooth="yes"/>
      <point x="334.8" y="-123.36666666666666" type="line"/>
      <point x="348.8" y="-63.833333333333336" type="line"/>
      <point x="306.3666666666667" y="-63.833333333333336" type="line" smooth="yes"/>
      <point x="272.03333333333336" y="-63.833333333333336"/>
      <point x="260.76666666666665" y="-47.833333333333336"/>
      <point x="260.76666666666665" y="-19.2" type="curve" smooth="yes"/>
      <point x="260.76666666666665" y="-3.7333333333333334"/>
      <point x="262.1333333333333" y="12.266666666666667"/>
      <point x="266.1333333333333" y="29.266666666666666" type="curve" smooth="yes"/>
      <point x="300.93333333333334" y="187.43333333333334" type="line" smooth="yes"/>
      <point x="303.6666666666667" y="199.73333333333335"/>
      <point x="306.5" y="215.06666666666666"/>
      <point x="306.5" y="227.46666666666667" type="curve" smooth="yes"/>
      <point x="306.5" y="268.73333333333335"/>
      <point x="281.70000000000005" y="296.1"/>
      <point x="225.83333333333331" y="316.0" type="curve"/>
      <point x="229.1" y="325.1666666666667" type="line"/>
      <point x="306.33333333333337" y="345.43333333333334"/>
      <point x="341.40000000000003" y="382.5333333333333"/>
      <point x="353.7666666666667" y="440.0" type="curve" smooth="yes"/>
      <point x="388.56666666666666" y="599.4666666666666" type="line" smooth="yes"/>
      <point x="403.7666666666667" y="669.4666666666667"/>
      <point x="415.4" y="701.4666666666667"/>
      <point x="466.3666666666667" y="701.4666666666667" type="curve" smooth="yes"/>
      <point x="509.8" y="701.4666666666667" type="line"/>
      <point x="522.8000000000001" y="760.0" type="line"/>
      <point x="421.56666666666666" y="760.0" type="line" smooth="yes"/>
      <point x="295.1333333333333" y="760.0"/>
      <point x="224.5" y="723.9333333333333"/>
      <point x="201.76666666666668" y="613.3666666666667" type="curve" smooth="yes"/>
      <point x="166.4" y="441.0" type="line" smooth="yes"/>
      <point x="152.03333333333333" y="370.26666666666665"/>
      <point x="103.06666666666668" y="356.5333333333333"/>
      <point x="41.46666666666667" y="355.5333333333333" type="curve"/>
      <point x="25.466666666666665" y="283.1" type="line"/>
      <point x="77.06666666666668" y="281.1"/>
      <point x="116.76666666666667" y="272.3666666666667"/>
      <point x="116.76666666666667" y="221.46666666666667" type="curve" smooth="yes"/>
      <point x="116.76666666666667" y="214.73333333333332"/>
      <point x="116.39999999999999" y="205.36666666666667"/>
      <point x="114.39999999999999" y="196.26666666666665" type="curve" smooth="yes"/>
      <point x="89.4" y="81.16666666666666" type="line" smooth="yes"/>
      <point x="76.13333333333334" y="18.099999999999998"/>
      <point x="75.4" y="1.9"/>
      <point x="75.4" y="-11.666666666666666" type="curve" smooth="yes"/>
      <point x="75.4" y="-79.83333333333333"/>
      <point x="124.73333333333333" y="-123.36666666666666"/>
    </contour>
  </outline>
</glyph>
<glyph name="braceright" format="2">
  <advance width="422.3"/>
  <unicode hex="007D"/>
  <outline>
    <contour>
      <point x="-55.166666666666664" y="-121.73333333333332" type="line"/>
      <point x="45.06666666666667" y="-121.73333333333332" type="line" smooth="yes"/>
      <point x="171.86666666666665" y="-121.73333333333332"/>
      <point x="241.86666666666667" y="-84.56666666666668"/>
      <point x="265.23333333333335" y="25.266666666666666" type="curve" smooth="yes"/>
      <point x="301.23333333333335" y="196.26666666666665" type="line" smooth="yes"/>
      <point x="316.2333333333333" y="267.3666666666667"/>
      <point x="364.56666666666666" y="280.1"/>
      <point x="426.1666666666667" y="281.4666666666667" type="curve"/>
      <point x="442.1666666666667" y="353.5333333333333" type="line"/>
      <point x="390.56666666666666" y="355.5333333333333"/>
      <point x="350.8666666666667" y="364.9"/>
      <point x="350.8666666666667" y="416.1666666666667" type="curve" smooth="yes"/>
      <point x="350.8666666666667" y="422.9"/>
      <point x="351.23333333333335" y="432.26666666666665"/>
      <point x="353.23333333333335" y="441.0" type="curve" smooth="yes"/>
      <point x="381.53333333333336" y="575.0666666666667" type="line" smooth="yes"/>
      <point x="391.6" y="621.8666666666667"/>
      <point x="391.6" y="638.5666666666667"/>
      <point x="391.6" y="649.9333333333334" type="curve" smooth="yes"/>
      <point x="391.6" y="718.4666666666667"/>
      <point x="342.26666666666665" y="762.0"/>
      <point x="242.6" y="762.0" type="curve" smooth="yes"/>
      <point x="131.83333333333331" y="762.0" type="line"/>
      <point x="117.83333333333333" y="702.4666666666667" type="line"/>
      <point x="161.26666666666665" y="702.4666666666667" type="line" smooth="yes"/>
      <point x="195.6" y="702.4666666666667"/>
      <point x="205.86666666666667" y="686.4666666666667"/>
      <point x="205.86666666666667" y="657.8333333333334" type="curve" smooth="yes"/>
      <point x="205.86666666666667" y="642.3666666666667"/>
      <point x="204.5" y="626.3666666666667"/>
      <point x="200.5" y="609.3666666666667" type="curve" smooth="yes"/>
      <point x="166.06666666666666" y="448.26666666666665" type="line" smooth="yes"/>
      <point x="163.7" y="437.5333333333333"/>
      <point x="161.13333333333333" y="422.2"/>
      <point x="161.13333333333333" y="410.1666666666667" type="curve" smooth="yes"/>
      <point x="161.13333333333333" y="369.5333333333333"/>
      <point x="184.93333333333334" y="340.9"/>
      <point x="241.16666666666666" y="322.0" type="curve"/>
      <point x="238.16666666666666" y="311.3666666666667" type="line"/>
      <point x="160.29999999999998" y="290.1"/>
      <point x="125.86666666666667" y="254.36666666666667"/>
      <point x="113.5" y="197.63333333333333" type="curve" smooth="yes"/>
      <point x="76.5" y="29.266666666666666" type="line" smooth="yes"/>
      <point x="63.5" y="-30.466666666666665"/>
      <point x="52.6" y="-62.833333333333336"/>
      <point x="0.2666666666666667" y="-62.833333333333336" type="curve" smooth="yes"/>
      <point x="-42.166666666666664" y="-62.833333333333336" type="line"/>
    </contour>
  </outline>
</glyph>
<glyph name="asciitilde" format="2">
  <advance width="516.2"/>
  <unicode hex="007E"/>
  <outline>
    <contour>
      <point x="39.03333333333333" y="258.1" type="curve"/>
      <point x="118.36666666666667" y="258.1" type="line"/>
      <point x="118.36666666666666" y="343.3666666666666"/>
      <point x="137.53333333333333" y="374.09999999999997"/>
      <point x="169.43333333333334" y="374.09999999999997" type="curve" smooth="yes"/>
      <point x="193.13333333333335" y="374.09999999999997"/>
      <point x="206.03333333333333" y="359.93333333333334"/>
      <point x="245.46666666666667" y="323.73333333333335" type="curve" smooth="yes"/>
      <point x="301.43333333333334" y="272.5333333333333"/>
      <point x="328.70000000000005" y="258.1"/>
      <point x="376.1666666666667" y="258.1" type="curve" smooth="yes"/>
      <point x="474.4" y="258.1"/>
      <point x="501.40000000000003" y="331.8"/>
      <point x="503.3" y="454.9" type="curve"/>
      <point x="422.7" y="454.9" type="line"/>
      <point x="422.7" y="369.53333333333336"/>
      <point x="407.96666666666664" y="338.9"/>
      <point x="377.06666666666666" y="338.9" type="curve" smooth="yes"/>
      <point x="353.90000000000003" y="338.9"/>
      <point x="337.93333333333334" y="353.9"/>
      <point x="299.3333333333333" y="387.53333333333336" type="curve" smooth="yes"/>
      <point x="238.3" y="440.79999999999995"/>
      <point x="216.36666666666667" y="454.9"/>
      <point x="172.4" y="454.9" type="curve" smooth="yes"/>
      <point x="72.73333333333333" y="454.9"/>
      <point x="39.03333333333333" y="374.23333333333335"/>
    </contour>
  </outline>
</glyph>
<glyph name="twosuperior" format="2">
  <advance width="373.5"/>
  <unicode hex="00B2"/>
  <outline>
    <contour>
      <point x="60.833333333333336" y="386.0" type="line"/>
      <point x="373.2" y="386.0" type="line"/>
      <point x="401.2" y="538.0666666666666" type="line"/>
      <point x="361.7666666666667" y="538.0666666666666" type="line"/>
      <point x="354.1333333333333" y="517.0666666666666" type="line" smooth="yes"/>
      <point x="346.5" y="495.06666666666666"/>
      <point x="332.8666666666667" y="476.06666666666666"/>
      <point x="304.06666666666666" y="476.06666666666666" type="curve" smooth="yes"/>
      <point x="159.96666666666667" y="476.06666666666666" type="line"/>
      <point x="282.0" y="563.8" type="line" smooth="yes"/>
      <point x="391.8666666666667" y="643.2666666666667"/>
      <point x="429.3" y="683.6333333333333"/>
      <point x="429.3" y="738.3666666666667" type="curve" smooth="yes"/>
      <point x="429.3" y="789.3666666666667"/>
      <point x="379.7" y="824.0"/>
      <point x="299.93333333333334" y="824.0" type="curve" smooth="yes"/>
      <point x="207.8" y="824.0"/>
      <point x="150.1" y="783.6333333333333"/>
      <point x="150.1" y="727.3666666666667" type="curve" smooth="yes"/>
      <point x="150.1" y="695.7333333333333"/>
      <point x="180.89999999999998" y="674.4666666666666"/>
      <point x="229.23333333333332" y="674.4666666666666" type="curve"/>
      <point x="234.6" y="728.1"/>
      <point x="254.5" y="775.7333333333333"/>
      <point x="282.93333333333334" y="775.7333333333333" type="curve" smooth="yes"/>
      <point x="306.73333333333335" y="775.7333333333333"/>
      <point x="315.6333333333333" y="754.1"/>
      <point x="315.6333333333333" y="730.4666666666667" type="curve" smooth="yes"/>
      <point x="315.6333333333333" y="680.0"/>
      <point x="291.73333333333335" y="634.0"/>
      <point x="215.4" y="579.0666666666666" type="curve" smooth="yes"/>
      <point x="82.2" y="483.1333333333333" type="line"/>
    </contour>
  </outline>
</glyph>
<glyph name="threesuperior" format="2">
  <advance width="373.5"/>
  <unicode hex="00B3"/>
  <outline>
    <contour>
      <point x="213.83333333333331" y="380.0" type="curve" smooth="yes"/>
      <point x="322.8666666666667" y="380.0"/>
      <point x="406.46666666666664" y="428.73333333333335"/>
      <point x="406.46666666666664" y="519.4666666666667" type="curve" smooth="yes"/>
      <point x="406.46666666666664" y="573.3666666666667"/>
      <point x="369.76666666666665" y="603.0"/>
      <point x="313.5333333333333" y="610.0" type="curve"/>
      <point x="314.5333333333333" y="615.0" type="line"/>
      <point x="383.5" y="630.3666666666667"/>
      <point x="432.56666666666666" y="663.7333333333333"/>
      <point x="432.56666666666666" y="734.4666666666667" type="curve" smooth="yes"/>
      <point x="432.56666666666666" y="783.3666666666667"/>
      <point x="391.23333333333335" y="824.0"/>
      <point x="301.56666666666666" y="824.0" type="curve" smooth="yes"/>
      <point x="207.4333333333333" y="824.0"/>
      <point x="150.73333333333332" y="783.6333333333333"/>
      <point x="150.73333333333332" y="736.6333333333333" type="curve" smooth="yes"/>
      <point x="150.73333333333332" y="705.0"/>
      <point x="184.16666666666669" y="688.7333333333333"/>
      <point x="236.86666666666667" y="688.7333333333333" type="curve"/>
      <point x="241.5" y="734.0"/>
      <point x="255.93333333333334" y="774.6333333333333"/>
      <point x="292.1" y="774.6333333333333" type="curve" smooth="yes"/>
      <point x="311.6333333333334" y="774.6333333333333"/>
      <point x="321.9" y="757.0"/>
      <point x="321.9" y="733.4666666666666" type="curve" smooth="yes"/>
      <point x="321.9" y="668.1"/>
      <point x="278.46666666666664" y="630.0"/>
      <point x="226.4" y="630.0" type="curve" smooth="yes"/>
      <point x="193.96666666666667" y="630.0" type="line"/>
      <point x="185.6" y="579.7333333333333" type="line"/>
      <point x="216.4" y="579.7333333333333" type="line" smooth="yes"/>
      <point x="274.6333333333333" y="579.7333333333333"/>
      <point x="300.43333333333334" y="550.1"/>
      <point x="300.43333333333334" y="515.1" type="curve" smooth="yes"/>
      <point x="300.43333333333334" y="458.6333333333333"/>
      <point x="265.26666666666665" y="435.9"/>
      <point x="223.83333333333331" y="435.9" type="curve" smooth="yes"/>
      <point x="167.23333333333332" y="435.9"/>
      <point x="148.06666666666666" y="484.9"/>
      <point x="148.8" y="521.9" type="curve"/>
      <point x="101.0" y="521.9"/>
      <point x="65.83333333333333" y="499.26666666666665"/>
      <point x="65.83333333333333" y="462.5333333333333" type="curve" smooth="yes"/>
      <point x="65.83333333333333" y="411.2666666666667"/>
      <point x="114.16666666666667" y="380.0"/>
    </contour>
  </outline>
</glyph>
<glyph name="multiply" format="2">
  <advance width="516.2"/>
  <unicode hex="00D7"/>
  <outline>
    <contour>
      <point x="135.86666666666667" y="159.20000000000002" type="line"/>
      <point x="270.43333333333334" y="302.7333333333333" type="line"/>
      <point x="404.90000000000003" y="160.3" type="line"/>
      <point x="460.1666666666667" y="213.0" type="line"/>
      <point x="323.1333333333333" y="358.73333333333335" type="line"/>
      <point x="460.1666666666667" y="504.09999999999997" type="line"/>
      <point x="403.90000000000003" y="557.0666666666666" type="line"/>
      <point x="270.43333333333334" y="415.6333333333334" type="line"/>
      <point x="136.23333333333335" y="557.5333333333333" type="line"/>
      <point x="79.33333333333333" y="505.2" type="line"/>
      <point x="216.46666666666667" y="359.3666666666667" type="line"/>
      <point x="79.33333333333333" y="212.53333333333333" type="line"/>
    </contour>
  </outline>
</glyph>
<glyph name="divide" format="2">
  <advance width="516.2"/>
  <unicode hex="00F7"/>
  <outline>
    <contour>
      <point x="63.66666666666667" y="319.1" type="line"/>
      <point x="478.93333333333334" y="319.1" type="line"/>
      <point x="478.93333333333334" y="395.9" type="line"/>
      <point x="63.66666666666667" y="395.9" type="line"/>
    </contour>
    <contour>
      <point x="271.8" y="97.76666666666667" type="curve" smooth="yes"/>
      <point x="302.9666666666667" y="97.76666666666667"/>
      <point x="327.8666666666667" y="114.39999999999999"/>
      <point x="327.8666666666667" y="161.66666666666666" type="curve" smooth="yes"/>
      <point x="327.8666666666667" y="209.93333333333334"/>
      <point x="302.9666666666667" y="225.56666666666666"/>
      <point x="271.8" y="225.56666666666666" type="curve" smooth="yes"/>
      <point x="238.26666666666668" y="225.56666666666666"/>
      <point x="214.73333333333335" y="209.93333333333334"/>
      <point x="214.73333333333335" y="161.66666666666666" type="curve" smooth="yes"/>
      <point x="214.73333333333335" y="114.39999999999999"/>
      <point x="238.26666666666668" y="97.76666666666667"/>
    </contour>
    <contour>
      <point x="271.8" y="489.43333333333334" type="curve" smooth="yes"/>
      <point x="302.9666666666667" y="489.43333333333334"/>
      <point x="327.8666666666667" y="506.06666666666666"/>
      <point x="327.8666666666667" y="553.3333333333334" type="curve" smooth="yes"/>
      <point x="327.8666666666667" y="601.6"/>
      <point x="302.9666666666667" y="617.2333333333333"/>
      <point x="271.8" y="617.2333333333333" type="curve" smooth="yes"/>
      <point x="238.26666666666668" y="617.2333333333333"/>
      <point x="214.73333333333335" y="601.6"/>
      <point x="214.73333333333335" y="553.3333333333334" type="curve" smooth="yes"/>
      <point x="214.73333333333335" y="506.06666666666666"/>
      <point x="238.26666666666668" y="489.43333333333334"/>
    </contour>
  </outline>
</glyph>
<glyph name="udatta-deva" format="2">
  <unicode hex="0951"/>
  <anchor x="64.63333333333334" y="581.0666666666667" name="_vedic"/>
  <outline>
    <contour>
      <point x="105.3" y="964.8666666666667" type="line"/>
      <point x="186.86666666666665" y="964.8666666666667" type="line"/>
      <point x="231.5" y="1172.5" type="line"/>
      <point x="149.93333333333334" y="1172.5" type="line"/>
    </contour>
  </outline>
</glyph>
<glyph name="anudatta-deva" format="2">
  <unicode hex="0952"/>
  <anchor x="-59.0" y="0.0" name="_bottom"/>
  <outline>
    <contour>
      <point x="-376.9" y="-604.9333333333334" type="line"/>
      <point x="2.0999999999999996" y="-604.9333333333334" type="line"/>
      <point x="23.366666666666667" y="-506.66666666666674" type="line"/>
      <point x="-356.26666666666665" y="-506.66666666666674" type="line"/>
    </contour>
  </outline>
</glyph>
<glyph name="danda-deva" format="2">
  <advance width="345.6333333333333"/>
  <unicode hex="0964"/>
  <outline>
    <contour>
      <point x="11.2" y="0.0" type="line"/>
      <point x="210.79999999999998" y="0.0" type="line"/>
      <point x="334.43333333333334" y="581.0666666666667" type="line"/>
      <point x="134.46666666666667" y="581.0666666666667" type="line"/>
    </contour>
  </outline>
</glyph>
<glyph name="dbldanda-deva" format="2">
  <advance width="649.3666666666667"/>
  <unicode hex="0965"/>
  <outline>
    <contour>
      <point x="314.93333333333334" y="0.0" type="line"/>
      <point x="514.5333333333333" y="0.0" type="line"/>
      <point x="638.1666666666667" y="581.0666666666667" type="line"/>
      <point x="438.2" y="581.0666666666667" type="line"/>
    </contour>
    <contour>
      <point x="11.2" y="0.0" type="line"/>
      <point x="210.79999999999998" y="0.0" type="line"/>
      <point x="334.43333333333334" y="581.0666666666667" type="line"/>
      <point x="134.46666666666667" y="581.0666666666667" type="line"/>
    </contour>
  </outline>
</glyph>
<glyph name="anusvara-tamil" format="2">
  <unicode hex="0B82"/>
  <note>
uni0B82
</note>
  <anchor x="64.63333333333334" y="581.0666666666667" name="_top"/>
  <outline>
    <contour>
      <point x="103.89999999999999" y="626.5333333333333" type="curve" smooth="yes"/>
      <point x="186.70000000000002" y="626.5333333333333"/>
      <point x="253.86666666666667" y="691.7"/>
      <point x="253.86666666666667" y="777.5" type="curve" smooth="yes"/>
      <point x="253.86666666666667" y="863.5666666666667"/>
      <point x="186.70000000000002" y="927.7333333333333"/>
      <point x="103.89999999999999" y="927.7333333333333" type="curve" smooth="yes"/>
      <point x="21.099999999999998" y="927.7333333333333"/>
      <point x="-46.06666666666667" y="863.5666666666667"/>
      <point x="-46.06666666666667" y="777.5" type="curve" smooth="yes"/>
      <point x="-46.06666666666667" y="691.7"/>
      <point x="21.099999999999998" y="626.5333333333333"/>
    </contour>
    <contour>
      <point x="103.89999999999999" y="714.0666666666667" type="curve" smooth="yes"/>
      <point x="71.36666666666667" y="714.0666666666667"/>
      <point x="42.46666666666667" y="741.9666666666666"/>
      <point x="42.46666666666667" y="777.1333333333333" type="curve" smooth="yes"/>
      <point x="42.46666666666667" y="811.6666666666666"/>
      <point x="71.36666666666667" y="839.5666666666666"/>
      <point x="103.89999999999999" y="839.5666666666666" type="curve" smooth="yes"/>
      <point x="136.43333333333334" y="839.5666666666666"/>
      <point x="165.33333333333334" y="811.6666666666666"/>
      <point x="165.33333333333334" y="777.1333333333333" type="curve" smooth="yes"/>
      <point x="165.33333333333334" y="741.9666666666666"/>
      <point x="136.43333333333334" y="714.0666666666667"/>
    </contour>
  </outline>
</glyph>
<glyph name="visarga-tamil" format="2">
  <advance width="867.3"/>
  <unicode hex="0B83"/>
  <note>
uni0B83
</note>
  <outline>
    <contour>
      <point x="165.16666666666666" y="-5.0" type="curve" smooth="yes"/>
      <point x="282.66666666666663" y="-5.0"/>
      <point x="374.43333333333334" y="85.83333333333333"/>
      <point x="374.43333333333334" y="220.06666666666666" type="curve" smooth="yes"/>
      <point x="374.43333333333334" y="323.6666666666667"/>
      <point x="310.8666666666667" y="378.9"/>
      <point x="215.33333333333334" y="378.9" type="curve" smooth="yes"/>
      <point x="93.73333333333333" y="378.9"/>
      <point x="16.233333333333334" y="269.1666666666667"/>
      <point x="16.233333333333334" y="155.43333333333334" type="curve" smooth="yes"/>
      <point x="16.233333333333334" y="65.1"/>
      <point x="68.10000000000001" y="-5.0"/>
    </contour>
    <contour>
      <point x="146.46666666666667" y="77.06666666666666" type="curve" smooth="yes"/>
      <point x="106.43333333333332" y="77.06666666666666"/>
      <point x="88.93333333333334" y="108.93333333333334"/>
      <point x="88.93333333333334" y="161.70000000000002" type="curve" smooth="yes"/>
      <point x="88.93333333333334" y="226.2"/>
      <point x="126.73333333333333" y="295.83333333333337"/>
      <point x="181.06666666666666" y="295.83333333333337" type="curve" smooth="yes"/>
      <point x="221.83333333333331" y="295.83333333333337"/>
      <point x="234.53333333333333" y="266.93333333333334"/>
      <point x="234.53333333333333" y="219.06666666666666" type="curve" smooth="yes"/>
      <point x="234.53333333333333" y="143.16666666666669"/>
      <point x="197.46666666666667" y="77.06666666666666"/>
    </contour>
    <contour>
      <point x="598.6999999999999" y="-5.0" type="curve" smooth="yes"/>
      <point x="716.2" y="-5.0"/>
      <point x="807.9666666666667" y="85.83333333333333"/>
      <point x="807.9666666666667" y="220.06666666666666" type="curve" smooth="yes"/>
      <point x="807.9666666666667" y="323.6666666666667"/>
      <point x="744.4000000000001" y="378.9"/>
      <point x="648.8666666666667" y="378.9" type="curve" smooth="yes"/>
      <point x="527.2666666666667" y="378.9"/>
      <point x="449.76666666666665" y="269.1666666666667"/>
      <point x="449.76666666666665" y="155.43333333333334" type="curve" smooth="yes"/>
      <point x="449.76666666666665" y="65.1"/>
      <point x="501.6333333333333" y="-5.0"/>
    </contour>
    <contour>
      <point x="580.0" y="77.06666666666666" type="curve" smooth="yes"/>
      <point x="539.9666666666667" y="77.06666666666666"/>
      <point x="522.4666666666666" y="108.93333333333334"/>
      <point x="522.4666666666666" y="161.70000000000002" type="curve" smooth="yes"/>
      <point x="522.4666666666666" y="226.2"/>
      <point x="560.2666666666667" y="295.83333333333337"/>
      <point x="614.6" y="295.83333333333337" type="curve" smooth="yes"/>
      <point x="655.3666666666667" y="295.83333333333337"/>
      <point x="668.0666666666666" y="266.93333333333334"/>
      <point x="668.0666666666666" y="219.06666666666666" type="curve" smooth="yes"/>
      <point x="668.0666666666666" y="143.16666666666669"/>
      <point x="631.0" y="77.06666666666666"/>
    </contour>
    <contour>
      <point x="472.83333333333337" y="439.6333333333333" type="curve" smooth="yes"/>
      <point x="590.3333333333334" y="439.6333333333333"/>
      <point x="682.1" y="530.1"/>
      <point x="682.1" y="664.3333333333334" type="curve" smooth="yes"/>
      <point x="682.1" y="768.3"/>
      <point x="618.5333333333334" y="823.5333333333333"/>
      <point x="523.0" y="823.5333333333333" type="curve" smooth="yes"/>
      <point x="401.40000000000003" y="823.5333333333333"/>
      <point x="323.9" y="713.8"/>
      <point x="323.9" y="600.0666666666666" type="curve" smooth="yes"/>
      <point x="323.9" y="509.7333333333333"/>
      <point x="375.76666666666665" y="439.6333333333333"/>
    </contour>
    <contour>
      <point x="454.1333333333333" y="521.7" type="curve" smooth="yes"/>
      <point x="414.1" y="521.7"/>
      <point x="396.6" y="553.5666666666667"/>
      <point x="396.6" y="606.3333333333334" type="curve" smooth="yes"/>
      <point x="396.6" y="670.8333333333333"/>
      <point x="434.40000000000003" y="740.4666666666666"/>
      <point x="488.73333333333335" y="740.4666666666666" type="curve" smooth="yes"/>
      <point x="529.5" y="740.4666666666666"/>
      <point x="542.2" y="711.5666666666666"/>
      <point x="542.2" y="663.7" type="curve" smooth="yes"/>
      <point x="542.2" y="587.8"/>
      <point x="505.1333333333333" y="521.7"/>
    </contour>
  </outline>
</glyph>
<glyph name="a-tamil" format="2">
  <advance width="1352.2666666666667"/>
  <unicode hex="0B85"/>
  <note>
uni0B85
</note>
  <anchor x="579.8666666666667" y="0.0" name="bottom"/>
  <anchor x="348.1" y="-178.16666666666666" name="nukta"/>
  <anchor x="701.8000000000001" y="581.0666666666667" name="top"/>
  <anchor x="701.8000000000001" y="581.0666666666667" name="vedic"/>
  <outline>
    <contour>
      <point x="972.4666666666666" y="-249.5" type="line"/>
      <point x="1170.8" y="-249.5" type="line"/>
      <point x="1347.7666666666667" y="581.0666666666667" type="line"/>
      <point x="1149.0666666666666" y="581.0666666666667" type="line"/>
      <point x="1057.5333333333333" y="151.3" type="line"/>
      <point x="85.3" y="151.3" type="line" smooth="yes"/>
      <point x="18.966666666666665" y="151.3"/>
      <point x="-26.633333333333333" y="113.43333333333334"/>
      <point x="-26.633333333333333" y="43.03333333333333" type="curve" smooth="yes"/>
      <point x="-26.633333333333333" y="-85.63333333333334"/>
      <point x="157.26666666666668" y="-178.16666666666666"/>
      <point x="371.5333333333333" y="-178.16666666666666" type="curve" smooth="yes"/>
      <point x="692.5666666666666" y="-178.16666666666666"/>
      <point x="971.1" y="-26.6"/>
      <point x="971.1" y="282.6333333333334" type="curve" smooth="yes"/>
      <point x="971.1" y="478.33333333333337"/>
      <point x="826.2333333333333" y="586.0666666666667"/>
      <point x="634.8333333333334" y="586.0666666666667" type="curve" smooth="yes"/>
      <point x="467.93333333333334" y="586.0666666666667"/>
      <point x="343.8" y="491.33333333333337"/>
      <point x="343.8" y="354.3333333333333" type="curve" smooth="yes"/>
      <point x="343.8" y="271.8"/>
      <point x="406.1333333333333" y="208.46666666666667"/>
      <point x="500.23333333333335" y="208.46666666666667" type="curve" smooth="yes"/>
      <point x="610.8333333333334" y="208.46666666666667"/>
      <point x="692.3000000000001" y="274.5"/>
      <point x="692.3000000000001" y="391.90000000000003" type="curve" smooth="yes"/>
      <point x="692.3000000000001" y="462.4"/>
      <point x="644.1" y="515.6"/>
      <point x="589.1666666666667" y="548.1333333333333" type="curve"/>
      <point x="525.5333333333334" y="534.7" type="line"/>
      <point x="567.6666666666667" y="503.0"/>
      <point x="589.1" y="456.3666666666667"/>
      <point x="589.1" y="410.56666666666666" type="curve" smooth="yes"/>
      <point x="589.1" y="348.3"/>
      <point x="553.7" y="298.53333333333336"/>
      <point x="495.33333333333337" y="298.53333333333336" type="curve" smooth="yes"/>
      <point x="457.8333333333333" y="298.53333333333336"/>
      <point x="430.20000000000005" y="323.9666666666667"/>
      <point x="430.20000000000005" y="368.7" type="curve" smooth="yes"/>
      <point x="430.20000000000005" y="453.2333333333333"/>
      <point x="503.1666666666667" y="512.5333333333333"/>
      <point x="606.1999999999999" y="512.5333333333333" type="curve" smooth="yes"/>
      <point x="710.8000000000001" y="512.5333333333333"/>
      <point x="791.1333333333333" y="445.8666666666667"/>
      <point x="791.1333333333333" y="313.96666666666664" type="curve" smooth="yes"/>
      <point x="791.1333333333333" y="44.666666666666664"/>
      <point x="623.1666666666666" y="-105.0"/>
      <point x="356.26666666666665" y="-105.0" type="curve" smooth="yes"/>
      <point x="198.86666666666667" y="-105.0"/>
      <point x="59.6" y="-34.36666666666667"/>
      <point x="59.6" y="37.96666666666667" type="curve" smooth="yes"/>
      <point x="59.6" y="65.23333333333333"/>
      <point x="71.5" y="77.23333333333333"/>
      <point x="99.2" y="77.23333333333333" type="curve" smooth="yes"/>
      <point x="1041.9" y="77.23333333333333" type="line"/>
    </contour>
  </outline>
</glyph>
<glyph name="aa-tamil" format="2">
  <advance width="1620.7666666666667"/>
  <unicode hex="0B86"/>
  <note>
uni0B86
</note>
  <anchor x="730.9" y="0.0" name="bottom"/>
  <anchor x="340.76666666666665" y="-178.16666666666666" name="nukta"/>
  <anchor x="857.8666666666667" y="581.0666666666667" name="top"/>
  <anchor x="857.6" y="581.0666666666667" name="vedic"/>
  <outline>
    <contour>
      <point x="928.4" y="-460.83333333333337" type="curve" smooth="yes"/>
      <point x="1233.1" y="-460.83333333333337"/>
      <point x="1532.7333333333333" y="-308.93333333333334"/>
      <point x="1532.7333333333333" y="-38.8" type="curve" smooth="yes"/>
      <point x="1532.7333333333333" y="64.03333333333333"/>
      <point x="1467.8" y="117.46666666666667"/>
      <point x="1384.5" y="117.46666666666667" type="curve" smooth="yes"/>
      <point x="1284.3333333333333" y="117.46666666666667"/>
      <point x="1206.8333333333333" y="41.800000000000004"/>
      <point x="1161.7666666666667" y="-107.03333333333335" type="curve"/>
      <point x="1197.1666666666665" y="-114.03333333333335" type="line"/>
      <point x="1209.6999999999998" y="-48.9"/>
      <point x="1240.0333333333333" y="-20.033333333333335"/>
      <point x="1277.1" y="-20.033333333333335" type="curve" smooth="yes"/>
      <point x="1309.9666666666667" y="-20.033333333333335"/>
      <point x="1330.7666666666669" y="-42.0"/>
      <point x="1330.7666666666669" y="-81.86666666666666" type="curve" smooth="yes"/>
      <point x="1330.7666666666669" y="-267.23333333333335"/>
      <point x="1132.8666666666666" y="-386.23333333333335"/>
      <point x="930.5" y="-386.23333333333335" type="curve" smooth="yes"/>
      <point x="830.6666666666667" y="-386.23333333333335"/>
      <point x="748.5" y="-360.8666666666667"/>
      <point x="748.5" y="-295.8666666666667" type="curve" smooth="yes"/>
      <point x="748.5" y="-247.16666666666669"/>
      <point x="795.6666666666667" y="-222.1"/>
      <point x="861.0666666666667" y="-207.46666666666667" type="curve"/>
      <point x="848.3333333333334" y="-139.4" type="line"/>
      <point x="736.2333333333333" y="-166.93333333333334"/>
      <point x="668.0" y="-214.0"/>
      <point x="668.0" y="-303.8666666666667" type="curve" smooth="yes"/>
      <point x="668.0" y="-402.1333333333333"/>
      <point x="772.0666666666666" y="-460.83333333333337"/>
    </contour>
    <component base="a-tamil"/>
  </outline>
</glyph>
<glyph name="i-tamil" format="2">
  <advance width="1046.4"/>
  <unicode hex="0B87"/>
  <note>
uni0B87
</note>
  <anchor x="436.8333333333333" y="0.0" name="bottom"/>
  <anchor x="371.66666666666663" y="-301.76666666666665" name="nukta"/>
  <anchor x="594.3666666666667" y="864.3666666666667" name="top"/>
  <anchor x="543.7666666666667" y="581.0666666666667" name="vedic"/>
  <outline>
    <contour>
      <point x="116.2" y="-334.53333333333336" type="curve" smooth="yes"/>
      <point x="465.1" y="-334.53333333333336"/>
      <point x="833.9333333333333" y="-22.433333333333334"/>
      <point x="833.9333333333333" y="311.73333333333335" type="curve" smooth="yes"/>
      <point x="833.9333333333333" y="489.46666666666664"/>
      <point x="723.3000000000001" y="586.0666666666667"/>
      <point x="537.2" y="586.0666666666667" type="curve" smooth="yes"/>
      <point x="388.83333333333337" y="586.0666666666667"/>
      <point x="260.8" y="489.0"/>
      <point x="260.8" y="354.59999999999997" type="curve" smooth="yes"/>
      <point x="260.8" y="271.7"/>
      <point x="319.03333333333336" y="208.46666666666667"/>
      <point x="411.1333333333333" y="208.46666666666667" type="curve" smooth="yes"/>
      <point x="529.4333333333334" y="208.46666666666667"/>
      <point x="609.0" y="278.23333333333335"/>
      <point x="609.0" y="392.73333333333335" type="curve" smooth="yes"/>
      <point x="609.0" y="463.6"/>
      <point x="565.3333333333333" y="518.0666666666666"/>
      <point x="504.4666666666667" y="548.8666666666667" type="curve"/>
      <point x="442.5333333333333" y="532.6999999999999" type="line"/>
      <point x="482.56666666666666" y="503.0"/>
      <point x="504.5333333333333" y="453.46666666666664"/>
      <point x="504.5333333333333" y="408.29999999999995" type="curve" smooth="yes"/>
      <point x="504.5333333333333" y="344.76666666666665"/>
      <point x="470.3" y="298.5333333333333"/>
      <point x="408.76666666666665" y="298.5333333333333" type="curve" smooth="yes"/>
      <point x="373.06666666666666" y="298.5333333333333"/>
      <point x="347.2" y="323.8"/>
      <point x="347.2" y="366.8666666666666" type="curve" smooth="yes"/>
      <point x="347.2" y="441.0"/>
      <point x="407.6" y="512.5333333333333"/>
      <point x="518.8333333333334" y="512.5333333333333" type="curve" smooth="yes"/>
      <point x="616.2" y="512.5333333333333"/>
      <point x="661.6" y="457.8333333333333"/>
      <point x="661.6" y="350.1" type="curve" smooth="yes"/>
      <point x="661.6" y="29.066666666666663"/>
      <point x="428.0" y="-253.93333333333334"/>
      <point x="127.53333333333335" y="-253.93333333333334" type="curve" smooth="yes"/>
      <point x="58.233333333333334" y="-253.93333333333334"/>
      <point x="22.2" y="-219.46666666666667"/>
      <point x="22.2" y="-171.76666666666665" type="curve" smooth="yes"/>
      <point x="22.2" y="-26.966666666666665"/>
      <point x="264.66666666666663" y="38.2"/>
      <point x="431.9" y="38.2" type="curve" smooth="yes"/>
      <point x="607.8333333333334" y="38.2"/>
      <point x="810.1333333333333" y="-24.5"/>
      <point x="810.1333333333333" y="-146.56666666666666" type="curve" smooth="yes"/>
      <point x="810.1333333333333" y="-217.5666666666667"/>
      <point x="758.8" y="-253.93333333333334"/>
      <point x="673.8666666666667" y="-253.93333333333334" type="curve" smooth="yes"/>
      <point x="406.9666666666667" y="-253.93333333333334"/>
      <point x="137.2" y="20.96666666666667"/>
      <point x="137.2" y="294.6666666666667" type="curve" smooth="yes"/>
      <point x="137.2" y="556.8666666666667"/>
      <point x="307.7" y="713.2333333333333"/>
      <point x="577.8333333333334" y="713.2333333333333" type="curve" smooth="yes"/>
      <point x="820.9333333333333" y="713.2333333333333"/>
      <point x="987.4" y="572.0333333333333"/>
      <point x="936.9666666666667" y="334.4" type="curve" smooth="yes"/>
      <point x="888.0333333333333" y="102.73333333333333" type="line"/>
      <point x="966.5333333333333" y="102.73333333333333" type="line"/>
      <point x="1018.1" y="344.03333333333336" type="line" smooth="yes"/>
      <point x="1084.5333333333335" y="653.2333333333333"/>
      <point x="913.4" y="864.3666666666667"/>
      <point x="593.7333333333333" y="864.3666666666667" type="curve" smooth="yes"/>
      <point x="252.0" y="864.3666666666667"/>
      <point x="54.333333333333336" y="632.5"/>
      <point x="54.333333333333336" y="314.2" type="curve" smooth="yes"/>
      <point x="54.333333333333336" y="-29.300000000000004"/>
      <point x="397.53333333333336" y="-334.53333333333336"/>
      <point x="662.2333333333333" y="-334.53333333333336" type="curve" smooth="yes"/>
      <point x="799.5" y="-334.53333333333336"/>
      <point x="899.3666666666667" y="-274.8"/>
      <point x="900.0" y="-144.56666666666666" type="curve" smooth="yes"/>
      <point x="900.6333333333333" y="29.533333333333335"/>
      <point x="666.5333333333333" y="104.63333333333334"/>
      <point x="438.43333333333334" y="104.63333333333334" type="curve" smooth="yes"/>
      <point x="207.76666666666665" y="104.63333333333334"/>
      <point x="-67.2" y="16.2"/>
      <point x="-67.2" y="-187.03333333333333" type="curve" smooth="yes"/>
      <point x="-67.2" y="-276.7"/>
      <point x="0.6333333333333333" y="-334.53333333333336"/>
    </contour>
  </outline>
</glyph>
<glyph name="ii-tamil" format="2">
  <advance width="852.4333333333333"/>
  <unicode hex="0B88"/>
  <note>
uni0B88
</note>
  <anchor x="371.03333333333336" y="0.0" name="bottom"/>
  <anchor x="372.0333333333333" y="0.0" name="nukta"/>
  <anchor x="497.5666666666667" y="581.0666666666667" name="top"/>
  <anchor x="497.3" y="581.0666666666667" name="vedic"/>
  <outline>
    <contour>
      <point x="4.5" y="0.0" type="line"/>
      <point x="82.46666666666667" y="0.0" type="line"/>
      <point x="190.46666666666667" y="509.0" type="line"/>
      <point x="437.83333333333337" y="509.0" type="line"/>
      <point x="329.20000000000005" y="0.0" type="line"/>
      <point x="531.1666666666666" y="0.0" type="line"/>
      <point x="639.1666666666666" y="509.0" type="line"/>
      <point x="849.7333333333333" y="509.0" type="line"/>
      <point x="864.3666666666667" y="581.0666666666667" type="line"/>
      <point x="127.76666666666667" y="581.0666666666667" type="line"/>
    </contour>
    <contour>
      <point x="263.9666666666667" y="196.76666666666665" type="curve" smooth="yes"/>
      <point x="308.93333333333334" y="196.76666666666665"/>
      <point x="346.3666666666667" y="232.20000000000002"/>
      <point x="346.3666666666667" y="276.53333333333336" type="curve" smooth="yes"/>
      <point x="346.3666666666667" y="319.8666666666667"/>
      <point x="309.56666666666666" y="355.93333333333334"/>
      <point x="264.6" y="355.93333333333334" type="curve" smooth="yes"/>
      <point x="219.0" y="355.93333333333334"/>
      <point x="182.56666666666666" y="319.8666666666667"/>
      <point x="182.56666666666666" y="276.53333333333336" type="curve" smooth="yes"/>
      <point x="182.56666666666666" y="232.20000000000002"/>
      <point x="218.36666666666667" y="196.76666666666665"/>
    </contour>
    <contour>
      <point x="712.1333333333333" y="196.76666666666665" type="curve" smooth="yes"/>
      <point x="757.0999999999999" y="196.76666666666665"/>
      <point x="794.5333333333333" y="232.20000000000002"/>
      <point x="794.5333333333333" y="276.53333333333336" type="curve" smooth="yes"/>
      <point x="794.5333333333333" y="319.8666666666667"/>
      <point x="757.7333333333332" y="355.93333333333334"/>
      <point x="712.7666666666667" y="355.93333333333334" type="curve" smooth="yes"/>
      <point x="667.1666666666666" y="355.93333333333334"/>
      <point x="630.7333333333333" y="319.8666666666667"/>
      <point x="630.7333333333333" y="276.53333333333336" type="curve" smooth="yes"/>
      <point x="630.7333333333333" y="232.20000000000002"/>
      <point x="666.5333333333333" y="196.76666666666665"/>
    </contour>
  </outline>
</glyph>
<glyph name="u-tamil" format="2">
  <advance width="938.4333333333334"/>
  <unicode hex="0B89"/>
  <note>
uni0B89
</note>
  <anchor x="402.1666666666667" y="0.0" name="bottom"/>
  <anchor x="402.1666666666667" y="0.0" name="nukta"/>
  <anchor x="529.4333333333333" y="581.0666666666667" name="top"/>
  <anchor x="528.8000000000001" y="581.0666666666667" name="vedic"/>
  <outline>
    <contour>
      <point x="86.86666666666666" y="0.0" type="curve" smooth="yes"/>
      <point x="872.6" y="0.0" type="line"/>
      <point x="888.2333333333333" y="72.06666666666666" type="line"/>
      <point x="91.13333333333333" y="72.06666666666666" type="line" smooth="yes"/>
      <point x="74.39999999999999" y="72.06666666666666"/>
      <point x="62.4" y="83.43333333333334"/>
      <point x="62.4" y="99.26666666666667" type="curve" smooth="yes"/>
      <point x="62.4" y="122.16666666666666"/>
      <point x="81.73333333333333" y="130.36666666666667"/>
      <point x="100.83333333333334" y="130.36666666666667" type="curve" smooth="yes"/>
      <point x="363.26666666666665" y="130.36666666666667" type="line" smooth="yes"/>
      <point x="555.8" y="130.36666666666667"/>
      <point x="715.6666666666666" y="199.0666666666667"/>
      <point x="715.6666666666666" y="379.93333333333334" type="curve" smooth="yes"/>
      <point x="715.6666666666666" y="517.6666666666666"/>
      <point x="584.3" y="586.0666666666667"/>
      <point x="415.4666666666667" y="586.0666666666667" type="curve" smooth="yes"/>
      <point x="251.7" y="586.0666666666667"/>
      <point x="118.56666666666666" y="498.6"/>
      <point x="118.56666666666666" y="371.4" type="curve" smooth="yes"/>
      <point x="118.56666666666666" y="291.06666666666666"/>
      <point x="178.53333333333333" y="242.26666666666668"/>
      <point x="261.26666666666665" y="242.26666666666668" type="curve" smooth="yes"/>
      <point x="360.40000000000003" y="242.26666666666668"/>
      <point x="444.3333333333333" y="296.9"/>
      <point x="444.3333333333333" y="399.9666666666667" type="curve" smooth="yes"/>
      <point x="444.3333333333333" y="463.5"/>
      <point x="402.1" y="513.8666666666667"/>
      <point x="348.8" y="545.6" type="curve"/>
      <point x="274.8333333333333" y="539.6" type="line"/>
      <point x="323.7" y="503.23333333333335"/>
      <point x="344.6666666666667" y="462.96666666666664"/>
      <point x="344.6666666666667" y="418.8666666666667" type="curve" smooth="yes"/>
      <point x="344.6666666666667" y="364.59999999999997"/>
      <point x="312.43333333333334" y="329.6666666666667"/>
      <point x="259.0" y="329.6666666666667" type="curve" smooth="yes"/>
      <point x="228.66666666666669" y="329.6666666666667"/>
      <point x="203.96666666666667" y="351.0333333333333"/>
      <point x="203.96666666666667" y="389.2" type="curve" smooth="yes"/>
      <point x="203.96666666666667" y="464.93333333333334"/>
      <point x="286.1" y="514.6333333333333"/>
      <point x="376.03333333333336" y="514.6333333333333" type="curve" smooth="yes"/>
      <point x="473.76666666666665" y="514.6333333333333"/>
      <point x="533.3333333333334" y="472.79999999999995"/>
      <point x="533.3333333333334" y="382.5" type="curve" smooth="yes"/>
      <point x="533.3333333333334" y="274.4666666666667"/>
      <point x="465.6" y="197.8"/>
      <point x="350.3666666666667" y="197.8" type="curve" smooth="yes"/>
      <point x="111.46666666666667" y="197.8" type="line" smooth="yes"/>
      <point x="35.83333333333333" y="197.8"/>
      <point x="-12.733333333333334" y="156.6"/>
      <point x="-12.733333333333334" y="91.26666666666667" type="curve" smooth="yes"/>
      <point x="-12.733333333333334" y="35.266666666666666"/>
      <point x="28.366666666666667" y="0.0"/>
    </contour>
  </outline>
</glyph>
<glyph name="uu-tamil" format="2">
  <advance width="1830.9333333333334"/>
  <unicode hex="0B8A"/>
  <note>
uni0B8A
</note>
  <anchor x="850.9333333333334" y="0.0" name="bottom"/>
  <anchor x="850.9333333333334" y="0.0" name="nukta"/>
  <anchor x="976.9333333333334" y="581.0666666666667" name="top"/>
  <anchor x="977.5666666666667" y="581.0666666666667" name="vedic"/>
  <outline>
    <contour>
      <point x="86.86666666666666" y="0.0" type="curve" smooth="yes"/>
      <point x="1710.4" y="0.0" type="line"/>
      <point x="1726.0333333333335" y="72.06666666666666" type="line"/>
      <point x="91.13333333333333" y="72.06666666666666" type="line" smooth="yes"/>
      <point x="74.39999999999999" y="72.06666666666666"/>
      <point x="62.4" y="83.43333333333334"/>
      <point x="62.4" y="99.26666666666667" type="curve" smooth="yes"/>
      <point x="62.4" y="122.16666666666666"/>
      <point x="81.73333333333333" y="130.36666666666667"/>
      <point x="100.83333333333334" y="130.36666666666667" type="curve" smooth="yes"/>
      <point x="363.26666666666665" y="130.36666666666667" type="line" smooth="yes"/>
      <point x="555.8" y="130.36666666666667"/>
      <point x="715.6666666666666" y="199.0666666666667"/>
      <point x="715.6666666666666" y="379.93333333333334" type="curve" smooth="yes"/>
      <point x="715.6666666666666" y="517.6666666666666"/>
      <point x="584.3" y="586.0666666666667"/>
      <point x="415.4666666666667" y="586.0666666666667" type="curve" smooth="yes"/>
      <point x="251.7" y="586.0666666666667"/>
      <point x="118.56666666666666" y="498.6"/>
      <point x="118.56666666666666" y="371.4" type="curve" smooth="yes"/>
      <point x="118.56666666666666" y="291.06666666666666"/>
      <point x="178.53333333333333" y="242.26666666666668"/>
      <point x="261.26666666666665" y="242.26666666666668" type="curve" smooth="yes"/>
      <point x="360.40000000000003" y="242.26666666666668"/>
      <point x="444.3333333333333" y="296.9"/>
      <point x="444.3333333333333" y="399.9666666666667" type="curve" smooth="yes"/>
      <point x="444.3333333333333" y="463.5"/>
      <point x="402.1" y="513.8666666666667"/>
      <point x="348.8" y="545.6" type="curve"/>
      <point x="274.8333333333333" y="539.6" type="line"/>
      <point x="323.7" y="503.23333333333335"/>
      <point x="344.6666666666667" y="462.96666666666664"/>
      <point x="344.6666666666667" y="418.8666666666667" type="curve" smooth="yes"/>
      <point x="344.6666666666667" y="364.59999999999997"/>
      <point x="312.43333333333334" y="329.6666666666667"/>
      <point x="259.0" y="329.6666666666667" type="curve" smooth="yes"/>
      <point x="228.66666666666669" y="329.6666666666667"/>
      <point x="203.96666666666667" y="351.0333333333333"/>
      <point x="203.96666666666667" y="389.2" type="curve" smooth="yes"/>
      <point x="203.96666666666667" y="464.93333333333334"/>
      <point x="286.1" y="514.6333333333333"/>
      <point x="376.03333333333336" y="514.6333333333333" type="curve" smooth="yes"/>
      <point x="473.76666666666665" y="514.6333333333333"/>
      <point x="533.3333333333334" y="472.79999999999995"/>
      <point x="533.3333333333334" y="382.5" type="curve" smooth="yes"/>
      <point x="533.3333333333334" y="274.4666666666667"/>
      <point x="465.6" y="197.8"/>
      <point x="350.3666666666667" y="197.8" type="curve" smooth="yes"/>
      <point x="111.46666666666667" y="197.8" type="line" smooth="yes"/>
      <point x="35.83333333333333" y="197.8"/>
      <point x="-12.733333333333334" y="156.6"/>
      <point x="-12.733333333333334" y="91.26666666666667" type="curve" smooth="yes"/>
      <point x="-12.733333333333334" y="35.266666666666666"/>
      <point x="28.366666666666667" y="0.0"/>
    </contour>
    <contour>
      <point x="956.6666666666666" y="123.36666666666666" type="curve" smooth="yes"/>
      <point x="1071.0333333333333" y="123.36666666666666"/>
      <point x="1148.4" y="185.29999999999998"/>
      <point x="1148.4" y="292.46666666666664" type="curve" smooth="yes"/>
      <point x="1148.4" y="369.70000000000005"/>
      <point x="1092.6333333333334" y="413.3333333333333"/>
      <point x="1020.8666666666667" y="413.3333333333333" type="curve" smooth="yes"/>
      <point x="920.6333333333333" y="413.3333333333333"/>
      <point x="855.0333333333333" y="334.5"/>
      <point x="826.8" y="232.20000000000002" type="curve"/>
      <point x="861.5" y="209.56666666666666" type="line"/>
      <point x="887.0" y="291.6"/>
      <point x="929.8" y="335.9"/>
      <point x="973.9666666666667" y="335.9" type="curve" smooth="yes"/>
      <point x="1004.9666666666667" y="335.9"/>
      <point x="1025.0333333333333" y="312.06666666666666"/>
      <point x="1025.0333333333333" y="279.6333333333333" type="curve" smooth="yes"/>
      <point x="1025.0333333333333" y="229.29999999999998"/>
      <point x="988.8000000000001" y="197.06666666666666"/>
      <point x="940.5333333333333" y="197.06666666666666" type="curve" smooth="yes"/>
      <point x="890.5" y="197.06666666666666"/>
      <point x="841.3666666666667" y="240.83333333333334"/>
      <point x="841.3666666666667" y="318.2" type="curve" smooth="yes"/>
      <point x="841.3666666666667" y="432.6666666666667"/>
      <point x="929.1333333333333" y="515.0"/>
      <point x="1053.3" y="515.0" type="curve" smooth="yes"/>
      <point x="1168.7" y="515.0"/>
      <point x="1243.1333333333334" y="443.9666666666667"/>
      <point x="1220.6666666666665" y="325.8333333333333" type="curve"/>
      <point x="1294.7" y="325.8333333333333" type="line"/>
      <point x="1317.9" y="488.9"/>
      <point x="1217.4666666666667" y="586.0666666666667"/>
      <point x="1053.1333333333334" y="586.0666666666667" type="curve" smooth="yes"/>
      <point x="887.0" y="586.0666666666667"/>
      <point x="763.6999999999999" y="465.73333333333335"/>
      <point x="763.6999999999999" y="308.09999999999997" type="curve" smooth="yes"/>
      <point x="763.6999999999999" y="199.13333333333335"/>
      <point x="849.0" y="123.36666666666666"/>
    </contour>
    <contour>
      <point x="1177.4666666666667" y="125.0" type="line"/>
      <point x="1345.4333333333334" y="125.0" type="line"/>
      <point x="1429.0666666666666" y="516.9" type="line"/>
      <point x="1554.8000000000002" y="516.9" type="line"/>
      <point x="1471.1666666666667" y="125.0" type="line"/>
      <point x="1640.1333333333334" y="125.0" type="line"/>
      <point x="1723.1333333333334" y="516.9" type="line"/>
      <point x="1817.6000000000001" y="516.9" type="line"/>
      <point x="1831.2333333333333" y="581.0666666666667" type="line"/>
      <point x="1314.9666666666667" y="581.0666666666667" type="line"/>
      <point x="1275.7333333333333" y="383.9" type="line"/>
      <point x="1232.6666666666667" y="383.9" type="line"/>
    </contour>
  </outline>
</glyph>
<glyph name="e-tamil" format="2">
  <advance width="957.9666666666667"/>
  <unicode hex="0B8E"/>
  <note>
uni0B8E
</note>
  <anchor x="438.06666666666666" y="0.0" name="bottom"/>
  <anchor x="438.06666666666666" y="0.0" name="nukta"/>
  <anchor x="565.8666666666667" y="581.0666666666667" name="top"/>
  <anchor x="564.3333333333334" y="581.0666666666667" name="vedic"/>
  <outline>
    <contour>
      <point x="252.03333333333333" y="-5.0" type="curve" smooth="yes"/>
      <point x="373.53333333333336" y="-5.0"/>
      <point x="473.0" y="71.03333333333333"/>
      <point x="473.0" y="202.0" type="curve" smooth="yes"/>
      <point x="473.0" y="290.43333333333334"/>
      <point x="416.4" y="349.6"/>
      <point x="320.83333333333337" y="349.6" type="curve" smooth="yes"/>
      <point x="205.06666666666666" y="349.6"/>
      <point x="124.5" y="249.4"/>
      <point x="98.13333333333333" y="135.83333333333331" type="curve"/>
      <point x="139.16666666666666" y="104.1" type="line"/>
      <point x="161.13333333333333" y="184.03333333333333"/>
      <point x="194.2" y="231.83333333333334"/>
      <point x="242.4" y="231.83333333333334" type="curve" smooth="yes"/>
      <point x="275.4666666666667" y="231.83333333333334"/>
      <point x="295.0" y="204.83333333333331"/>
      <point x="295.0" y="171.46666666666667" type="curve" smooth="yes"/>
      <point x="295.0" y="119.16666666666667"/>
      <point x="265.0" y="83.96666666666667"/>
      <point x="212.50000000000003" y="83.96666666666667" type="curve" smooth="yes"/>
      <point x="164.16666666666666" y="83.96666666666667"/>
      <point x="115.83333333333334" y="139.5"/>
      <point x="115.83333333333334" y="233.96666666666667" type="curve" smooth="yes"/>
      <point x="115.83333333333334" y="403.9666666666667"/>
      <point x="235.23333333333332" y="509.0"/>
      <point x="457.3" y="509.0" type="curve" smooth="yes"/>
      <point x="668.9666666666667" y="509.0" type="line"/>
      <point x="560.9666666666667" y="0.0" type="line"/>
      <point x="766.2666666666667" y="0.0" type="line"/>
      <point x="874.2666666666667" y="509.0" type="line"/>
      <point x="991.3333333333333" y="509.0" type="line"/>
      <point x="1006.9666666666666" y="581.0666666666667" type="line"/>
      <point x="455.93333333333334" y="581.0666666666667" type="line" smooth="yes"/>
      <point x="190.36666666666667" y="581.0666666666667"/>
      <point x="38.13333333333333" y="440.1333333333333"/>
      <point x="38.13333333333333" y="224.9" type="curve" smooth="yes"/>
      <point x="38.13333333333333" y="92.96666666666667"/>
      <point x="127.5" y="-5.0"/>
    </contour>
  </outline>
</glyph>
<glyph name="ee-tamil" format="2">
  <advance width="957.3333333333334"/>
  <unicode hex="0B8F"/>
  <note>
uni0B8F
</note>
  <anchor x="438.90000000000003" y="0.0" name="bottom"/>
  <anchor x="390.93333333333334" y="-224.2" name="nukta"/>
  <anchor x="564.9" y="581.0666666666667" name="top"/>
  <anchor x="565.1666666666666" y="581.0666666666667" name="vedic"/>
  <outline>
    <contour>
      <point x="339.6666666666667" y="-273.6333333333333" type="line"/>
      <point x="771.6666666666667" y="29.23333333333333" type="line"/>
      <point x="874.0" y="509.0" type="line"/>
      <point x="991.0666666666666" y="509.0" type="line"/>
      <point x="1006.3333333333333" y="581.0666666666667" type="line"/>
      <point x="455.93333333333334" y="581.0666666666667" type="line" smooth="yes"/>
      <point x="190.36666666666667" y="581.0666666666667"/>
      <point x="38.13333333333333" y="440.1333333333333"/>
      <point x="38.13333333333333" y="224.9" type="curve" smooth="yes"/>
      <point x="38.13333333333333" y="92.96666666666667"/>
      <point x="123.83333333333333" y="-5.0"/>
      <point x="252.03333333333333" y="-5.0" type="curve" smooth="yes"/>
      <point x="373.53333333333336" y="-5.0"/>
      <point x="473.0" y="71.03333333333333"/>
      <point x="473.0" y="202.0" type="curve" smooth="yes"/>
      <point x="473.0" y="290.43333333333334"/>
      <point x="416.4" y="349.6"/>
      <point x="320.83333333333337" y="349.6" type="curve" smooth="yes"/>
      <point x="205.06666666666666" y="349.6"/>
      <point x="124.5" y="249.4"/>
      <point x="98.13333333333333" y="135.83333333333331" type="curve"/>
      <point x="139.16666666666666" y="104.1" type="line"/>
      <point x="161.13333333333333" y="184.03333333333333"/>
      <point x="194.2" y="231.83333333333334"/>
      <point x="242.4" y="231.83333333333334" type="curve" smooth="yes"/>
      <point x="275.4666666666667" y="231.83333333333334"/>
      <point x="295.0" y="204.83333333333331"/>
      <point x="295.0" y="171.46666666666667" type="curve" smooth="yes"/>
      <point x="295.0" y="119.16666666666667"/>
      <point x="265.0" y="83.96666666666667"/>
      <point x="212.50000000000003" y="83.96666666666667" type="curve" smooth="yes"/>
      <point x="164.16666666666666" y="83.96666666666667"/>
      <point x="115.83333333333334" y="139.5"/>
      <point x="115.83333333333334" y="233.96666666666667" type="curve" smooth="yes"/>
      <point x="115.83333333333334" y="403.9666666666667"/>
      <point x="235.23333333333332" y="509.0"/>
      <point x="457.3" y="509.0" type="curve" smooth="yes"/>
      <point x="668.9666666666667" y="509.0" type="line"/>
      <point x="554.7" y="-31.433333333333337" type="line"/>
      <point x="298.2" y="-210.96666666666667" type="line"/>
    </contour>
  </outline>
</glyph>
<glyph name="ai-tamil" format="2">
  <advance width="1007.5333333333333"/>
  <unicode hex="0B90"/>
  <note>
uni0B90
</note>
  <anchor x="449.8" y="0.0" name="bottom"/>
  <anchor x="369.93333333333334" y="-333.53333333333336" name="nukta"/>
  <anchor x="573.5666666666667" y="581.0666666666667" name="top"/>
  <anchor x="571.1999999999999" y="581.0666666666667" name="vedic"/>
  <outline>
    <contour>
      <point x="167.76666666666665" y="-333.53333333333336" type="curve" smooth="yes"/>
      <point x="289.3" y="-333.53333333333336"/>
      <point x="370.8666666666667" y="-280.9"/>
      <point x="418.46666666666664" y="-194.4" type="curve"/>
      <point x="431.8" y="-285.1333333333333"/>
      <point x="519.0" y="-333.53333333333336"/>
      <point x="616.6" y="-333.53333333333336" type="curve" smooth="yes"/>
      <point x="771.9333333333333" y="-333.53333333333336"/>
      <point x="879.7333333333333" y="-237.63333333333333"/>
      <point x="879.7333333333333" y="-75.96666666666667" type="curve" smooth="yes"/>
      <point x="879.7333333333333" y="-23.366666666666667"/>
      <point x="864.6666666666666" y="26.533333333333335"/>
      <point x="845.9666666666666" y="67.7" type="curve"/>
      <point x="769.2666666666668" y="33.2" type="line"/>
      <point x="785.6999999999999" y="-4.066666666666666"/>
      <point x="797.6" y="-42.53333333333334"/>
      <point x="797.6" y="-80.06666666666666" type="curve" smooth="yes"/>
      <point x="797.6" y="-183.26666666666668"/>
      <point x="731.8333333333333" y="-256.1"/>
      <point x="619.4333333333333" y="-256.1" type="curve" smooth="yes"/>
      <point x="523.3666666666667" y="-256.1"/>
      <point x="489.4" y="-201.4"/>
      <point x="509.9333333333334" y="-103.1" type="curve" smooth="yes"/>
      <point x="527.1333333333333" y="-19.833333333333332" type="line"/>
      <point x="374.9" y="-19.833333333333332" type="line"/>
      <point x="358.06666666666666" y="-97.73333333333333" type="line" smooth="yes"/>
      <point x="338.1666666666667" y="-189.0666666666667"/>
      <point x="297.73333333333335" y="-254.46666666666667"/>
      <point x="218.2" y="-254.46666666666667" type="curve" smooth="yes"/>
      <point x="157.46666666666667" y="-254.46666666666667"/>
      <point x="135.20000000000002" y="-211.5"/>
      <point x="135.20000000000002" y="-153.89999999999998" type="curve" smooth="yes"/>
      <point x="135.20000000000002" y="25.133333333333333"/>
      <point x="269.2666666666667" y="54.56666666666667"/>
      <point x="494.1666666666667" y="74.4" type="curve" smooth="yes"/>
      <point x="766.2333333333333" y="98.6"/>
      <point x="980.2" y="166.7"/>
      <point x="980.2" y="395.8333333333333" type="curve" smooth="yes"/>
      <point x="980.2" y="506.96666666666664"/>
      <point x="905.4333333333333" y="586.4333333333333"/>
      <point x="773.0" y="586.4333333333333" type="curve" smooth="yes"/>
      <point x="680.1666666666666" y="586.4333333333333"/>
      <point x="598.0666666666667" y="549.0666666666667"/>
      <point x="551.7333333333333" y="462.76666666666665" type="curve"/>
      <point x="530.9333333333334" y="546.1666666666666"/>
      <point x="451.5666666666667" y="586.4333333333333"/>
      <point x="347.3" y="586.4333333333333" type="curve" smooth="yes"/>
      <point x="177.93333333333334" y="586.4333333333333"/>
      <point x="57.5" y="468.06666666666666"/>
      <point x="57.5" y="312.4666666666667" type="curve" smooth="yes"/>
      <point x="57.5" y="222.6"/>
      <point x="118.43333333333332" y="150.46666666666667"/>
      <point x="213.39999999999998" y="150.46666666666667" type="curve" smooth="yes"/>
      <point x="309.7333333333333" y="150.46666666666667"/>
      <point x="384.93333333333334" y="208.43333333333334"/>
      <point x="384.93333333333334" y="304.03333333333336" type="curve" smooth="yes"/>
      <point x="384.93333333333334" y="369.46666666666664"/>
      <point x="340.96666666666664" y="409.3666666666667"/>
      <point x="275.1333333333333" y="409.3666666666667" type="curve" smooth="yes"/>
      <point x="192.93333333333334" y="409.3666666666667"/>
      <point x="131.73333333333335" y="351.03333333333336"/>
      <point x="98.9" y="238.46666666666667" type="curve"/>
      <point x="134.03333333333336" y="222.1" type="line"/>
      <point x="162.46666666666667" y="305.46666666666664"/>
      <point x="193.63333333333335" y="331.3"/>
      <point x="222.96666666666667" y="331.3" type="curve" smooth="yes"/>
      <point x="247.76666666666665" y="331.3"/>
      <point x="261.56666666666666" y="313.76666666666665"/>
      <point x="261.56666666666666" y="290.03333333333336" type="curve" smooth="yes"/>
      <point x="261.56666666666666" y="256.4"/>
      <point x="241.03333333333333" y="227.9"/>
      <point x="203.13333333333335" y="227.9" type="curve" smooth="yes"/>
      <point x="160.93333333333334" y="227.9"/>
      <point x="135.26666666666668" y="269.3"/>
      <point x="135.26666666666668" y="322.06666666666666" type="curve" smooth="yes"/>
      <point x="135.26666666666668" y="429.33333333333337"/>
      <point x="223.86666666666667" y="509.6333333333333"/>
      <point x="335.6666666666667" y="509.6333333333333" type="curve" smooth="yes"/>
      <point x="427.46666666666664" y="509.6333333333333"/>
      <point x="475.3666666666667" y="457.26666666666665"/>
      <point x="455.56666666666666" y="367.7" type="curve" smooth="yes"/>
      <point x="420.26666666666665" y="204.83333333333334" type="line"/>
      <point x="572.5" y="204.83333333333334" type="line"/>
      <point x="611.6" y="390.29999999999995" type="line" smooth="yes"/>
      <point x="627.2333333333333" y="465.3666666666667"/>
      <point x="665.2666666666667" y="507.0"/>
      <point x="719.8666666666667" y="507.0" type="curve" smooth="yes"/>
      <point x="775.5333333333333" y="507.0"/>
      <point x="800.6" y="468.2"/>
      <point x="800.6" y="407.43333333333334" type="curve" smooth="yes"/>
      <point x="800.6" y="194.33333333333334"/>
      <point x="678.1333333333333" y="148.3"/>
      <point x="404.2333333333333" y="122.56666666666666" type="curve" smooth="yes"/>
      <point x="171.93333333333334" y="100.83333333333333"/>
      <point x="-44.766666666666666" y="54.2"/>
      <point x="-44.766666666666666" y="-147.43333333333334" type="curve" smooth="yes"/>
      <point x="-44.766666666666666" y="-261.0"/>
      <point x="31.066666666666666" y="-333.53333333333336"/>
    </contour>
  </outline>
</glyph>
<glyph name="o-tamil" format="2">
  <advance width="1072.7333333333333"/>
  <unicode hex="0B92"/>
  <note>
uni0B92
</note>
  <anchor x="465.4666666666667" y="0.0" name="bottom"/>
  <anchor x="391.83333333333337" y="-335.0" name="nukta"/>
  <anchor x="575.4000000000001" y="581.0666666666667" name="top"/>
  <anchor x="575.4" y="581.0666666666667" name="vedic"/>
  <outline>
    <contour>
      <point x="258.93333333333334" y="-367.43333333333334" type="curve" smooth="yes"/>
      <point x="493.1" y="-367.43333333333334"/>
      <point x="571.4666666666666" y="-149.9"/>
      <point x="739.4666666666667" y="-149.9" type="curve" smooth="yes"/>
      <point x="805.0" y="-149.9" type="line"/>
      <point x="820.2666666666668" y="-76.3" type="line"/>
      <point x="728.3" y="-76.3" type="line" smooth="yes"/>
      <point x="545.1666666666667" y="-76.3"/>
      <point x="503.06666666666666" y="80.2"/>
      <point x="631.4666666666666" y="236.20000000000002" type="curve"/>
      <point x="636.4666666666667" y="232.56666666666666" type="line"/>
      <point x="575.8000000000001" y="101.6"/>
      <point x="620.4" y="-2.3666666666666667"/>
      <point x="765.3666666666667" y="-2.3666666666666667" type="curve" smooth="yes"/>
      <point x="904.4666666666667" y="-2.3666666666666667"/>
      <point x="1017.0333333333332" y="100.13333333333334"/>
      <point x="1017.0333333333332" y="255.1" type="curve" smooth="yes"/>
      <point x="1017.0333333333332" y="493.7"/>
      <point x="786.9000000000001" y="586.4333333333333"/>
      <point x="539.6666666666666" y="586.4333333333333" type="curve" smooth="yes"/>
      <point x="251.03333333333333" y="586.4333333333333"/>
      <point x="34.6" y="433.23333333333335"/>
      <point x="34.6" y="222.86666666666667" type="curve" smooth="yes"/>
      <point x="34.6" y="93.46666666666667"/>
      <point x="119.56666666666666" y="-5.0"/>
      <point x="247.76666666666665" y="-5.0" type="curve" smooth="yes"/>
      <point x="369.26666666666665" y="-5.0"/>
      <point x="468.00000000000006" y="71.03333333333333"/>
      <point x="468.00000000000006" y="202.0" type="curve" smooth="yes"/>
      <point x="468.00000000000006" y="290.43333333333334"/>
      <point x="412.1333333333334" y="349.6"/>
      <point x="316.56666666666666" y="349.6" type="curve" smooth="yes"/>
      <point x="200.8" y="349.6"/>
      <point x="120.96666666666665" y="249.4"/>
      <point x="94.6" y="135.83333333333331" type="curve"/>
      <point x="135.63333333333333" y="104.1" type="line"/>
      <point x="157.6" y="184.03333333333333"/>
      <point x="189.9333333333333" y="231.83333333333334"/>
      <point x="238.13333333333333" y="231.83333333333334" type="curve" smooth="yes"/>
      <point x="271.2" y="231.83333333333334"/>
      <point x="290.0" y="204.83333333333331"/>
      <point x="290.0" y="171.46666666666667" type="curve" smooth="yes"/>
      <point x="290.0" y="119.16666666666667"/>
      <point x="260.7333333333333" y="83.96666666666667"/>
      <point x="208.23333333333335" y="83.96666666666667" type="curve" smooth="yes"/>
      <point x="159.9" y="83.96666666666667"/>
      <point x="112.30000000000001" y="140.0"/>
      <point x="112.30000000000001" y="231.93333333333334" type="curve" smooth="yes"/>
      <point x="112.30000000000001" y="394.40000000000003"/>
      <point x="300.5" y="507.8333333333333"/>
      <point x="510.4" y="507.8333333333333" type="curve" smooth="yes"/>
      <point x="696.5999999999999" y="507.8333333333333"/>
      <point x="837.2333333333332" y="435.5"/>
      <point x="837.2333333333332" y="267.9" type="curve" smooth="yes"/>
      <point x="837.2333333333332" y="179.13333333333333"/>
      <point x="799.1333333333333" y="93.6"/>
      <point x="724.1333333333333" y="93.6" type="curve" smooth="yes"/>
      <point x="654.6333333333333" y="93.6"/>
      <point x="669.6333333333333" y="208.36666666666667"/>
      <point x="724.6666666666667" y="288.46666666666664" type="curve"/>
      <point x="650.5666666666666" y="338.76666666666665" type="line"/>
      <point x="486.50000000000006" y="189.9"/>
      <point x="419.5" y="-19.833333333333332"/>
      <point x="586.8" y="-100.39999999999999" type="curve"/>
      <point x="585.8" y="-105.39999999999999" type="line"/>
      <point x="423.76666666666665" y="-132.23333333333332"/>
      <point x="355.0666666666667" y="-285.1"/>
      <point x="231.36666666666667" y="-285.1" type="curve" smooth="yes"/>
      <point x="180.29999999999998" y="-285.1"/>
      <point x="150.23333333333332" y="-252.93333333333334"/>
      <point x="150.23333333333332" y="-212.6" type="curve" smooth="yes"/>
      <point x="150.23333333333332" y="-166.26666666666665"/>
      <point x="176.73333333333332" y="-139.83333333333334"/>
      <point x="223.96666666666667" y="-106.56666666666666" type="curve"/>
      <point x="190.23333333333335" y="-57.86666666666667" type="line"/>
      <point x="123.83333333333333" y="-105.66666666666667"/>
      <point x="78.9" y="-148.36666666666667"/>
      <point x="78.9" y="-225.5" type="curve" smooth="yes"/>
      <point x="78.9" y="-303.2666666666667"/>
      <point x="139.86666666666667" y="-367.43333333333334"/>
    </contour>
  </outline>
</glyph>
<glyph name="oo-tamil" format="2">
  <advance width="1072.7333333333333"/>
  <unicode hex="0B93"/>
  <note>
uni0B93
</note>
  <anchor x="475.3333333333333" y="0.0" name="bottom"/>
  <anchor x="396.93333333333334" y="-359.1" name="nukta"/>
  <anchor x="575.7666666666667" y="581.0666666666667" name="top"/>
  <anchor x="575.7666666666667" y="581.0666666666667" name="vedic"/>
  <outline>
    <contour>
      <point x="222.16666666666669" y="-399.70000000000005" type="curve" smooth="yes"/>
      <point x="489.8333333333333" y="-399.70000000000005"/>
      <point x="571.4666666666666" y="-152.43333333333334"/>
      <point x="739.4666666666667" y="-152.43333333333334" type="curve" smooth="yes"/>
      <point x="805.0" y="-152.43333333333334" type="line"/>
      <point x="820.2666666666668" y="-78.83333333333333" type="line"/>
      <point x="728.3" y="-78.83333333333333" type="line" smooth="yes"/>
      <point x="545.1666666666667" y="-78.83333333333333"/>
      <point x="503.06666666666666" y="80.2"/>
      <point x="631.4666666666667" y="236.2" type="curve"/>
      <point x="636.4666666666667" y="232.56666666666666" type="line"/>
      <point x="575.8000000000001" y="101.6"/>
      <point x="620.4" y="-2.3666666666666667"/>
      <point x="765.3666666666667" y="-2.3666666666666667" type="curve" smooth="yes"/>
      <point x="904.4666666666667" y="-2.3666666666666667"/>
      <point x="1017.0333333333332" y="100.13333333333334"/>
      <point x="1017.0333333333332" y="255.1" type="curve" smooth="yes"/>
      <point x="1017.0333333333332" y="493.7"/>
      <point x="786.9000000000001" y="586.4333333333333"/>
      <point x="539.6666666666666" y="586.4333333333333" type="curve" smooth="yes"/>
      <point x="251.03333333333333" y="586.4333333333333"/>
      <point x="34.6" y="433.23333333333335"/>
      <point x="34.6" y="222.86666666666667" type="curve" smooth="yes"/>
      <point x="34.6" y="93.46666666666667"/>
      <point x="119.56666666666666" y="-5.0"/>
      <point x="247.76666666666665" y="-5.0" type="curve" smooth="yes"/>
      <point x="369.26666666666665" y="-5.0"/>
      <point x="468.00000000000006" y="71.03333333333333"/>
      <point x="468.00000000000006" y="202.0" type="curve" smooth="yes"/>
      <point x="468.00000000000006" y="290.43333333333334"/>
      <point x="412.1333333333334" y="349.6"/>
      <point x="316.56666666666666" y="349.6" type="curve" smooth="yes"/>
      <point x="200.8" y="349.6"/>
      <point x="120.96666666666665" y="249.4"/>
      <point x="94.6" y="135.83333333333331" type="curve"/>
      <point x="135.63333333333333" y="104.1" type="line"/>
      <point x="157.6" y="184.03333333333333"/>
      <point x="189.9333333333333" y="231.83333333333334"/>
      <point x="238.13333333333333" y="231.83333333333334" type="curve" smooth="yes"/>
      <point x="271.2" y="231.83333333333334"/>
      <point x="290.0" y="204.83333333333331"/>
      <point x="290.0" y="171.46666666666667" type="curve" smooth="yes"/>
      <point x="290.0" y="119.16666666666667"/>
      <point x="260.7333333333333" y="83.96666666666667"/>
      <point x="208.23333333333335" y="83.96666666666667" type="curve" smooth="yes"/>
      <point x="159.9" y="83.96666666666667"/>
      <point x="112.30000000000001" y="140.0"/>
      <point x="112.30000000000001" y="231.93333333333334" type="curve" smooth="yes"/>
      <point x="112.30000000000001" y="394.40000000000003"/>
      <point x="300.5" y="507.8333333333333"/>
      <point x="510.4" y="507.8333333333333" type="curve" smooth="yes"/>
      <point x="696.5999999999999" y="507.8333333333333"/>
      <point x="837.2333333333332" y="435.5"/>
      <point x="837.2333333333332" y="267.9" type="curve" smooth="yes"/>
      <point x="837.2333333333332" y="179.13333333333333"/>
      <point x="799.1333333333333" y="93.6"/>
      <point x="724.1333333333333" y="93.6" type="curve" smooth="yes"/>
      <point x="654.6333333333333" y="93.6"/>
      <point x="669.6333333333333" y="208.36666666666667"/>
      <point x="724.6666666666667" y="288.46666666666664" type="curve"/>
      <point x="650.5666666666666" y="338.76666666666665" type="line"/>
      <point x="486.5" y="189.9"/>
      <point x="419.5" y="-22.366666666666667"/>
      <point x="586.8" y="-102.93333333333332" type="curve"/>
      <point x="585.8" y="-107.93333333333332" type="line"/>
      <point x="423.7666666666667" y="-134.76666666666665"/>
      <point x="346.76666666666665" y="-317.3666666666667"/>
      <point x="191.39999999999998" y="-317.3666666666667" type="curve" smooth="yes"/>
      <point x="127.03333333333333" y="-317.3666666666667"/>
      <point x="98.16666666666666" y="-278.8666666666667"/>
      <point x="98.16666666666666" y="-235.36666666666667" type="curve" smooth="yes"/>
      <point x="98.16666666666666" y="-186.66666666666669"/>
      <point x="128.6" y="-147.8"/>
      <point x="178.26666666666668" y="-147.8" type="curve" smooth="yes"/>
      <point x="222.4" y="-147.8"/>
      <point x="252.53333333333333" y="-179.29999999999998"/>
      <point x="256.26666666666665" y="-233.06666666666666" type="curve"/>
      <point x="306.8666666666666" y="-216.9"/>
      <point x="345.53333333333336" y="-182.56666666666666"/>
      <point x="345.53333333333336" y="-131.63333333333333" type="curve" smooth="yes"/>
      <point x="345.53333333333336" y="-80.23333333333333"/>
      <point x="296.1333333333333" y="-50.8"/>
      <point x="232.46666666666667" y="-50.8" type="curve" smooth="yes"/>
      <point x="118.46666666666667" y="-50.8"/>
      <point x="29.833333333333332" y="-133.20000000000002"/>
      <point x="29.833333333333332" y="-245.16666666666666" type="curve" smooth="yes"/>
      <point x="29.833333333333332" y="-338.90000000000003"/>
      <point x="106.3" y="-399.70000000000005"/>
    </contour>
  </outline>
</glyph>
<glyph name="nga-tamil" format="2">
  <advance width="1033.1333333333332"/>
  <unicode hex="0B99"/>
  <note>
uni0B99
</note>
  <anchor x="445.26666666666665" y="0.0" name="bottom"/>
  <anchor x="618.3666666666667" y="581.0666666666667" name="imatra"/>
  <anchor x="448.26666666666665" y="0.0" name="nukta"/>
  <anchor x="603.8" y="581.0666666666667" name="top"/>
  <anchor x="577.6999999999999" y="581.0666666666667" name="vedic"/>
  <outline>
    <contour>
      <point x="4.5" y="0.0" type="line"/>
      <point x="85.63333333333333" y="0.0" type="line"/>
      <point x="193.63333333333335" y="509.0" type="line"/>
      <point x="306.96666666666664" y="509.0" type="line"/>
      <point x="235.96666666666667" y="175.0" type="line"/>
      <point x="419.93333333333334" y="175.0" type="line"/>
      <point x="434.40000000000003" y="241.79999999999998" type="line" smooth="yes"/>
      <point x="439.6666666666667" y="265.1333333333333"/>
      <point x="451.4666666666667" y="283.56666666666666"/>
      <point x="474.5333333333333" y="283.56666666666666" type="curve" smooth="yes"/>
      <point x="494.6" y="283.56666666666666"/>
      <point x="509.4" y="269.4"/>
      <point x="509.4" y="238.06666666666666" type="curve" smooth="yes"/>
      <point x="509.4" y="140.53333333333333"/>
      <point x="444.6" y="72.06666666666666"/>
      <point x="349.46666666666664" y="72.06666666666666" type="curve" smooth="yes"/>
      <point x="214.23333333333332" y="72.06666666666666" type="line"/>
      <point x="198.96666666666667" y="0.0" type="line"/>
      <point x="905.3666666666667" y="0.0" type="line"/>
      <point x="1028.6333333333334" y="581.0666666666667" type="line"/>
      <point x="828.6666666666667" y="581.0666666666667" type="line"/>
      <point x="720.3000000000001" y="72.06666666666666" type="line"/>
      <point x="516.8666666666667" y="72.06666666666666" type="line"/>
      <point x="622.5666666666667" y="102.6"/>
      <point x="703.6333333333333" y="177.13333333333333"/>
      <point x="703.6333333333333" y="280.6666666666667" type="curve" smooth="yes"/>
      <point x="703.6333333333333" y="356.1"/>
      <point x="653.4" y="399.9"/>
      <point x="582.7333333333333" y="399.9" type="curve" smooth="yes"/>
      <point x="525.7" y="399.9"/>
      <point x="489.5666666666667" y="374.56666666666666"/>
      <point x="461.3" y="343.46666666666664" type="curve"/>
      <point x="496.3" y="509.0" type="line"/>
      <point x="633.1666666666667" y="509.0" type="line"/>
      <point x="648.4333333333334" y="581.0666666666667" type="line"/>
      <point x="127.76666666666667" y="581.0666666666667" type="line"/>
    </contour>
  </outline>
</glyph>
<glyph name="ja-tamil" format="2">
  <advance width="1011.9000000000001"/>
  <unicode hex="0B9C"/>
  <note>
uni0B9C
</note>
  <anchor x="445.93333333333334" y="0.0" name="bottom"/>
  <anchor x="366.06666666666666" y="-333.53333333333336" name="nukta"/>
  <anchor x="563.8000000000001" y="581.0666666666667" name="top"/>
  <anchor x="559.4333333333334" y="581.0666666666667" name="vedic"/>
  <outline>
    <contour>
      <point x="146.53333333333336" y="-333.53333333333336" type="curve" smooth="yes"/>
      <point x="359.6333333333333" y="-333.53333333333336"/>
      <point x="452.6333333333333" y="-32.16666666666667"/>
      <point x="614.6333333333333" y="-32.16666666666667" type="curve" smooth="yes"/>
      <point x="674.0000000000001" y="-32.16666666666667"/>
      <point x="698.9666666666666" y="-69.46666666666667"/>
      <point x="698.9666666666666" y="-123.40000000000002" type="curve" smooth="yes"/>
      <point x="698.9666666666666" y="-198.56666666666666"/>
      <point x="648.1333333333333" y="-248.46666666666667"/>
      <point x="577.0333333333334" y="-248.46666666666667" type="curve" smooth="yes"/>
      <point x="545.0666666666667" y="-248.46666666666667"/>
      <point x="513.2666666666667" y="-235.73333333333332"/>
      <point x="486.4666666666667" y="-217.56666666666666" type="curve"/>
      <point x="442.23333333333335" y="-279.3666666666667" type="line"/>
      <point x="487.73333333333335" y="-315.3333333333333"/>
      <point x="546.9666666666667" y="-333.53333333333336"/>
      <point x="618.7333333333333" y="-333.53333333333336" type="curve" smooth="yes"/>
      <point x="760.5333333333334" y="-333.53333333333336"/>
      <point x="879.5666666666667" y="-253.7"/>
      <point x="879.5666666666667" y="-114.60000000000001" type="curve" smooth="yes"/>
      <point x="879.5666666666667" y="-8.1"/>
      <point x="800.9" y="53.53333333333333"/>
      <point x="691.5333333333334" y="54.166666666666664" type="curve" smooth="yes"/>
      <point x="435.33333333333337" y="56.06666666666667"/>
      <point x="342.3666666666667" y="-241.66666666666666"/>
      <point x="210.93333333333334" y="-241.66666666666666" type="curve" smooth="yes"/>
      <point x="158.2" y="-241.66666666666666"/>
      <point x="136.20000000000002" y="-199.06666666666666"/>
      <point x="136.20000000000002" y="-138.3" type="curve" smooth="yes"/>
      <point x="136.20000000000002" y="16.8"/>
      <point x="266.4" y="58.36666666666667"/>
      <point x="491.29999999999995" y="79.46666666666667" type="curve" smooth="yes"/>
      <point x="763.3666666666667" y="104.93333333333334"/>
      <point x="977.4" y="166.7"/>
      <point x="977.4" y="395.8333333333333" type="curve" smooth="yes"/>
      <point x="977.4" y="506.96666666666664"/>
      <point x="902.6333333333334" y="586.4333333333333"/>
      <point x="770.1999999999999" y="586.4333333333333" type="curve" smooth="yes"/>
      <point x="677.3666666666667" y="586.4333333333333"/>
      <point x="595.2666666666667" y="549.0666666666667"/>
      <point x="548.9333333333333" y="462.76666666666665" type="curve"/>
      <point x="528.1333333333333" y="546.1666666666666"/>
      <point x="448.76666666666665" y="586.4333333333333"/>
      <point x="344.5" y="586.4333333333333" type="curve" smooth="yes"/>
      <point x="175.13333333333335" y="586.4333333333333"/>
      <point x="54.699999999999996" y="468.06666666666666"/>
      <point x="54.699999999999996" y="312.4666666666667" type="curve" smooth="yes"/>
      <point x="54.699999999999996" y="222.6"/>
      <point x="115.63333333333334" y="150.46666666666667"/>
      <point x="210.6" y="150.46666666666667" type="curve" smooth="yes"/>
      <point x="306.93333333333334" y="150.46666666666667"/>
      <point x="382.1333333333333" y="208.43333333333334"/>
      <point x="382.1333333333333" y="304.03333333333336" type="curve" smooth="yes"/>
      <point x="382.1333333333333" y="369.46666666666664"/>
      <point x="338.1666666666667" y="409.3666666666667"/>
      <point x="272.3333333333333" y="409.3666666666667" type="curve" smooth="yes"/>
      <point x="190.13333333333333" y="409.3666666666667"/>
      <point x="128.93333333333334" y="351.03333333333336"/>
      <point x="96.1" y="238.46666666666667" type="curve"/>
      <point x="131.23333333333332" y="222.1" type="line"/>
      <point x="159.66666666666669" y="305.46666666666664"/>
      <point x="190.83333333333334" y="331.3"/>
      <point x="220.16666666666666" y="331.3" type="curve" smooth="yes"/>
      <point x="244.96666666666667" y="331.3"/>
      <point x="258.76666666666665" y="313.76666666666665"/>
      <point x="258.76666666666665" y="290.03333333333336" type="curve" smooth="yes"/>
      <point x="258.76666666666665" y="256.4"/>
      <point x="238.23333333333332" y="227.9"/>
      <point x="200.33333333333334" y="227.9" type="curve" smooth="yes"/>
      <point x="158.13333333333335" y="227.9"/>
      <point x="132.46666666666667" y="269.3"/>
      <point x="132.46666666666667" y="322.06666666666666" type="curve" smooth="yes"/>
      <point x="132.46666666666667" y="429.33333333333337"/>
      <point x="221.0666666666667" y="509.6333333333333"/>
      <point x="332.8666666666667" y="509.6333333333333" type="curve" smooth="yes"/>
      <point x="424.6666666666667" y="509.6333333333333"/>
      <point x="472.56666666666666" y="457.26666666666665"/>
      <point x="452.76666666666665" y="367.7" type="curve" smooth="yes"/>
      <point x="417.46666666666664" y="204.83333333333334" type="line"/>
      <point x="569.6999999999999" y="204.83333333333334" type="line"/>
      <point x="608.8" y="390.29999999999995" type="line" smooth="yes"/>
      <point x="624.4333333333333" y="465.3666666666667"/>
      <point x="662.4666666666667" y="507.0"/>
      <point x="717.0666666666667" y="507.0" type="curve" smooth="yes"/>
      <point x="772.7333333333333" y="507.0"/>
      <point x="797.8" y="468.2"/>
      <point x="797.8" y="407.43333333333334" type="curve" smooth="yes"/>
      <point x="797.8" y="194.33333333333331"/>
      <point x="675.2666666666668" y="151.46666666666667"/>
      <point x="401.3666666666667" y="124.46666666666667" type="curve" smooth="yes"/>
      <point x="151.96666666666667" y="100.2"/>
      <point x="-43.766666666666666" y="37.0"/>
      <point x="-43.766666666666666" y="-141.96666666666667" type="curve" smooth="yes"/>
      <point x="-43.766666666666666" y="-249.9"/>
      <point x="20.0" y="-333.53333333333336"/>
    </contour>
  </outline>
</glyph>
<glyph name="tta-tamil" format="2">
  <advance width="912.3000000000001"/>
  <unicode hex="0B9F"/>
  <note>
uni0B9F
</note>
  <anchor x="401.8333333333333" y="0.0" name="bottom"/>
  <anchor x="401.8333333333333" y="0.0" name="nukta"/>
  <anchor x="551.3000000000001" y="581.0666666666667" name="top"/>
  <anchor x="548.4333333333333" y="581.0666666666667" name="vedic"/>
  <outline>
    <contour>
      <point x="4.5" y="0.0" type="line"/>
      <point x="846.4666666666667" y="0.0" type="line"/>
      <point x="861.7333333333333" y="72.06666666666666" type="line"/>
      <point x="218.4666666666667" y="72.06666666666666" type="line"/>
      <point x="327.1" y="581.0666666666667" type="line"/>
      <point x="127.76666666666667" y="581.0666666666667" type="line"/>
    </contour>
  </outline>
</glyph>
<glyph name="ta-tamil" format="2">
  <advance width="896.2333333333333"/>
  <unicode hex="0BA4"/>
  <note>
uni0BA4
</note>
  <anchor x="377.7" y="0.0" name="bottom"/>
  <anchor x="655.9333333333333" y="581.0666666666667" name="imatra"/>
  <anchor x="436.8333333333333" y="-134.63333333333333" name="nukta"/>
  <anchor x="521.2" y="581.0666666666667" name="top"/>
  <anchor x="520.9666666666667" y="581.0666666666667" name="vedic"/>
  <outline>
    <contour>
      <point x="100.76666666666667" y="-303.23333333333335" type="curve"/>
      <point x="122.56666666666666" y="-193.16666666666669"/>
      <point x="169.79999999999998" y="-130.26666666666668"/>
      <point x="294.70000000000005" y="-130.26666666666668" type="curve" smooth="yes"/>
      <point x="453.7666666666667" y="-130.26666666666668" type="line" smooth="yes"/>
      <point x="641.3000000000001" y="-130.26666666666668"/>
      <point x="821.3000000000001" y="-41.56666666666666"/>
      <point x="821.3000000000001" y="148.8" type="curve" smooth="yes"/>
      <point x="821.3000000000001" y="292.43333333333334"/>
      <point x="718.5666666666667" y="345.06666666666666"/>
      <point x="581.1333333333333" y="345.06666666666666" type="curve" smooth="yes"/>
      <point x="561.3000000000001" y="345.06666666666666" type="line"/>
      <point x="596.0333333333333" y="508.3666666666667" type="line"/>
      <point x="736.4666666666667" y="508.3666666666667" type="line"/>
      <point x="752.1" y="581.0666666666667" type="line"/>
      <point x="212.4" y="581.0666666666667" type="line"/>
      <point x="154.4" y="307.43333333333334" type="line"/>
      <point x="232.26666666666665" y="307.43333333333334" type="line"/>
      <point x="274.6333333333333" y="508.3666666666667" type="line"/>
      <point x="394.59999999999997" y="508.3666666666667" type="line"/>
      <point x="360.23333333333335" y="345.06666666666666" type="line"/>
      <point x="235.96666666666667" y="345.06666666666666" type="line" smooth="yes"/>
      <point x="116.39999999999999" y="345.06666666666666"/>
      <point x="32.3" y="270.8333333333333"/>
      <point x="32.3" y="160.70000000000002" type="curve" smooth="yes"/>
      <point x="32.3" y="70.2"/>
      <point x="107.1" y="-4.0"/>
      <point x="255.13333333333333" y="-4.0" type="curve" smooth="yes"/>
      <point x="424.43333333333334" y="-4.0"/>
      <point x="501.1333333333334" y="74.56666666666666"/>
      <point x="532.8333333333334" y="213.0666666666667" type="curve" smooth="yes"/>
      <point x="546.0333333333333" y="272.3666666666667" type="line"/>
      <point x="556.1333333333333" y="272.3666666666667" type="line" smooth="yes"/>
      <point x="602.8" y="272.3666666666667"/>
      <point x="637.7" y="240.20000000000002"/>
      <point x="637.7" y="151.5" type="curve" smooth="yes"/>
      <point x="637.7" y="11.2"/>
      <point x="550.8333333333334" y="-67.2"/>
      <point x="382.7666666666667" y="-67.2" type="curve" smooth="yes"/>
      <point x="241.20000000000002" y="-67.2" type="line" smooth="yes"/>
      <point x="90.43333333333332" y="-67.2"/>
      <point x="-29.766666666666666" y="-97.73333333333333"/>
      <point x="-29.766666666666666" y="-208.16666666666666" type="curve" smooth="yes"/>
      <point x="-29.766666666666666" y="-269.23333333333335"/>
      <point x="21.733333333333334" y="-303.23333333333335"/>
    </contour>
    <contour>
      <point x="207.2" y="81.16666666666667" type="curve" smooth="yes"/>
      <point x="151.60000000000002" y="81.16666666666667"/>
      <point x="108.0" y="113.53333333333333"/>
      <point x="108.0" y="171.06666666666666" type="curve" smooth="yes"/>
      <point x="108.0" y="234.23333333333335"/>
      <point x="149.13333333333333" y="272.3666666666667"/>
      <point x="228.70000000000002" y="272.3666666666667" type="curve" smooth="yes"/>
      <point x="344.59999999999997" y="272.3666666666667" type="line"/>
      <point x="331.3" y="208.03333333333336" type="line" smooth="yes"/>
      <point x="311.8666666666667" y="116.46666666666667"/>
      <point x="278.3666666666667" y="81.16666666666667"/>
    </contour>
  </outline>
</glyph>
<glyph name="na-tamil" format="2">
  <advance width="848.0"/>
  <unicode hex="0BA8"/>
  <note>
uni0BA8
</note>
  <anchor x="340.3333333333333" y="0.0" name="bottom"/>
  <anchor x="597.1333333333334" y="581.0666666666667" name="imatra"/>
  <anchor x="305.03333333333336" y="-249.5" name="nukta"/>
  <anchor x="465.5" y="581.0666666666667" name="top"/>
  <anchor x="495.20000000000005" y="581.0666666666667" name="vedic"/>
  <outline>
    <contour>
      <point x="96.13333333333334" y="-303.23333333333335" type="curve"/>
      <point x="117.93333333333335" y="-193.16666666666666"/>
      <point x="166.63333333333335" y="-127.73333333333333"/>
      <point x="291.5333333333333" y="-127.73333333333333" type="curve" smooth="yes"/>
      <point x="426.0" y="-127.73333333333333" type="line" smooth="yes"/>
      <point x="620.7666666666667" y="-127.73333333333333"/>
      <point x="781.6666666666666" y="-9.9"/>
      <point x="781.6666666666666" y="191.03333333333333" type="curve" smooth="yes"/>
      <point x="781.6666666666666" y="298.53333333333336"/>
      <point x="721.8333333333334" y="360.7"/>
      <point x="628.8" y="360.7" type="curve" smooth="yes"/>
      <point x="559.0333333333334" y="360.7"/>
      <point x="518.3666666666667" y="327.06666666666666"/>
      <point x="478.2" y="281.7333333333333" type="curve"/>
      <point x="526.4666666666667" y="509.0" type="line"/>
      <point x="657.7666666666667" y="509.0" type="line"/>
      <point x="673.0333333333333" y="581.0666666666667" type="line"/>
      <point x="135.46666666666667" y="581.0666666666667" type="line"/>
      <point x="12.200000000000001" y="0.0" type="line"/>
      <point x="89.8" y="0.0" type="line"/>
      <point x="197.8" y="509.0" type="line"/>
      <point x="325.8666666666667" y="509.0" type="line"/>
      <point x="217.86666666666667" y="0.0" type="line"/>
      <point x="418.46666666666664" y="0.0" type="line"/>
      <point x="452.6666666666667" y="161.8" type="line" smooth="yes"/>
      <point x="463.6666666666667" y="214.70000000000002"/>
      <point x="492.83333333333337" y="239.29999999999998"/>
      <point x="529.5000000000001" y="239.29999999999998" type="curve" smooth="yes"/>
      <point x="571.7333333333333" y="239.29999999999998"/>
      <point x="593.7" y="209.86666666666667"/>
      <point x="593.7" y="162.06666666666666" type="curve" smooth="yes"/>
      <point x="593.7" y="15.833333333333332"/>
      <point x="506.7" y="-65.3"/>
      <point x="357.23333333333335" y="-65.3" type="curve" smooth="yes"/>
      <point x="238.03333333333333" y="-65.3" type="line" smooth="yes"/>
      <point x="87.26666666666667" y="-65.3"/>
      <point x="-34.4" y="-97.73333333333333"/>
      <point x="-34.4" y="-208.16666666666669" type="curve" smooth="yes"/>
      <point x="-34.4" y="-269.2333333333333"/>
      <point x="17.1" y="-303.23333333333335"/>
    </contour>
  </outline>
</glyph>
<glyph name="nnna-tamil" format="2">
  <advance width="1388.0"/>
  <unicode hex="0BA9"/>
  <note>
uni0BA9
</note>
  <anchor x="606.6666666666667" y="0.0" name="bottom"/>
  <anchor x="1286.0333333333333" y="581.0666666666667" name="imatra"/>
  <anchor x="609.3000000000001" y="0.0" name="nukta"/>
  <anchor x="785.2666666666668" y="581.0666666666667" name="top"/>
  <anchor x="773.2666666666667" y="581.0666666666667" name="vedic"/>
  <outline>
    <contour>
      <point x="249.76666666666665" y="-5.0" type="curve" smooth="yes"/>
      <point x="371.2666666666667" y="-5.0"/>
      <point x="470.73333333333335" y="71.03333333333333"/>
      <point x="470.73333333333335" y="202.0" type="curve" smooth="yes"/>
      <point x="470.73333333333335" y="290.43333333333334"/>
      <point x="414.1333333333333" y="349.6"/>
      <point x="318.5666666666667" y="349.6" type="curve" smooth="yes"/>
      <point x="202.8" y="349.6"/>
      <point x="122.23333333333333" y="249.4"/>
      <point x="95.86666666666666" y="135.83333333333331" type="curve"/>
      <point x="136.9" y="104.1" type="line"/>
      <point x="158.86666666666665" y="184.03333333333333"/>
      <point x="191.93333333333334" y="231.83333333333334"/>
      <point x="240.13333333333333" y="231.83333333333334" type="curve" smooth="yes"/>
      <point x="273.20000000000005" y="231.83333333333334"/>
      <point x="292.73333333333335" y="204.83333333333331"/>
      <point x="292.73333333333335" y="171.46666666666667" type="curve" smooth="yes"/>
      <point x="292.73333333333335" y="119.16666666666667"/>
      <point x="262.73333333333335" y="83.96666666666667"/>
      <point x="210.23333333333335" y="83.96666666666667" type="curve" smooth="yes"/>
      <point x="161.89999999999998" y="83.96666666666667"/>
      <point x="113.56666666666668" y="143.16666666666666"/>
      <point x="113.56666666666668" y="237.63333333333333" type="curve" smooth="yes"/>
      <point x="113.56666666666668" y="388.8333333333333"/>
      <point x="272.8333333333333" y="507.1"/>
      <point x="452.66666666666663" y="507.1" type="curve" smooth="yes"/>
      <point x="622.9666666666667" y="507.1"/>
      <point x="752.6666666666666" y="415.6"/>
      <point x="752.6666666666666" y="257.53333333333336" type="curve" smooth="yes"/>
      <point x="752.6666666666666" y="164.23333333333335"/>
      <point x="719.4666666666667" y="92.30000000000001"/>
      <point x="657.3666666666667" y="92.30000000000001" type="curve" smooth="yes"/>
      <point x="621.6" y="92.30000000000001"/>
      <point x="602.1666666666666" y="125.26666666666668"/>
      <point x="602.1666666666666" y="182.86666666666667" type="curve" smooth="yes"/>
      <point x="602.1666666666666" y="384.3666666666667"/>
      <point x="822.4666666666667" y="509.0"/>
      <point x="1034.8666666666668" y="509.0" type="curve" smooth="yes"/>
      <point x="1421.7333333333333" y="509.0" type="line"/>
      <point x="1437.0" y="581.0666666666667" type="line"/>
      <point x="1040.5" y="581.0666666666667" type="line" smooth="yes"/>
      <point x="780.0666666666666" y="581.0666666666667"/>
      <point x="524.9333333333334" y="422.8"/>
      <point x="524.9333333333334" y="178.5" type="curve" smooth="yes"/>
      <point x="524.9333333333334" y="78.9"/>
      <point x="580.1" y="-4.0"/>
      <point x="696.7666666666667" y="-4.0" type="curve" smooth="yes"/>
      <point x="830.7333333333333" y="-4.0"/>
      <point x="926.5666666666667" y="79.96666666666667"/>
      <point x="926.5666666666667" y="236.3" type="curve" smooth="yes"/>
      <point x="926.5666666666667" y="473.43333333333334"/>
      <point x="704.3000000000001" y="586.4333333333333"/>
      <point x="476.8" y="586.4333333333333" type="curve" smooth="yes"/>
      <point x="239.43333333333334" y="586.4333333333333"/>
      <point x="35.86666666666667" y="432.43333333333334"/>
      <point x="35.86666666666667" y="228.56666666666666" type="curve" smooth="yes"/>
      <point x="35.86666666666667" y="96.63333333333334"/>
      <point x="121.56666666666666" y="-5.0"/>
    </contour>
    <contour>
      <point x="991.0" y="0.0" type="line"/>
      <point x="1195.7666666666667" y="0.0" type="line"/>
      <point x="1312.0333333333333" y="546.4333333333333" type="line"/>
      <point x="1106.6333333333334" y="546.4333333333333" type="line"/>
    </contour>
  </outline>
</glyph>
<glyph name="pa-tamil" format="2">
  <advance width="910.2"/>
  <unicode hex="0BAA"/>
  <note>
uni0BAA
</note>
  <anchor x="398.73333333333335" y="0.0" name="bottom"/>
  <anchor x="897.0666666666667" y="581.0666666666667" name="imatra"/>
  <anchor x="398.73333333333335" y="0.0" name="nukta"/>
  <anchor x="524.7333333333333" y="581.0666666666667" name="top"/>
  <anchor x="518.9" y="581.0666666666667" name="vedic"/>
  <outline>
    <contour>
      <point x="4.5" y="0.0" type="line"/>
      <point x="782.4333333333334" y="0.0" type="line"/>
      <point x="905.7" y="581.0666666666667" type="line"/>
      <point x="708.1" y="581.0666666666667" type="line"/>
      <point x="600.1" y="72.06666666666666" type="line"/>
      <point x="219.73333333333335" y="72.06666666666666" type="line"/>
      <point x="327.73333333333335" y="581.0666666666667" type="line"/>
      <point x="127.76666666666667" y="581.0666666666667" type="line"/>
    </contour>
  </outline>
</glyph>
<glyph name="ma-tamil" format="2">
  <advance width="898.7666666666667"/>
  <unicode hex="0BAE"/>
  <note>
uni0BAE
</note>
  <anchor x="377.59999999999997" y="0.0" name="bottom"/>
  <anchor x="906.9" y="581.0666666666667" name="imatra"/>
  <anchor x="378.59999999999997" y="0.0" name="nukta"/>
  <anchor x="515.9333333333333" y="581.0666666666667" name="top"/>
  <anchor x="524.4" y="581.0666666666667" name="vedic"/>
  <outline>
    <contour>
      <point x="4.5" y="0.0" type="line"/>
      <point x="626.4666666666667" y="0.0" type="line" smooth="yes"/>
      <point x="787.5666666666667" y="0.0"/>
      <point x="849.8333333333334" y="162.03333333333333"/>
      <point x="849.8333333333334" y="339.1666666666667" type="curve" smooth="yes"/>
      <point x="849.8333333333334" y="491.06666666666666"/>
      <point x="782.8000000000001" y="586.4333333333333"/>
      <point x="648.7" y="586.4333333333333" type="curve" smooth="yes"/>
      <point x="524.6" y="586.4333333333333"/>
      <point x="456.3333333333333" y="513.7"/>
      <point x="433.2666666666667" y="403.0" type="curve" smooth="yes"/>
      <point x="362.96666666666664" y="72.06666666666666" type="line"/>
      <point x="219.10000000000002" y="72.06666666666666" type="line"/>
      <point x="327.1" y="581.0666666666667" type="line"/>
      <point x="127.76666666666667" y="581.0666666666667" type="line"/>
    </contour>
    <contour>
      <point x="563.9333333333334" y="72.06666666666666" type="line"/>
      <point x="635.8666666666667" y="412.1666666666667" type="line" smooth="yes"/>
      <point x="647.6666666666667" y="470.1666666666667"/>
      <point x="663.1" y="493.5"/>
      <point x="699.1333333333334" y="493.5" type="curve" smooth="yes"/>
      <point x="743.5999999999999" y="493.5"/>
      <point x="773.7666666666668" y="441.93333333333334"/>
      <point x="773.7666666666668" y="328.3666666666667" type="curve" smooth="yes"/>
      <point x="773.7666666666668" y="207.8"/>
      <point x="735.6666666666666" y="72.06666666666666"/>
      <point x="637.0999999999999" y="72.06666666666666" type="curve" smooth="yes"/>
    </contour>
  </outline>
</glyph>
<glyph name="ya-tamil" format="2">
  <advance width="1034.1"/>
  <unicode hex="0BAF"/>
  <note>
uni0BAF
</note>
  <anchor x="457.43333333333334" y="0.0" name="bottom"/>
  <anchor x="1022.9000000000001" y="581.0666666666667" name="imatra"/>
  <anchor x="453.7" y="0.0" name="nukta"/>
  <anchor x="564.5" y="581.0666666666667" name="top"/>
  <anchor x="566.0333333333334" y="581.0666666666667" name="vedic"/>
  <outline>
    <contour>
      <point x="181.8" y="-12.633333333333333" type="curve" smooth="yes"/>
      <point x="251.63333333333335" y="-12.633333333333333"/>
      <point x="300.8" y="12.899999999999999"/>
      <point x="343.5" y="57.53333333333333" type="curve"/>
      <point x="330.8666666666667" y="0.0" type="line"/>
      <point x="906.3333333333334" y="0.0" type="line"/>
      <point x="1029.6" y="581.0666666666667" type="line"/>
      <point x="829.6333333333333" y="581.0666666666667" type="line"/>
      <point x="721.2666666666667" y="72.06666666666666" type="line"/>
      <point x="516.9333333333334" y="72.06666666666666" type="line"/>
      <point x="624.9333333333334" y="581.0666666666667" type="line"/>
      <point x="432.6" y="581.0666666666667" type="line"/>
      <point x="339.23333333333335" y="140.5" type="line" smooth="yes"/>
      <point x="331.23333333333335" y="102.13333333333334"/>
      <point x="306.1666666666667" y="83.7"/>
      <point x="276.83333333333337" y="83.7" type="curve" smooth="yes"/>
      <point x="241.96666666666667" y="83.7"/>
      <point x="224.63333333333335" y="107.86666666666667"/>
      <point x="235.63333333333335" y="158.23333333333335" type="curve" smooth="yes"/>
      <point x="325.0" y="581.0666666666667" type="line"/>
      <point x="125.76666666666667" y="581.0666666666667" type="line"/>
      <point x="41.3" y="185.1" type="line" smooth="yes"/>
      <point x="15.033333333333333" y="61.5"/>
      <point x="81.16666666666667" y="-12.633333333333333"/>
    </contour>
  </outline>
</glyph>
<glyph name="ra-tamil" format="2">
  <advance width="643.4666666666667"/>
  <unicode hex="0BB0"/>
  <note>
uni0BB0
</note>
  <anchor x="253.63333333333335" y="0.0" name="bottom"/>
  <anchor x="620.0999999999999" y="581.0666666666667" name="imatra"/>
  <anchor x="198.73333333333332" y="-260.5" name="nukta"/>
  <anchor x="397.1666666666667" y="581.0666666666667" name="top"/>
  <anchor x="411.59999999999997" y="581.0666666666667" name="vedic"/>
  <outline>
    <contour>
      <point x="23.266666666666666" y="-273.6333333333333" type="line"/>
      <point x="455.2666666666667" y="29.233333333333334" type="line"/>
      <point x="556.9666666666667" y="509.0" type="line"/>
      <point x="677.2" y="509.0" type="line"/>
      <point x="692.4666666666667" y="581.0666666666667" type="line"/>
      <point x="134.73333333333332" y="581.0666666666667" type="line"/>
      <point x="11.466666666666667" y="0.0" type="line"/>
      <point x="89.43333333333332" y="0.0" type="line"/>
      <point x="197.43333333333334" y="509.0" type="line"/>
      <point x="358.26666666666665" y="509.0" type="line"/>
      <point x="244.63333333333333" y="-27.633333333333333" type="line"/>
      <point x="-18.200000000000003" y="-210.96666666666667" type="line"/>
    </contour>
  </outline>
</glyph>
<glyph name="la-tamil" format="2">
  <advance width="1089.5"/>
  <unicode hex="0BB2"/>
  <note>
uni0BB2
</note>
  <anchor x="479.4666666666667" y="0.0" name="bottom"/>
  <anchor x="476.4666666666667" y="0.0" name="nukta"/>
  <anchor x="591.2666666666667" y="581.0666666666667" name="top"/>
  <anchor x="605.1" y="581.0666666666667" name="vedic"/>
  <outline>
    <contour>
      <point x="250.76666666666668" y="-5.0" type="curve" smooth="yes"/>
      <point x="372.2666666666667" y="-5.0"/>
      <point x="471.73333333333335" y="71.03333333333333"/>
      <point x="471.73333333333335" y="202.0" type="curve" smooth="yes"/>
      <point x="471.73333333333335" y="290.43333333333334"/>
      <point x="415.1333333333334" y="349.6"/>
      <point x="319.56666666666666" y="349.6" type="curve" smooth="yes"/>
      <point x="203.8" y="349.6"/>
      <point x="123.23333333333333" y="249.4"/>
      <point x="96.86666666666667" y="135.83333333333331" type="curve"/>
      <point x="137.9" y="104.1" type="line"/>
      <point x="159.86666666666667" y="184.03333333333333"/>
      <point x="192.9333333333333" y="231.83333333333334"/>
      <point x="241.13333333333333" y="231.83333333333334" type="curve" smooth="yes"/>
      <point x="274.2" y="231.83333333333334"/>
      <point x="293.73333333333335" y="204.83333333333331"/>
      <point x="293.73333333333335" y="171.46666666666667" type="curve" smooth="yes"/>
      <point x="293.73333333333335" y="119.16666666666667"/>
      <point x="263.7333333333333" y="83.96666666666667"/>
      <point x="211.23333333333335" y="83.96666666666667" type="curve" smooth="yes"/>
      <point x="162.9" y="83.96666666666667"/>
      <point x="114.56666666666666" y="143.16666666666666"/>
      <point x="114.56666666666666" y="237.63333333333333" type="curve" smooth="yes"/>
      <point x="114.56666666666666" y="388.8333333333333"/>
      <point x="245.0" y="502.73333333333335"/>
      <point x="402.7" y="502.73333333333335" type="curve" smooth="yes"/>
      <point x="547.4333333333333" y="502.73333333333335"/>
      <point x="605.6333333333333" y="413.3666666666667"/>
      <point x="571.4666666666667" y="269.76666666666665" type="curve" smooth="yes"/>
      <point x="555.4333333333334" y="201.33333333333331" type="line" smooth="yes"/>
      <point x="525.3666666666667" y="74.5"/>
      <point x="603.6333333333333" y="-5.0"/>
      <point x="734.5666666666667" y="-5.0" type="curve" smooth="yes"/>
      <point x="927.0333333333334" y="-5.0"/>
      <point x="1055.4333333333332" y="161.36666666666667"/>
      <point x="1055.4333333333332" y="368.93333333333334" type="curve" smooth="yes"/>
      <point x="1055.4333333333332" y="457.43333333333334"/>
      <point x="1032.1000000000001" y="521.5333333333333"/>
      <point x="1000.7666666666667" y="585.4333333333333" type="curve"/>
      <point x="929.2333333333333" y="551.0999999999999" type="line"/>
      <point x="956.6666666666666" y="492.56666666666666"/>
      <point x="977.1" y="435.0"/>
      <point x="977.1" y="363.93333333333334" type="curve" smooth="yes"/>
      <point x="977.1" y="204.26666666666668"/>
      <point x="881.8" y="86.16666666666667"/>
      <point x="798.5666666666667" y="86.16666666666667" type="curve" smooth="yes"/>
      <point x="747.1" y="86.16666666666667"/>
      <point x="741.8666666666667" y="129.5"/>
      <point x="757.5666666666667" y="194.76666666666665" type="curve" smooth="yes"/>
      <point x="777.7" y="278.9666666666667" type="line" smooth="yes"/>
      <point x="828.9333333333333" y="488.6666666666667"/>
      <point x="680.4666666666667" y="586.0666666666667"/>
      <point x="462.56666666666666" y="586.0666666666667" type="curve" smooth="yes"/>
      <point x="215.26666666666668" y="586.0666666666667"/>
      <point x="36.86666666666667" y="435.59999999999997"/>
      <point x="36.86666666666667" y="228.56666666666666" type="curve" smooth="yes"/>
      <point x="36.86666666666667" y="96.63333333333334"/>
      <point x="122.56666666666668" y="-5.0"/>
    </contour>
  </outline>
</glyph>
<glyph name="lla-tamil" format="2">
  <advance width="1318.1666666666667"/>
  <unicode hex="0BB3"/>
  <note>
uni0BB3
</note>
  <anchor x="559.1333333333333" y="0.0" name="bottom"/>
  <anchor x="1226.2" y="581.0666666666667" name="imatra"/>
  <anchor x="549.7333333333333" y="0.0" name="nukta"/>
  <anchor x="696.4" y="581.0666666666667" name="top"/>
  <anchor x="739.9333333333334" y="581.0666666666667" name="vedic"/>
  <outline>
    <contour>
      <point x="251.76666666666668" y="-5.0" type="curve" smooth="yes"/>
      <point x="373.26666666666665" y="-5.0"/>
      <point x="472.73333333333335" y="71.03333333333333"/>
      <point x="472.73333333333335" y="202.0" type="curve" smooth="yes"/>
      <point x="472.73333333333335" y="290.43333333333334"/>
      <point x="416.1333333333333" y="349.6"/>
      <point x="320.56666666666666" y="349.6" type="curve" smooth="yes"/>
      <point x="204.8" y="349.6"/>
      <point x="124.23333333333333" y="249.4"/>
      <point x="97.86666666666667" y="135.83333333333331" type="curve"/>
      <point x="138.9" y="104.1" type="line"/>
      <point x="160.86666666666667" y="184.03333333333333"/>
      <point x="193.93333333333334" y="231.83333333333334"/>
      <point x="242.13333333333335" y="231.83333333333334" type="curve" smooth="yes"/>
      <point x="275.20000000000005" y="231.83333333333334"/>
      <point x="294.73333333333335" y="204.83333333333331"/>
      <point x="294.73333333333335" y="171.46666666666667" type="curve" smooth="yes"/>
      <point x="294.73333333333335" y="119.16666666666667"/>
      <point x="264.73333333333335" y="83.96666666666667"/>
      <point x="212.23333333333332" y="83.96666666666667" type="curve" smooth="yes"/>
      <point x="163.9" y="83.96666666666667"/>
      <point x="115.56666666666666" y="143.16666666666666"/>
      <point x="115.56666666666666" y="237.63333333333333" type="curve" smooth="yes"/>
      <point x="115.56666666666666" y="386.93333333333334"/>
      <point x="226.43333333333334" y="501.6333333333333"/>
      <point x="398.00000000000006" y="501.6333333333333" type="curve" smooth="yes"/>
      <point x="553.9" y="501.6333333333333"/>
      <point x="643.3666666666667" y="408.76666666666665"/>
      <point x="615.4666666666667" y="273.66666666666663" type="curve"/>
      <point x="697.5" y="290.93333333333334" type="line"/>
      <point x="724.3000000000001" y="481.73333333333335"/>
      <point x="581.8" y="586.0666666666667"/>
      <point x="402.73333333333335" y="586.0666666666667" type="curve" smooth="yes"/>
      <point x="186.29999999999998" y="586.0666666666667"/>
      <point x="37.86666666666666" y="428.6333333333333"/>
      <point x="37.86666666666666" y="228.56666666666666" type="curve" smooth="yes"/>
      <point x="37.86666666666666" y="96.63333333333334"/>
      <point x="123.56666666666668" y="-5.0"/>
    </contour>
    <contour>
      <point x="556.5333333333333" y="0.0" type="line"/>
      <point x="759.3000000000001" y="0.0" type="line"/>
      <point x="867.3000000000001" y="509.0" type="line"/>
      <point x="1028.9" y="509.0" type="line"/>
      <point x="920.2666666666667" y="0.0" type="line"/>
      <point x="1124.0333333333335" y="0.0" type="line"/>
      <point x="1232.0333333333333" y="509.0" type="line"/>
      <point x="1351.8999999999999" y="509.0" type="line"/>
      <point x="1367.1666666666667" y="581.0666666666667" type="line"/>
      <point x="730.4000000000001" y="581.0666666666667" type="line"/>
      <point x="674.5999999999999" y="314.0" type="line"/>
      <point x="628.3666666666667" y="335.9" type="line"/>
    </contour>
  </outline>
</glyph>
<glyph name="va-tamil" format="2">
  <advance width="1153.5666666666668"/>
  <unicode hex="0BB5"/>
  <note>
uni0BB5
</note>
  <anchor x="547.2666666666667" y="0.0" name="bottom"/>
  <anchor x="964.2333333333333" y="581.0666666666667" name="imatra"/>
  <anchor x="537.5333333333334" y="0.0" name="nukta"/>
  <anchor x="647.7" y="581.0666666666667" name="top"/>
  <anchor x="645.9333333333334" y="581.0666666666667" name="vedic"/>
  <outline>
    <contour>
      <point x="250.13333333333333" y="-5.0" type="curve" smooth="yes"/>
      <point x="371.6333333333334" y="-5.0"/>
      <point x="471.1" y="71.03333333333333"/>
      <point x="471.1" y="202.0" type="curve" smooth="yes"/>
      <point x="471.1" y="290.43333333333334"/>
      <point x="414.5" y="349.6"/>
      <point x="318.93333333333334" y="349.6" type="curve" smooth="yes"/>
      <point x="203.16666666666669" y="349.6"/>
      <point x="122.60000000000001" y="249.4"/>
      <point x="96.23333333333333" y="135.83333333333331" type="curve"/>
      <point x="137.26666666666668" y="104.1" type="line"/>
      <point x="159.23333333333332" y="184.03333333333333"/>
      <point x="192.29999999999998" y="231.83333333333334"/>
      <point x="240.5" y="231.83333333333334" type="curve" smooth="yes"/>
      <point x="273.56666666666666" y="231.83333333333334"/>
      <point x="293.1" y="204.83333333333331"/>
      <point x="293.1" y="171.46666666666667" type="curve" smooth="yes"/>
      <point x="293.1" y="119.16666666666667"/>
      <point x="263.09999999999997" y="83.96666666666667"/>
      <point x="210.60000000000002" y="83.96666666666667" type="curve" smooth="yes"/>
      <point x="162.26666666666665" y="83.96666666666667"/>
      <point x="113.93333333333334" y="143.16666666666666"/>
      <point x="113.93333333333334" y="237.63333333333333" type="curve" smooth="yes"/>
      <point x="113.93333333333334" y="376.1666666666667"/>
      <point x="246.4" y="504.0"/>
      <point x="395.8666666666667" y="504.0" type="curve" smooth="yes"/>
      <point x="523.5333333333333" y="504.0"/>
      <point x="600.6333333333334" y="436.3333333333333"/>
      <point x="600.6333333333334" y="301.3" type="curve" smooth="yes"/>
      <point x="600.6333333333334" y="208.26666666666665"/>
      <point x="563.6333333333333" y="124.93333333333332"/>
      <point x="507.26666666666665" y="49.266666666666666" type="curve"/>
      <point x="522.0" y="0.0" type="line"/>
      <point x="1025.8000000000002" y="0.0" type="line"/>
      <point x="1149.0666666666668" y="581.0666666666667" type="line"/>
      <point x="949.7333333333333" y="581.0666666666667" type="line"/>
      <point x="841.3666666666667" y="72.06666666666666" type="line"/>
      <point x="650.7666666666668" y="72.06666666666666" type="line"/>
      <point x="730.5" y="131.63333333333333"/>
      <point x="798.2333333333333" y="215.6"/>
      <point x="798.2333333333333" y="331.8666666666667" type="curve" smooth="yes"/>
      <point x="798.2333333333333" y="506.56666666666666"/>
      <point x="645.1333333333333" y="586.4333333333333"/>
      <point x="452.3333333333333" y="586.4333333333333" type="curve" smooth="yes"/>
      <point x="213.76666666666665" y="586.4333333333333"/>
      <point x="36.233333333333334" y="419.76666666666665"/>
      <point x="36.233333333333334" y="228.56666666666666" type="curve" smooth="yes"/>
      <point x="36.233333333333334" y="96.63333333333334"/>
      <point x="121.93333333333334" y="-5.0"/>
    </contour>
  </outline>
</glyph>
<glyph name="sha-tamil" format="2">
  <advance width="1137.1666666666667"/>
  <unicode hex="0BB6"/>
  <note>
uni0BB6
</note>
  <anchor x="505.73333333333335" y="0.0" name="bottom"/>
  <anchor x="976.4666666666667" y="581.0666666666667" name="imatra"/>
  <anchor x="505.73333333333335" y="0.0" name="nukta"/>
  <anchor x="629.6333333333333" y="581.0666666666667" name="top"/>
  <anchor x="639.6333333333333" y="581.0666666666667" name="vedic"/>
  <outline>
    <contour>
      <point x="246.96666666666667" y="-5.0" type="curve" smooth="yes"/>
      <point x="383.0" y="-5.0"/>
      <point x="470.76666666666665" y="52.86666666666667"/>
      <point x="501.6666666666667" y="198.00000000000003" type="curve" smooth="yes"/>
      <point x="568.2333333333333" y="509.0" type="line"/>
      <point x="692.4" y="509.0" type="line"/>
      <point x="627.4666666666666" y="203.16666666666666" type="line" smooth="yes"/>
      <point x="600.3" y="75.86666666666667"/>
      <point x="645.4333333333334" y="-5.633333333333334"/>
      <point x="773.4333333333334" y="-5.633333333333334" type="curve" smooth="yes"/>
      <point x="989.9" y="-5.633333333333334"/>
      <point x="1111.7666666666667" y="230.9"/>
      <point x="1111.7666666666667" y="435.03333333333336" type="curve" smooth="yes"/>
      <point x="1111.7666666666667" y="529.2"/>
      <point x="1066.7" y="581.0666666666667"/>
      <point x="975.7333333333333" y="581.0666666666667" type="curve" smooth="yes"/>
      <point x="504.6333333333333" y="581.0666666666667" type="line"/>
      <point x="425.1666666666667" y="206.63333333333333" type="line" smooth="yes"/>
      <point x="406.5333333333333" y="118.10000000000001"/>
      <point x="367.8333333333333" y="84.43333333333334"/>
      <point x="312.6333333333333" y="84.43333333333334" type="curve" smooth="yes"/>
      <point x="248.06666666666666" y="84.43333333333334"/>
      <point x="230.73333333333335" y="137.76666666666665"/>
      <point x="245.36666666666667" y="207.93333333333334" type="curve" smooth="yes"/>
      <point x="325.1" y="581.0666666666667" type="line"/>
      <point x="126.13333333333334" y="581.0666666666667" type="line"/>
      <point x="50.93333333333334" y="227.26666666666668" type="line" smooth="yes"/>
      <point x="20.4" y="82.96666666666667"/>
      <point x="101.66666666666667" y="-5.0"/>
    </contour>
    <contour>
      <point x="849.6666666666667" y="88.46666666666667" type="curve" smooth="yes"/>
      <point x="810.0" y="88.46666666666667"/>
      <point x="810.1" y="125.8"/>
      <point x="825.1666666666667" y="194.7" type="curve" smooth="yes"/>
      <point x="892.7333333333333" y="510.0" type="line"/>
      <point x="964.3333333333333" y="510.0" type="line" smooth="yes"/>
      <point x="1015.0666666666666" y="510.0"/>
      <point x="1035.0666666666666" y="481.5"/>
      <point x="1035.0666666666666" y="422.23333333333335" type="curve" smooth="yes"/>
      <point x="1035.0666666666666" y="297.5"/>
      <point x="950.8333333333333" y="88.46666666666667"/>
    </contour>
  </outline>
</glyph>
<glyph name="ssa-tamil" format="2">
  <advance width="1576.3"/>
  <unicode hex="0BB7"/>
  <note>
uni0BB7
</note>
  <anchor x="731.8666666666667" y="0.0" name="bottom"/>
  <anchor x="586.5333333333334" y="0.0" name="nukta"/>
  <anchor x="882.5666666666667" y="581.0666666666667" name="top"/>
  <anchor x="855.1333333333333" y="581.0666666666667" name="vedic"/>
  <outline>
    <contour>
      <point x="250.13333333333333" y="-5.0" type="curve" smooth="yes"/>
      <point x="371.6333333333334" y="-5.0"/>
      <point x="471.1" y="71.03333333333333"/>
      <point x="471.1" y="202.0" type="curve" smooth="yes"/>
      <point x="471.1" y="290.43333333333334"/>
      <point x="414.5" y="349.6"/>
      <point x="318.93333333333334" y="349.6" type="curve" smooth="yes"/>
      <point x="203.16666666666669" y="349.6"/>
      <point x="122.60000000000001" y="249.4"/>
      <point x="96.23333333333333" y="135.83333333333331" type="curve"/>
      <point x="137.26666666666668" y="104.1" type="line"/>
      <point x="159.23333333333332" y="184.03333333333333"/>
      <point x="192.29999999999998" y="231.83333333333334"/>
      <point x="240.5" y="231.83333333333334" type="curve" smooth="yes"/>
      <point x="273.56666666666666" y="231.83333333333334"/>
      <point x="293.1" y="204.83333333333331"/>
      <point x="293.1" y="171.46666666666667" type="curve" smooth="yes"/>
      <point x="293.1" y="119.16666666666667"/>
      <point x="263.09999999999997" y="83.96666666666667"/>
      <point x="210.60000000000002" y="83.96666666666667" type="curve" smooth="yes"/>
      <point x="162.26666666666665" y="83.96666666666667"/>
      <point x="113.93333333333334" y="143.16666666666666"/>
      <point x="113.93333333333334" y="237.63333333333333" type="curve" smooth="yes"/>
      <point x="113.93333333333334" y="376.1666666666667"/>
      <point x="243.23333333333332" y="504.0"/>
      <point x="389.53333333333336" y="504.0" type="curve" smooth="yes"/>
      <point x="514.0333333333334" y="504.0"/>
      <point x="600.6333333333334" y="436.3333333333333"/>
      <point x="600.6333333333334" y="301.3" type="curve" smooth="yes"/>
      <point x="600.6333333333334" y="208.26666666666665"/>
      <point x="563.6333333333333" y="124.93333333333332"/>
      <point x="507.26666666666665" y="49.266666666666666" type="curve"/>
      <point x="522.0" y="0.0" type="line"/>
      <point x="1473.8333333333333" y="0.0" type="line"/>
      <point x="1546.3666666666668" y="338.93333333333334" type="line"/>
      <point x="1353.0333333333333" y="293.3666666666667" type="line"/>
      <point x="1305.8666666666668" y="72.06666666666666" type="line"/>
      <point x="650.7666666666668" y="72.06666666666666" type="line"/>
      <point x="730.5" y="131.63333333333333"/>
      <point x="798.2333333333333" y="213.06666666666666"/>
      <point x="798.2333333333333" y="329.3333333333333" type="curve" smooth="yes"/>
      <point x="798.2333333333333" y="504.03333333333336"/>
      <point x="635.6333333333333" y="586.4333333333333"/>
      <point x="446.0" y="586.4333333333333" type="curve" smooth="yes"/>
      <point x="207.43333333333334" y="586.4333333333333"/>
      <point x="36.233333333333334" y="422.93333333333334"/>
      <point x="36.233333333333334" y="228.56666666666666" type="curve" smooth="yes"/>
      <point x="36.233333333333334" y="96.63333333333334"/>
      <point x="121.93333333333334" y="-5.0"/>
    </contour>
    <contour>
      <point x="926.4" y="-313.0" type="line"/>
      <point x="1111.1000000000001" y="-313.0" type="line"/>
      <point x="1258.2666666666667" y="378.93333333333334" type="line" smooth="yes"/>
      <point x="1284.7" y="501.83333333333337"/>
      <point x="1235.9333333333334" y="586.4333333333333"/>
      <point x="1111.9333333333332" y="586.4333333333333" type="curve" smooth="yes"/>
      <point x="977.8333333333334" y="586.4333333333333"/>
      <point x="894.4666666666667" y="487.73333333333335"/>
      <point x="894.4666666666667" y="379.6666666666667" type="curve" smooth="yes"/>
      <point x="894.4666666666667" y="264.1333333333333"/>
      <point x="984.0999999999999" y="195.66666666666666"/>
      <point x="1125.7333333333333" y="195.66666666666666" type="curve" smooth="yes"/>
      <point x="1276.0" y="195.66666666666666"/>
      <point x="1396.0666666666666" y="253.66666666666663"/>
      <point x="1545.0" y="333.20000000000005" type="curve"/>
      <point x="1546.6333333333334" y="343.56666666666666" type="line"/>
      <point x="1513.5" y="402.06666666666666" type="line"/>
      <point x="1371.7666666666667" y="321.56666666666666"/>
      <point x="1246.8" y="267.6333333333333"/>
      <point x="1132.7333333333333" y="267.6333333333333" type="curve" smooth="yes"/>
      <point x="1030.3333333333333" y="267.6333333333333"/>
      <point x="969.9666666666667" y="308.2"/>
      <point x="969.9666666666667" y="386.59999999999997" type="curve" smooth="yes"/>
      <point x="969.9666666666667" y="429.8"/>
      <point x="994.7" y="473.73333333333335"/>
      <point x="1035.3333333333333" y="473.73333333333335" type="curve" smooth="yes"/>
      <point x="1071.3" y="473.73333333333335"/>
      <point x="1087.1" y="442.3"/>
      <point x="1076.5666666666666" y="394.26666666666665" type="curve" smooth="yes"/>
    </contour>
  </outline>
</glyph>
<glyph name="sa-tamil" format="2">
  <advance width="1430.9666666666667"/>
  <unicode hex="0BB8"/>
  <note>
uni0BB8
</note>
  <anchor x="676.6999999999999" y="0.0" name="bottom"/>
  <anchor x="674.8666666666667" y="0.0" name="nukta"/>
  <anchor x="784.7333333333333" y="581.0666666666667" name="top"/>
  <anchor x="784.5666666666666" y="581.0666666666667" name="vedic"/>
  <outline>
    <contour>
      <point x="522.6666666666666" y="0.0" type="line"/>
      <point x="726.3333333333334" y="0.0" type="line"/>
      <point x="817.8000000000001" y="430.59999999999997" type="line" smooth="yes"/>
      <point x="829.8000000000001" y="485.9666666666667"/>
      <point x="851.7" y="509.0"/>
      <point x="893.7333333333332" y="509.0" type="curve" smooth="yes"/>
      <point x="934.1333333333333" y="509.0"/>
      <point x="955.4" y="477.4"/>
      <point x="943.5" y="423.5333333333333" type="curve" smooth="yes"/>
      <point x="894.3666666666667" y="201.33333333333331" type="line" smooth="yes"/>
      <point x="866.5666666666666" y="73.86666666666667"/>
      <point x="942.5666666666667" y="-5.0"/>
      <point x="1073.5" y="-5.0" type="curve" smooth="yes"/>
      <point x="1274.1999999999998" y="-5.0"/>
      <point x="1394.3666666666668" y="153.13333333333333"/>
      <point x="1394.3666666666668" y="360.7" type="curve" smooth="yes"/>
      <point x="1394.3666666666668" y="449.20000000000005"/>
      <point x="1371.0333333333333" y="520.2666666666667"/>
      <point x="1341.6" y="584.8" type="curve"/>
      <point x="1268.8" y="551.7333333333332" type="line"/>
      <point x="1294.9666666666667" y="492.56666666666666"/>
      <point x="1316.0333333333335" y="426.76666666666665"/>
      <point x="1316.0333333333335" y="355.7" type="curve" smooth="yes"/>
      <point x="1316.0333333333335" y="196.03333333333336"/>
      <point x="1227.0666666666668" y="86.16666666666667"/>
      <point x="1137.5" y="86.16666666666667" type="curve" smooth="yes"/>
      <point x="1086.0333333333333" y="86.16666666666667"/>
      <point x="1082.0666666666666" y="128.86666666666667"/>
      <point x="1096.5000000000002" y="194.76666666666665" type="curve" smooth="yes"/>
      <point x="1135.6333333333334" y="373.96666666666664" type="line" smooth="yes"/>
      <point x="1167.4333333333332" y="517.4333333333334"/>
      <point x="1054.7333333333333" y="584.4333333333333"/>
      <point x="919.0666666666667" y="584.4333333333333" type="curve" smooth="yes"/>
      <point x="787.9" y="584.4333333333333"/>
      <point x="682.0666666666667" y="522.8666666666667"/>
      <point x="659.7" y="422.4" type="curve" smooth="yes"/>
      <point x="644.3333333333334" y="352.3" type="line"/>
      <point x="597.4" y="352.3" type="line"/>
    </contour>
    <contour>
      <point x="250.76666666666668" y="-5.0" type="curve" smooth="yes"/>
      <point x="372.26666666666665" y="-5.0"/>
      <point x="471.73333333333335" y="71.03333333333333"/>
      <point x="471.73333333333335" y="202.0" type="curve" smooth="yes"/>
      <point x="471.73333333333335" y="290.43333333333334"/>
      <point x="415.1333333333333" y="349.6"/>
      <point x="319.56666666666666" y="349.6" type="curve" smooth="yes"/>
      <point x="203.79999999999998" y="349.6"/>
      <point x="123.23333333333332" y="249.4"/>
      <point x="96.86666666666666" y="135.83333333333331" type="curve"/>
      <point x="137.89999999999998" y="104.1" type="line"/>
      <point x="159.86666666666667" y="184.03333333333333"/>
      <point x="192.93333333333334" y="231.83333333333334"/>
      <point x="241.13333333333333" y="231.83333333333334" type="curve" smooth="yes"/>
      <point x="274.2" y="231.83333333333334"/>
      <point x="293.73333333333335" y="204.83333333333331"/>
      <point x="293.73333333333335" y="171.46666666666667" type="curve" smooth="yes"/>
      <point x="293.73333333333335" y="119.16666666666667"/>
      <point x="263.73333333333335" y="83.96666666666667"/>
      <point x="211.23333333333332" y="83.96666666666667" type="curve" smooth="yes"/>
      <point x="162.9" y="83.96666666666667"/>
      <point x="114.56666666666668" y="143.16666666666666"/>
      <point x="114.56666666666668" y="237.63333333333333" type="curve" smooth="yes"/>
      <point x="114.56666666666668" y="386.93333333333334"/>
      <point x="238.66666666666669" y="504.6333333333333"/>
      <point x="401.43333333333334" y="504.6333333333333" type="curve" smooth="yes"/>
      <point x="544.3666666666667" y="504.6333333333333"/>
      <point x="613.6666666666666" y="426.6333333333333"/>
      <point x="583.1333333333333" y="284.96666666666664" type="curve"/>
      <point x="672.2333333333332" y="290.2" type="line"/>
      <point x="707.4000000000001" y="504.93333333333334"/>
      <point x="564.6666666666667" y="584.8"/>
      <point x="415.73333333333335" y="584.8" type="curve" smooth="yes"/>
      <point x="204.66666666666666" y="584.8"/>
      <point x="36.86666666666667" y="424.96666666666664"/>
      <point x="36.86666666666667" y="228.56666666666666" type="curve" smooth="yes"/>
      <point x="36.86666666666667" y="96.63333333333334"/>
      <point x="122.56666666666666" y="-5.0"/>
    </contour>
  </outline>
</glyph>
<glyph name="aaMatra-tamil" format="2">
  <advance width="633.3333333333334"/>
  <unicode hex="0BBE"/>
  <note>
uni0BBE
</note>
  <anchor x="269.6666666666667" y="0.0" name="bottom"/>
  <anchor x="268.6666666666667" y="0.0" name="nukta"/>
  <anchor x="385.93333333333334" y="581.0666666666667" name="top"/>
  <anchor x="385.93333333333334" y="581.0666666666667" name="vedic"/>
  <outline>
    <contour>
      <point x="4.5" y="0.0" type="line"/>
      <point x="82.46666666666665" y="0.0" type="line"/>
      <point x="190.46666666666667" y="509.0" type="line"/>
      <point x="351.93333333333334" y="509.0" type="line"/>
      <point x="243.3" y="0.0" type="line"/>
      <point x="444.5333333333333" y="0.0" type="line"/>
      <point x="552.5333333333334" y="509.0" type="line"/>
      <point x="667.0666666666666" y="509.0" type="line"/>
      <point x="681.6999999999999" y="581.0666666666667" type="line"/>
      <point x="127.76666666666667" y="581.0666666666667" type="line"/>
    </contour>
  </outline>
</glyph>
<glyph name="iMatra-tamil" format="2">
  <advance width="209.1"/>
  <unicode hex="0BBF"/>
  <note>
uni0BBF
</note>
  <anchor x="-54.43333333333334" y="886.5333333333333" name="top"/>
  <outline>
    <contour>
      <point x="-4.2333333333333325" y="0.0" type="line"/>
      <point x="76.26666666666667" y="0.0" type="line"/>
      <point x="194.46666666666667" y="552.6333333333333" type="line" smooth="yes"/>
      <point x="237.70000000000002" y="755.0"/>
      <point x="117.0" y="886.5333333333333"/>
      <point x="-83.03333333333335" y="886.5333333333333" type="curve" smooth="yes"/>
      <point x="-239.8" y="886.5333333333333"/>
      <point x="-362.7" y="796.5666666666666"/>
      <point x="-362.7" y="665.9333333333333" type="curve" smooth="yes"/>
      <point x="-362.7" y="579.5"/>
      <point x="-310.2666666666667" y="519.2333333333333"/>
      <point x="-205.29999999999998" y="519.2333333333333" type="curve" smooth="yes"/>
      <point x="-203.66666666666666" y="519.2333333333333" type="line"/>
      <point x="-190.03333333333336" y="580.4333333333333" type="line"/>
      <point x="-191.66666666666669" y="580.4333333333333" type="line" smooth="yes"/>
      <point x="-231.3" y="580.4333333333333"/>
      <point x="-262.2" y="595.9333333333333"/>
      <point x="-262.2" y="637.3666666666666" type="curve" smooth="yes"/>
      <point x="-262.2" y="696.9333333333333"/>
      <point x="-195.43333333333334" y="737.3"/>
      <point x="-97.93333333333332" y="737.3" type="curve" smooth="yes"/>
      <point x="43.83333333333333" y="737.3"/>
      <point x="134.93333333333334" y="655.5"/>
      <point x="105.23333333333333" y="515.4333333333333" type="curve" smooth="yes"/>
    </contour>
  </outline>
</glyph>
<glyph name="iiMatra-tamil" format="2">
  <unicode hex="0BC0"/>
  <note>
uni0BC0
</note>
  <anchor x="64.63333333333334" y="581.0666666666667" name="_imatra"/>
  <anchor x="112.23333333333333" y="939.1333333333333" name="top"/>
  <outline>
    <contour>
      <point x="27.3" y="509.0" type="curve" smooth="yes"/>
      <point x="47.36666666666667" y="509.0" type="line"/>
      <point x="63.0" y="581.0666666666667" type="line"/>
      <point x="44.46666666666667" y="581.0666666666667" type="line" smooth="yes"/>
      <point x="-29.666666666666668" y="581.0666666666667"/>
      <point x="-74.43333333333334" y="629.9666666666666"/>
      <point x="-74.43333333333334" y="700.6" type="curve" smooth="yes"/>
      <point x="-74.43333333333334" y="790.5"/>
      <point x="-5.633333333333333" y="860.5333333333333"/>
      <point x="93.86666666666667" y="860.5333333333333" type="curve" smooth="yes"/>
      <point x="148.66666666666666" y="860.5333333333333"/>
      <point x="179.53333333333336" y="835.1666666666666"/>
      <point x="179.53333333333336" y="789.4333333333333" type="curve" smooth="yes"/>
      <point x="179.53333333333336" y="746.2666666666667"/>
      <point x="154.56666666666666" y="711.6"/>
      <point x="110.76666666666667" y="711.6" type="curve" smooth="yes"/>
      <point x="41.199999999999996" y="711.6"/>
      <point x="52.56666666666667" y="813.1666666666667"/>
      <point x="102.36666666666666" y="885.0666666666667" type="curve"/>
      <point x="51.4" y="890.0666666666667" type="line"/>
      <point x="-50.699999999999996" y="765.9"/>
      <point x="-16.7" y="614.5333333333333"/>
      <point x="139.93333333333334" y="614.5333333333333" type="curve" smooth="yes"/>
      <point x="233.33333333333334" y="614.5333333333333"/>
      <point x="323.3666666666667" y="676.0"/>
      <point x="323.3666666666667" y="781.0666666666667" type="curve" smooth="yes"/>
      <point x="323.3666666666667" y="885.8333333333334"/>
      <point x="232.0" y="939.1333333333333"/>
      <point x="112.23333333333333" y="939.1333333333333" type="curve" smooth="yes"/>
      <point x="-32.56666666666667" y="939.1333333333333"/>
      <point x="-154.46666666666667" y="838.7666666666667"/>
      <point x="-154.46666666666667" y="691.6999999999999" type="curve" smooth="yes"/>
      <point x="-154.46666666666667" y="580.8333333333333"/>
      <point x="-75.66666666666666" y="509.0"/>
    </contour>
  </outline>
</glyph>
<glyph name="uMatra-tamil" format="2">
  <advance width="551.9"/>
  <unicode hex="0BC1"/>
  <note>
uni0BC1
</note>
  <anchor x="264.8" y="581.0666666666667" name="top"/>
  <outline>
    <contour>
      <point x="314.23333333333335" y="231.9" type="curve" smooth="yes"/>
      <point x="424.59999999999997" y="231.9"/>
      <point x="520.0666666666666" y="276.96666666666664"/>
      <point x="547.2333333333332" y="401.3666666666667" type="curve" smooth="yes"/>
      <point x="586.3333333333333" y="581.0666666666667" type="line"/>
      <point x="-229.66666666666666" y="581.0666666666667" type="line"/>
      <point x="-184.33333333333334" y="509.0" type="line"/>
      <point x="369.4666666666667" y="509.0" type="line"/>
      <point x="346.53333333333336" y="401.6333333333333" type="line" smooth="yes"/>
      <point x="334.2666666666667" y="344.76666666666665"/>
      <point x="307.56666666666666" y="321.53333333333336"/>
      <point x="269.43333333333334" y="321.53333333333336" type="curve" smooth="yes"/>
      <point x="224.56666666666666" y="321.53333333333336"/>
      <point x="208.86666666666667" y="359.8"/>
      <point x="223.13333333333333" y="425.4" type="curve" smooth="yes"/>
      <point x="246.6" y="534.0" type="line"/>
      <point x="169.1" y="534.0" type="line"/>
      <point x="148.63333333333335" y="435.56666666666666" type="line" smooth="yes"/>
      <point x="123.00000000000001" y="310.93333333333334"/>
      <point x="183.26666666666668" y="231.9"/>
    </contour>
  </outline>
</glyph>
<glyph name="uuMatra-tamil" format="2">
  <advance width="896.3"/>
  <unicode hex="0BC2"/>
  <note>
uni0BC2
</note>
  <anchor x="499.26666666666665" y="796.4333333333333" name="top"/>
  <outline>
    <contour>
      <point x="343.43333333333334" y="8.366666666666667" type="curve" smooth="yes"/>
      <point x="618.7666666666668" y="8.366666666666667"/>
      <point x="864.4333333333333" y="183.23333333333332"/>
      <point x="864.4333333333333" y="459.6333333333333" type="curve" smooth="yes"/>
      <point x="864.4333333333333" y="699.8"/>
      <point x="684.3" y="796.4333333333333"/>
      <point x="499.26666666666665" y="796.4333333333333" type="curve" smooth="yes"/>
      <point x="280.7666666666667" y="796.4333333333333"/>
      <point x="167.23333333333332" y="667.1666666666667"/>
      <point x="139.43333333333334" y="535.7666666666667" type="curve" smooth="yes"/>
      <point x="118.23333333333333" y="435.56666666666666" type="line" smooth="yes"/>
      <point x="91.96666666666667" y="310.93333333333334"/>
      <point x="152.86666666666667" y="231.9"/>
      <point x="283.8333333333333" y="231.9" type="curve" smooth="yes"/>
      <point x="394.2" y="231.9"/>
      <point x="489.6666666666667" y="276.96666666666664"/>
      <point x="516.8333333333333" y="401.3666666666667" type="curve" smooth="yes"/>
      <point x="555.9333333333333" y="581.0666666666667" type="line"/>
      <point x="-263.23333333333335" y="581.0666666666667" type="line"/>
      <point x="-224.23333333333332" y="509.0" type="line"/>
      <point x="339.0666666666667" y="509.0" type="line"/>
      <point x="316.1333333333334" y="401.6333333333333" type="line" smooth="yes"/>
      <point x="303.8666666666667" y="344.76666666666665"/>
      <point x="277.1666666666667" y="321.53333333333336"/>
      <point x="239.03333333333333" y="321.53333333333336" type="curve" smooth="yes"/>
      <point x="194.16666666666666" y="321.53333333333336"/>
      <point x="178.20000000000002" y="359.8"/>
      <point x="192.73333333333332" y="425.4" type="curve" smooth="yes"/>
      <point x="216.93333333333334" y="535.7666666666667" type="line" smooth="yes"/>
      <point x="236.56666666666666" y="625.7666666666668"/>
      <point x="306.23333333333335" y="709.7333333333333"/>
      <point x="442.93333333333334" y="709.7333333333333" type="curve" smooth="yes"/>
      <point x="566.2" y="709.7333333333333"/>
      <point x="653.7333333333333" y="639.4666666666667"/>
      <point x="653.7333333333333" y="486.29999999999995" type="curve" smooth="yes"/>
      <point x="653.7333333333333" y="260.5333333333333"/>
      <point x="518.6" y="95.7"/>
      <point x="317.7" y="95.7" type="curve" smooth="yes"/>
      <point x="213.33333333333334" y="95.7"/>
      <point x="127.86666666666666" y="125.9"/>
      <point x="62.6" y="215.66666666666669" type="curve"/>
      <point x="-7.366666666666667" y="159.4" type="line"/>
      <point x="67.8" y="61.36666666666667"/>
      <point x="175.1" y="8.366666666666667"/>
    </contour>
  </outline>
</glyph>
<glyph name="eMatra-tamil" format="2">
  <advance width="822.6"/>
  <unicode hex="0BC6"/>
  <note>
uni0BC6
</note>
  <outline>
    <contour>
      <point x="295.2666666666667" y="-5.0" type="curve" smooth="yes"/>
      <point x="416.76666666666665" y="-5.0"/>
      <point x="517.7" y="71.03333333333333"/>
      <point x="517.7" y="202.0" type="curve" smooth="yes"/>
      <point x="517.7" y="290.43333333333334"/>
      <point x="461.09999999999997" y="349.6"/>
      <point x="365.5333333333333" y="349.6" type="curve" smooth="yes"/>
      <point x="249.76666666666668" y="349.6"/>
      <point x="169.20000000000002" y="249.4"/>
      <point x="142.83333333333334" y="135.83333333333334" type="curve"/>
      <point x="183.86666666666667" y="104.10000000000001" type="line"/>
      <point x="205.83333333333334" y="184.03333333333333"/>
      <point x="238.9" y="231.83333333333334"/>
      <point x="287.09999999999997" y="231.83333333333334" type="curve" smooth="yes"/>
      <point x="320.1666666666667" y="231.83333333333334"/>
      <point x="339.7" y="204.83333333333334"/>
      <point x="339.7" y="171.46666666666667" type="curve" smooth="yes"/>
      <point x="339.7" y="119.16666666666667"/>
      <point x="309.7" y="83.96666666666667"/>
      <point x="257.2" y="83.96666666666667" type="curve" smooth="yes"/>
      <point x="203.73333333333332" y="83.96666666666667"/>
      <point x="142.63333333333333" y="149.73333333333332"/>
      <point x="142.63333333333333" y="304.3" type="curve" smooth="yes"/>
      <point x="142.63333333333333" y="514.6"/>
      <point x="277.46666666666664" y="703.7"/>
      <point x="499.73333333333335" y="703.7" type="curve" smooth="yes"/>
      <point x="648.2666666666667" y="703.7"/>
      <point x="742.0" y="620.9333333333334"/>
      <point x="706.1333333333333" y="449.5" type="curve" smooth="yes"/>
      <point x="611.6333333333333" y="0.0" type="line"/>
      <point x="690.7666666666668" y="0.0" type="line"/>
      <point x="795.2666666666667" y="491.1333333333333" type="line" smooth="yes"/>
      <point x="843.7666666666667" y="719.7333333333332"/>
      <point x="739.9666666666667" y="864.3666666666667"/>
      <point x="523.8333333333334" y="864.3666666666667" type="curve" smooth="yes"/>
      <point x="232.96666666666667" y="864.3666666666667"/>
      <point x="65.3" y="581.5333333333333"/>
      <point x="65.3" y="293.0333333333333" type="curve" smooth="yes"/>
      <point x="65.3" y="103.53333333333333"/>
      <point x="166.33333333333334" y="-5.0"/>
    </contour>
  </outline>
</glyph>
<glyph name="eeMatra-tamil" format="2">
  <advance width="642.0333333333333"/>
  <unicode hex="0BC7"/>
  <note>
uni0BC7
</note>
  <outline>
    <contour>
      <point x="343.06666666666666" y="-5.0" type="curve" smooth="yes"/>
      <point x="469.79999999999995" y="-5.0"/>
      <point x="585.9666666666667" y="67.86666666666666"/>
      <point x="585.9666666666667" y="203.89999999999998" type="curve" smooth="yes"/>
      <point x="585.9666666666667" y="292.96666666666664"/>
      <point x="527.1999999999999" y="349.59999999999997"/>
      <point x="439.96666666666664" y="349.59999999999997" type="curve" smooth="yes"/>
      <point x="312.0" y="349.59999999999997"/>
      <point x="237.4" y="233.53333333333333"/>
      <point x="201.83333333333334" y="111.16666666666667" type="curve"/>
      <point x="245.63333333333333" y="80.89999999999999" type="line"/>
      <point x="273.46666666666664" y="169.53333333333333"/>
      <point x="306.53333333333336" y="231.83333333333334"/>
      <point x="357.09999999999997" y="231.83333333333334" type="curve" smooth="yes"/>
      <point x="388.3666666666667" y="231.83333333333334"/>
      <point x="407.3333333333333" y="208.1"/>
      <point x="407.3333333333333" y="172.73333333333332" type="curve" smooth="yes"/>
      <point x="407.3333333333333" y="117.89999999999999"/>
      <point x="370.3666666666667" y="83.96666666666667"/>
      <point x="319.7666666666667" y="83.96666666666667" type="curve" smooth="yes"/>
      <point x="223.2" y="83.96666666666667"/>
      <point x="153.2" y="195.0"/>
      <point x="153.2" y="360.7666666666667" type="curve" smooth="yes"/>
      <point x="153.2" y="539.8666666666667"/>
      <point x="293.1" y="799.4666666666667"/>
      <point x="461.33333333333337" y="799.4666666666667" type="curve" smooth="yes"/>
      <point x="503.83333333333337" y="799.4666666666667"/>
      <point x="528.2333333333333" y="777.3"/>
      <point x="528.2333333333333" y="732.4" type="curve" smooth="yes"/>
      <point x="528.2333333333333" y="680.5999999999999"/>
      <point x="494.9" y="651.2333333333333"/>
      <point x="460.59999999999997" y="651.2333333333333" type="curve" smooth="yes"/>
      <point x="406.7333333333333" y="651.2333333333333"/>
      <point x="399.96666666666664" y="736.5666666666666"/>
      <point x="406.26666666666665" y="805.8333333333334" type="curve"/>
      <point x="352.8333333333333" y="780.9333333333333" type="line"/>
      <point x="339.1666666666667" y="652.6666666666666"/>
      <point x="379.3666666666666" y="533.8333333333334"/>
      <point x="506.3" y="533.8333333333334" type="curve" smooth="yes"/>
      <point x="611.6333333333333" y="533.8333333333334"/>
      <point x="700.5" y="610.7"/>
      <point x="700.5" y="725.2" type="curve" smooth="yes"/>
      <point x="700.5" y="833.3666666666667"/>
      <point x="624.9333333333333" y="888.4333333333334"/>
      <point x="514.7333333333333" y="888.4333333333334" type="curve" smooth="yes"/>
      <point x="256.1333333333334" y="888.4333333333334"/>
      <point x="73.6" y="591.0333333333334"/>
      <point x="73.6" y="348.7" type="curve" smooth="yes"/>
      <point x="73.6" y="144.26666666666665"/>
      <point x="178.36666666666667" y="-5.0"/>
    </contour>
  </outline>
</glyph>
<glyph name="aiMatra-tamil" format="2">
  <advance width="1343.1333333333334"/>
  <unicode hex="0BC8"/>
  <note>
uni0BC8
</note>
  <outline>
    <contour>
      <point x="1006.2333333333333" y="-17.066666666666666" type="line"/>
      <point x="1175.3666666666666" y="43.06666666666666"/>
      <point x="1299.6333333333334" y="145.5"/>
      <point x="1299.6333333333334" y="313.1" type="curve" smooth="yes"/>
      <point x="1299.6333333333334" y="505.53333333333336"/>
      <point x="1123.7666666666667" y="586.4333333333333"/>
      <point x="949.4333333333334" y="586.4333333333333" type="curve" smooth="yes"/>
      <point x="753.3333333333333" y="586.4333333333333"/>
      <point x="523.6666666666666" y="415.8333333333333"/>
      <point x="523.6666666666666" y="179.13333333333333" type="curve" smooth="yes"/>
      <point x="523.6666666666666" y="79.53333333333333"/>
      <point x="576.3000000000001" y="-4.0"/>
      <point x="693.6" y="-4.0" type="curve" smooth="yes"/>
      <point x="827.5666666666667" y="-4.0"/>
      <point x="925.3000000000001" y="93.26666666666667"/>
      <point x="925.3000000000001" y="243.9" type="curve" smooth="yes"/>
      <point x="925.3000000000001" y="476.59999999999997"/>
      <point x="731.5333333333333" y="586.4333333333333"/>
      <point x="492.6333333333333" y="586.4333333333333" type="curve" smooth="yes"/>
      <point x="256.53333333333336" y="586.4333333333333"/>
      <point x="34.6" y="431.1666666666667"/>
      <point x="34.6" y="222.23333333333332" type="curve" smooth="yes"/>
      <point x="34.6" y="90.3"/>
      <point x="116.5" y="-5.0"/>
      <point x="244.7" y="-5.0" type="curve" smooth="yes"/>
      <point x="366.20000000000005" y="-5.0"/>
      <point x="469.4666666666667" y="71.03333333333333"/>
      <point x="469.4666666666667" y="202.0" type="curve" smooth="yes"/>
      <point x="469.4666666666667" y="290.43333333333334"/>
      <point x="412.8666666666666" y="349.6"/>
      <point x="317.3" y="349.6" type="curve" smooth="yes"/>
      <point x="201.53333333333333" y="349.6"/>
      <point x="120.96666666666667" y="249.4"/>
      <point x="94.6" y="135.83333333333331" type="curve"/>
      <point x="135.63333333333333" y="104.1" type="line"/>
      <point x="157.6" y="184.03333333333333"/>
      <point x="190.66666666666666" y="231.83333333333334"/>
      <point x="238.86666666666667" y="231.83333333333334" type="curve" smooth="yes"/>
      <point x="271.93333333333334" y="231.83333333333334"/>
      <point x="291.4666666666667" y="204.83333333333331"/>
      <point x="291.4666666666667" y="171.46666666666667" type="curve" smooth="yes"/>
      <point x="291.4666666666667" y="119.16666666666667"/>
      <point x="260.2" y="83.96666666666667"/>
      <point x="207.70000000000002" y="83.96666666666667" type="curve" smooth="yes"/>
      <point x="159.36666666666667" y="83.96666666666667"/>
      <point x="112.30000000000001" y="136.83333333333334"/>
      <point x="112.30000000000001" y="231.3" type="curve" smooth="yes"/>
      <point x="112.30000000000001" y="390.1"/>
      <point x="286.7666666666667" y="507.1"/>
      <point x="471.6666666666667" y="507.1" type="curve" smooth="yes"/>
      <point x="648.3000000000001" y="507.1"/>
      <point x="751.4" y="418.1333333333334"/>
      <point x="751.4" y="260.06666666666666" type="curve" smooth="yes"/>
      <point x="751.4" y="165.5"/>
      <point x="718.2" y="92.30000000000001"/>
      <point x="656.1" y="92.30000000000001" type="curve" smooth="yes"/>
      <point x="620.3333333333333" y="92.30000000000001"/>
      <point x="600.9000000000001" y="125.9"/>
      <point x="600.9000000000001" y="183.5" type="curve" smooth="yes"/>
      <point x="600.9000000000001" y="377.40000000000003"/>
      <point x="783.3333333333334" y="507.1"/>
      <point x="930.5333333333334" y="507.1" type="curve" smooth="yes"/>
      <point x="1044.8666666666666" y="507.1"/>
      <point x="1128.8333333333335" y="445.6"/>
      <point x="1128.8333333333335" y="325.6666666666667" type="curve" smooth="yes"/>
      <point x="1128.8333333333335" y="199.49999999999997"/>
      <point x="1080.0333333333333" y="117.56666666666666"/>
      <point x="978.9666666666667" y="34.0" type="curve"/>
    </contour>
  </outline>
</glyph>
<glyph name="halant-tamil" format="2">
  <unicode hex="0BCD"/>
  <note>
uni0BCD
</note>
  <anchor x="64.63333333333334" y="581.0666666666667" name="_top"/>
  <outline>
    <contour>
      <point x="96.43333333333334" y="649.9333333333334" type="curve" smooth="yes"/>
      <point x="149.86666666666667" y="649.9333333333334"/>
      <point x="195.29999999999998" y="693.1"/>
      <point x="195.29999999999998" y="745.1666666666666" type="curve" smooth="yes"/>
      <point x="195.29999999999998" y="796.9666666666666"/>
      <point x="150.5" y="840.7666666666668"/>
      <point x="97.43333333333334" y="840.7666666666668" type="curve" smooth="yes"/>
      <point x="43.0" y="840.7666666666668"/>
      <point x="-1.4333333333333336" y="796.9666666666666"/>
      <point x="-1.4333333333333336" y="745.1666666666666" type="curve" smooth="yes"/>
      <point x="-1.4333333333333336" y="693.1"/>
      <point x="42.36666666666667" y="649.9333333333334"/>
    </contour>
  </outline>
</glyph>
